<svg width="353" height="347" viewBox="0 0 353 347" fill="none" xmlns="http://www.w3.org/2000/svg">
<g clip-path="url(#clip0_10_4)">
<path d="M325.452 196.459C254.68 257.082 305.578 304.146 137.101 291.801C58.2263 286.015 19.1608 226.978 10.1152 173.035C-1.10045 106.157 41.8122 58.681 159.951 58.681C213.242 58.681 261.323 42.847 294.89 64.1642C341.681 93.8905 360.27 166.637 325.452 196.459Z" fill="url(#paint0_linear_10_4)"/>
<path d="M66.3959 99.7985H248.316V278.941H66.3959V99.7985Z" fill="url(#paint1_radial_10_4)"/>
<path d="M239.9 198.86L218.093 211.374L218.41 211.911L240.216 199.398C240.529 199.216 240.723 198.895 240.727 198.535C240.731 198.175 240.551 197.85 240.238 197.659L237.575 196.034C237.516 195.998 237.467 195.948 237.434 195.888C237.401 195.828 237.384 195.76 237.386 195.692C237.39 195.553 237.465 195.427 237.589 195.362L245.767 190.833C246 190.889 246.256 190.928 246.533 190.928C247.497 190.928 248.276 190.538 248.276 190.052C248.276 189.571 247.497 189.177 246.533 189.177C245.569 189.177 244.79 189.567 244.79 190.052C244.79 190.221 244.891 190.377 245.054 190.512L237.276 194.816C236.955 194.994 236.761 195.314 236.752 195.679C236.743 196.038 236.924 196.372 237.241 196.563L239.904 198.188C240.027 198.262 240.093 198.383 240.093 198.526C240.093 198.665 240.023 198.786 239.9 198.86Z" fill="url(#paint2_linear_10_4)"/>
<path d="M248.835 198.609C249.795 198.609 250.578 198.219 250.578 197.733C250.578 197.252 249.799 196.858 248.835 196.858C247.871 196.858 247.092 197.248 247.092 197.733C247.092 197.907 247.198 198.071 247.374 198.21L220.611 213.541L220.928 214.079L248.087 198.522C248.316 198.574 248.566 198.609 248.835 198.609Z" fill="url(#paint3_linear_10_4)"/>
<path d="M248.694 172.823L200.693 200.113L201.01 200.65L249.407 173.135C249.636 173.191 249.887 173.221 250.155 173.221C251.115 173.221 251.899 172.831 251.899 172.346C251.899 171.865 251.119 171.47 250.155 171.47C249.192 171.47 248.412 171.86 248.412 172.346C248.412 172.528 248.518 172.688 248.694 172.823Z" fill="url(#paint4_linear_10_4)"/>
<path d="M208.709 182.835L189.42 194.096L189.742 194.63L209.03 183.368C209.269 183.23 209.466 183.032 209.602 182.795C209.738 182.557 209.808 182.289 209.805 182.016C209.804 181.743 209.731 181.476 209.591 181.24C209.452 181.004 209.253 180.808 209.012 180.672L206.415 179.199C206.272 179.119 206.152 179.003 206.069 178.863C205.985 178.723 205.941 178.564 205.94 178.401C205.936 178.239 205.976 178.079 206.055 177.937C206.134 177.795 206.249 177.675 206.389 177.591L212.19 174.023C212.406 174.071 212.644 174.097 212.895 174.097C213.859 174.097 214.638 173.707 214.638 173.221C214.638 172.74 213.859 172.346 212.895 172.346C211.935 172.346 211.152 172.736 211.152 173.221C211.152 173.408 211.275 173.581 211.473 173.724L206.054 177.057C205.821 177.199 205.63 177.399 205.499 177.636C205.369 177.873 205.304 178.14 205.311 178.41C205.319 178.965 205.619 179.459 206.103 179.736L208.7 181.21C208.995 181.379 209.175 181.682 209.175 182.016C209.175 182.359 208.999 182.662 208.709 182.835Z" fill="url(#paint5_linear_10_4)"/>
<path d="M232.016 219.969L263.33 202.167C263.791 201.906 264.318 201.78 264.849 201.804C265.38 201.828 265.893 202 266.327 202.302L269.193 204.296C269.743 204.681 270.398 204.897 271.073 204.914C271.748 204.932 272.413 204.751 272.983 204.395L277.38 201.665C277.57 201.699 277.772 201.721 277.988 201.721C278.952 201.721 279.731 201.331 279.731 200.845C279.731 200.36 278.952 199.97 277.988 199.97C277.028 199.97 276.245 200.36 276.245 200.845C276.245 201.053 276.394 201.24 276.632 201.392L272.644 203.871C272.179 204.161 271.637 204.308 271.086 204.293C270.536 204.278 270.003 204.103 269.554 203.789L266.688 201.795C266.155 201.425 265.525 201.213 264.873 201.183C264.222 201.153 263.575 201.307 263.009 201.626L231.695 219.428L232.016 219.969Z" fill="url(#paint6_linear_10_4)"/>
<path d="M110.669 198.908C110.609 198.874 110.559 198.826 110.524 198.767C110.489 198.708 110.471 198.642 110.471 198.574C110.471 198.435 110.537 198.31 110.66 198.236L113.323 196.61C113.475 196.518 113.6 196.388 113.686 196.234C113.771 196.079 113.815 195.905 113.811 195.729C113.808 195.553 113.757 195.381 113.666 195.23C113.574 195.079 113.444 194.954 113.288 194.868L105.51 190.564C105.677 190.429 105.774 190.273 105.774 190.104C105.774 189.623 104.995 189.229 104.031 189.229C103.071 189.229 102.288 189.619 102.288 190.104C102.288 190.59 103.067 190.98 104.031 190.98C104.308 190.98 104.563 190.945 104.797 190.889L112.975 195.414C113.103 195.484 113.173 195.605 113.178 195.748C113.182 195.887 113.112 196.012 112.988 196.086L110.325 197.711C110.174 197.803 110.049 197.932 109.964 198.086C109.878 198.239 109.834 198.412 109.836 198.587C109.839 198.762 109.887 198.933 109.976 199.084C110.066 199.236 110.194 199.361 110.347 199.45L132.154 211.963L132.47 211.426L110.669 198.908Z" fill="url(#paint7_linear_10_4)"/>
<path d="M103.476 197.781C103.476 197.295 102.697 196.905 101.733 196.905C100.769 196.905 99.99 197.295 99.99 197.781C99.99 198.262 100.769 198.656 101.733 198.656C102.002 198.656 102.252 198.622 102.477 198.57L129.636 214.126L129.953 213.589L103.194 198.262C103.371 198.119 103.476 197.959 103.476 197.781Z" fill="url(#paint8_linear_10_4)"/>
<path d="M72.5759 201.769C72.7916 201.769 72.9941 201.747 73.1834 201.712L77.5807 204.443C78.1518 204.799 78.8176 204.98 79.4933 204.962C80.169 204.944 80.824 204.729 81.375 204.343L84.2405 202.349C84.6752 202.048 85.1883 201.875 85.7194 201.852C86.2505 201.828 86.7774 201.954 87.2381 202.215L118.552 220.017L118.869 219.48L87.5551 201.678C86.9894 201.357 86.3426 201.203 85.6907 201.232C85.0389 201.261 84.409 201.473 83.8752 201.842L81.0097 203.836C80.5606 204.15 80.027 204.325 79.4767 204.338C78.9264 204.352 78.3844 204.205 77.9196 203.914L73.9317 201.435C74.1693 201.283 74.319 201.097 74.319 200.889C74.319 200.408 73.5399 200.013 72.5759 200.013C71.6119 200.013 70.8328 200.403 70.8328 200.889C70.8372 201.379 71.6163 201.769 72.5759 201.769Z" fill="url(#paint9_linear_10_4)"/>
<path d="M100.413 173.273C100.681 173.273 100.936 173.238 101.161 173.186L149.558 200.702L149.875 200.165L101.874 172.874C102.05 172.74 102.151 172.575 102.151 172.402C102.151 171.921 101.372 171.526 100.408 171.526C99.4442 171.526 98.6651 171.916 98.6651 172.402C98.6695 172.883 99.4486 173.273 100.413 173.273Z" fill="url(#paint10_linear_10_4)"/>
<path d="M141.393 182.072C141.393 181.734 141.573 181.435 141.868 181.266L144.465 179.792C144.949 179.515 145.249 179.021 145.258 178.466C145.266 177.911 144.989 177.408 144.509 177.114L139.091 173.78C139.293 173.637 139.412 173.464 139.412 173.278C139.412 172.792 138.633 172.402 137.669 172.402C136.705 172.402 135.926 172.792 135.926 173.278C135.926 173.759 136.705 174.153 137.669 174.153C137.92 174.153 138.158 174.127 138.373 174.08L144.175 177.647C144.314 177.733 144.429 177.852 144.507 177.994C144.586 178.137 144.626 178.296 144.623 178.458C144.621 178.62 144.575 178.779 144.492 178.918C144.409 179.058 144.291 179.174 144.148 179.255L141.551 180.729C141.311 180.864 141.111 181.06 140.972 181.296C140.833 181.532 140.76 181.8 140.759 182.072C140.755 182.632 141.045 183.139 141.538 183.425L160.827 194.69L161.148 194.153L141.859 182.887C141.564 182.714 141.393 182.406 141.393 182.072Z" fill="url(#paint11_linear_10_4)"/>
<path d="M110.669 255.868L132.475 243.359L132.158 242.821L110.352 255.335C110.197 255.422 110.069 255.548 109.979 255.699C109.89 255.85 109.842 256.022 109.841 256.197C109.837 256.557 110.017 256.882 110.33 257.073L112.993 258.698C113.116 258.772 113.182 258.898 113.182 259.037C113.182 259.105 113.163 259.172 113.127 259.231C113.092 259.289 113.041 259.338 112.98 259.37L104.801 263.896C104.568 263.839 104.313 263.8 104.035 263.8C103.076 263.8 102.292 264.19 102.292 264.676C102.292 265.157 103.071 265.551 104.035 265.551C104.999 265.551 105.778 265.161 105.778 264.676C105.778 264.507 105.677 264.351 105.514 264.216L113.292 259.912C113.613 259.734 113.807 259.414 113.816 259.05C113.825 258.685 113.64 258.356 113.327 258.165L110.664 256.54C110.605 256.505 110.556 256.456 110.523 256.396C110.49 256.337 110.473 256.27 110.475 256.202C110.471 256.059 110.545 255.937 110.669 255.868Z" fill="url(#paint12_linear_10_4)"/>
<path d="M101.733 256.115C100.769 256.115 99.99 256.505 99.99 256.991C99.99 257.472 100.769 257.866 101.733 257.866C102.697 257.866 103.476 257.476 103.476 256.991C103.476 256.813 103.371 256.653 103.194 256.514L129.953 241.183L129.636 240.645L102.481 256.202C102.252 256.15 102.002 256.115 101.733 256.115Z" fill="url(#paint13_linear_10_4)"/>
<path d="M101.874 281.901L149.875 254.611L149.558 254.074L101.161 281.589C100.932 281.533 100.681 281.503 100.408 281.503C99.4442 281.503 98.6651 281.893 98.6651 282.378C98.6651 282.859 99.4442 283.254 100.408 283.254C101.372 283.254 102.151 282.864 102.151 282.378C102.151 282.2 102.05 282.036 101.874 281.901Z" fill="url(#paint14_linear_10_4)"/>
<path d="M141.859 271.888L161.148 260.623L160.827 260.09L141.538 271.351C141.299 271.49 141.102 271.688 140.965 271.925C140.829 272.162 140.757 272.431 140.759 272.703C140.763 273.263 141.058 273.765 141.551 274.047L144.148 275.521C144.439 275.686 144.619 275.985 144.624 276.318C144.628 276.652 144.461 276.956 144.175 277.129L138.373 280.692C138.158 280.644 137.92 280.618 137.669 280.618C136.705 280.618 135.926 281.008 135.926 281.494C135.926 281.975 136.705 282.369 137.669 282.369C138.629 282.369 139.412 281.979 139.412 281.494C139.412 281.303 139.289 281.13 139.091 280.987L144.509 277.653C144.743 277.512 144.934 277.312 145.066 277.075C145.197 276.838 145.263 276.571 145.258 276.301C145.249 275.751 144.949 275.252 144.465 274.975L141.868 273.501C141.725 273.42 141.605 273.303 141.522 273.162C141.438 273.021 141.394 272.86 141.393 272.697C141.392 272.534 141.435 272.373 141.517 272.232C141.598 272.09 141.717 271.971 141.859 271.888Z" fill="url(#paint15_linear_10_4)"/>
<path d="M118.552 234.754L87.2381 252.556C86.7774 252.818 86.2505 252.944 85.7194 252.92C85.1884 252.896 84.6752 252.723 84.2405 252.422L81.375 250.428C80.2438 249.639 78.756 249.605 77.5807 250.328L73.179 253.059C72.9787 253.022 72.7753 253.003 72.5715 253.003C71.6075 253.003 70.8284 253.393 70.8284 253.878C70.8284 254.364 71.6075 254.754 72.5715 254.754C73.5355 254.754 74.3146 254.364 74.3146 253.878C74.3146 253.67 74.165 253.484 73.9273 253.337L77.9152 250.857C78.3804 250.567 78.9227 250.421 79.473 250.435C80.0233 250.45 80.5567 250.625 81.0053 250.94L83.8708 252.934C84.4046 253.303 85.0344 253.515 85.6863 253.544C86.3382 253.573 86.985 253.419 87.5507 253.098L118.865 235.296L118.552 234.754Z" fill="url(#paint16_linear_10_4)"/>
<path d="M250.574 256.943C250.574 256.462 249.795 256.067 248.831 256.067C248.562 256.067 248.311 256.102 248.087 256.154L220.928 240.597L220.611 241.135L247.374 256.466C247.198 256.605 247.092 256.765 247.092 256.943C247.092 257.428 247.871 257.819 248.835 257.819C249.795 257.819 250.574 257.424 250.574 256.943Z" fill="url(#paint17_linear_10_4)"/>
<path d="M244.794 264.624C244.794 265.105 245.573 265.499 246.537 265.499C247.501 265.499 248.28 265.109 248.28 264.624C248.28 264.143 247.501 263.748 246.537 263.748C246.26 263.748 246.005 263.783 245.771 263.839L237.593 259.314C237.533 259.281 237.482 259.232 237.447 259.174C237.411 259.115 237.392 259.048 237.39 258.98C237.388 258.912 237.404 258.845 237.437 258.785C237.471 258.726 237.52 258.676 237.58 258.642L240.243 257.017C240.555 256.83 240.736 256.501 240.731 256.141C240.727 255.781 240.533 255.461 240.221 255.279L218.415 242.765L218.098 243.302L239.904 255.816C240.027 255.885 240.098 256.007 240.102 256.15C240.102 256.288 240.036 256.414 239.913 256.488L237.25 258.113C236.937 258.304 236.757 258.633 236.761 258.998C236.77 259.362 236.964 259.682 237.285 259.86L245.063 264.164C244.895 264.299 244.794 264.455 244.794 264.624Z" fill="url(#paint18_linear_10_4)"/>
<path d="M277.988 252.955C277.772 252.955 277.57 252.977 277.38 253.012L272.983 250.281C272.413 249.925 271.748 249.744 271.073 249.762C270.398 249.779 269.743 249.995 269.193 250.38L266.328 252.374C265.893 252.676 265.38 252.848 264.849 252.872C264.318 252.896 263.791 252.77 263.33 252.509L232.016 234.707L231.699 235.244L263.013 253.046C263.579 253.367 264.226 253.521 264.877 253.492C265.529 253.463 266.159 253.251 266.693 252.882L269.559 250.888C270.008 250.574 270.541 250.399 271.091 250.385C271.641 250.37 272.183 250.516 272.649 250.805L276.637 253.285C276.399 253.436 276.249 253.623 276.249 253.831C276.249 254.312 277.028 254.706 277.992 254.706C278.956 254.706 279.735 254.316 279.735 253.831C279.731 253.345 278.952 252.955 277.988 252.955Z" fill="url(#paint19_linear_10_4)"/>
<path d="M212.895 280.575C212.644 280.575 212.406 280.601 212.19 280.649L206.389 277.081C206.249 276.996 206.135 276.876 206.056 276.734C205.978 276.591 205.938 276.432 205.94 276.27C205.943 276.108 205.988 275.95 206.071 275.81C206.155 275.67 206.273 275.554 206.415 275.473L209.012 273.995C209.253 273.86 209.454 273.665 209.593 273.429C209.732 273.193 209.805 272.924 209.805 272.651C209.809 272.092 209.519 271.585 209.026 271.299L189.737 260.034L189.416 260.571L208.704 271.832C208.999 272.006 209.175 272.309 209.171 272.647C209.171 272.985 208.99 273.284 208.695 273.453L206.098 274.927C205.614 275.204 205.315 275.699 205.306 276.253C205.297 276.808 205.575 277.311 206.05 277.606L211.469 280.939C211.266 281.082 211.147 281.255 211.147 281.442C211.147 281.923 211.926 282.317 212.89 282.317C213.854 282.317 214.633 281.927 214.633 281.442C214.633 280.965 213.854 280.575 212.895 280.575Z" fill="url(#paint20_linear_10_4)"/>
<path d="M250.156 281.45C249.887 281.45 249.632 281.485 249.403 281.537L201.006 254.021L200.689 254.559L248.69 281.849C248.514 281.988 248.412 282.148 248.412 282.322C248.412 282.803 249.192 283.197 250.156 283.197C251.115 283.197 251.899 282.807 251.899 282.322C251.899 281.836 251.12 281.45 250.156 281.45Z" fill="url(#paint21_linear_10_4)"/>
<path d="M272.442 121.736C272.442 121.736 237.364 100.501 164.278 100.176C139.918 100.067 96.1473 106.469 70.0274 118.953C39.6025 133.5 38.282 152.168 38.282 152.168L38.2776 154.652C39.9238 159.598 44.5809 171.405 53.2171 177.703C64.3271 185.809 70.9121 189.077 70.9121 189.077L74.6096 187.023L268.647 123.01L272.442 121.736Z" fill="url(#paint22_linear_10_4)"/>
<path d="M39.915 244.915C39.915 244.915 53.3623 205.401 149.488 197.803C215.861 192.553 268.652 215.496 268.652 215.496V123.01C268.652 123.01 237.985 103.535 164.898 103.209C140.539 103.101 96.7679 109.504 70.648 121.987C40.2231 136.538 40.1351 156.122 40.1351 156.122L39.915 244.915Z" fill="url(#paint23_linear_10_4)"/>
<g opacity="0.3">
<path opacity="0.56" d="M138.923 120.942V125.637L90.1521 136.057L90.0464 131.233L138.923 120.942ZM138.923 128.172V132.867L90.1521 143.283L90.0464 138.467L138.923 128.172ZM138.923 135.398V140.092L90.1521 150.513L90.0464 145.693L138.923 135.398ZM138.923 142.628V147.322L90.1521 157.738L90.0464 152.918L138.923 142.628ZM138.923 149.858V154.552L117.06 159.403L116.954 154.583L138.923 149.858ZM138.923 157.084V161.778L90.1521 172.194L90.0464 167.378L138.923 157.084ZM138.923 164.314V169.008L90.1521 179.424L90.0464 174.604L138.923 164.314ZM138.923 171.54V176.234L90.1521 186.654L90.0464 181.834L138.923 171.54ZM138.923 178.77V183.464L90.1521 193.88L90.0464 189.064L138.923 178.77Z" fill="white"/>
</g>
<g opacity="0.7">
<path d="M228.851 186.186L246.925 175.909L264.998 186.186L246.674 196.316L228.851 186.186Z" fill="#2B68B5"/>
<path d="M228.851 180.07L246.925 169.797L264.998 180.07L246.674 190.204L228.851 180.07Z" fill="#5691DD"/>
<path d="M228.851 172.398L246.925 162.125L264.998 172.398L246.674 182.532L228.851 172.398Z" fill="#1AAC92"/>
<path d="M228.851 165.775L246.925 155.502L264.998 165.775L246.674 175.909L228.851 165.775Z" fill="#1AAC92"/>
<path d="M228.851 159.156L246.925 148.879L264.998 159.156L246.674 169.286L228.851 159.156Z" fill="#1AAC92"/>
<path d="M228.851 152.901L246.925 142.624L264.998 152.901L246.674 163.031L228.851 152.901Z" fill="#30E3CA"/>
<path d="M228.851 146.646L246.925 136.373L264.998 146.646L246.674 156.78L228.851 146.646Z" fill="#00CCB0"/>
<path d="M228.851 140.396L246.925 130.119L264.998 140.396L246.674 150.526L228.851 140.396Z" fill="#30E3CA"/>
</g>
<g opacity="0.6">
<path opacity="0.56" d="M195.886 110.383V113.275L225.915 118.597L225.981 115.628L195.886 110.383ZM195.886 114.835V117.722L225.915 123.049L225.981 120.08L195.886 114.835ZM195.886 119.282V122.173L225.915 127.496L225.981 124.527L195.886 119.282ZM195.886 123.734V126.625L225.915 131.948L225.981 128.979L195.886 123.734ZM195.886 128.185V131.072L209.351 133.573L209.413 130.604L195.886 128.185ZM195.886 132.633V135.524L225.915 140.851L225.981 137.882L195.886 132.633ZM195.886 137.084V139.975L225.915 145.298L225.981 142.329L195.886 137.084ZM195.886 141.536V144.423L225.915 149.75L225.981 146.781L195.886 141.536ZM195.886 145.983V148.874L225.915 154.201L225.981 151.232L195.886 145.983Z" fill="white"/>
</g>
<g opacity="0.6">
<path opacity="0.56" d="M195.886 152.693V155.584L225.915 160.911L225.981 157.942L195.886 152.693ZM195.886 157.144V160.036L225.915 165.358L225.981 162.389L195.886 157.144ZM195.886 161.596V164.483L225.915 169.81L225.981 166.841L195.886 161.596ZM195.886 166.043V168.934L225.915 174.262L225.981 171.292L195.886 166.043ZM195.886 170.495V173.386L209.351 175.883L209.413 172.914L195.886 170.495ZM195.886 174.946V177.833L225.915 183.16L225.981 180.191L195.886 174.946ZM195.886 179.394V182.285L225.915 187.612L225.981 184.643L195.886 179.394ZM195.886 183.845V186.736L225.915 192.059L225.981 189.09L195.886 183.845ZM195.886 188.297V191.184L225.915 196.511L225.981 193.542L195.886 188.297Z" fill="white"/>
</g>
<path d="M58.5784 170.465C64.0944 170.465 68.5659 163.071 68.5659 153.95C68.5659 144.829 64.0944 137.435 58.5784 137.435C53.0624 137.435 48.5908 144.829 48.5908 153.95C48.5908 163.071 53.0624 170.465 58.5784 170.465Z" fill="#1AAC92"/>
<path d="M60.0883 208.444C65.6042 208.444 70.0758 201.05 70.0758 191.929C70.0758 182.808 65.6042 175.415 60.0883 175.415C54.5723 175.415 50.1007 182.808 50.1007 191.929C50.1007 201.05 54.5723 208.444 60.0883 208.444Z" fill="url(#paint24_linear_10_4)"/>
<path d="M155.558 170.217L155.219 185.865L161.949 185.518L162.292 169.884L155.558 170.217Z" fill="#30E3CA"/>
<path d="M149.29 162.745L155.558 170.217L155.219 185.865L148.669 177.859L149.29 162.745Z" fill="#00CCB0"/>
<path d="M149.289 162.745L155.905 162.359L162.292 169.884L155.558 170.217L149.289 162.745Z" fill="#00FFDB"/>
<path d="M169.661 155.939L169.023 185.085L175.753 184.743L176.391 155.606L169.661 155.939Z" fill="#1AAC92"/>
<path d="M163.388 148.467L169.661 155.939L169.023 185.085L162.473 177.083L163.388 148.467Z" fill="#1AAC92"/>
<path d="M163.388 148.467L170.009 148.081L176.391 155.606L169.661 155.94L163.388 148.467Z" fill="#1AAC92"/>
<path d="M183.76 136.655L182.703 185.12L189.438 184.777L190.494 136.321L183.76 136.655Z" fill="#5691DD"/>
<path d="M177.492 129.182L183.76 136.655L182.703 185.12L176.153 177.114L177.492 129.182Z" fill="#2B68B5"/>
<path d="M177.492 129.182L184.107 128.797L190.494 136.321L183.76 136.655L177.492 129.182Z" fill="#0061DD"/>
<path d="M70.6964 279.192L70.9121 189.077C70.9121 189.077 62.5356 186.472 50.6289 175.618C38.7221 164.765 38.5021 151.085 38.5021 151.085L37.6217 242.049C37.6217 242.049 38.0355 252.119 47.5432 265.495C53.0102 273.185 62.3419 277.931 67.3247 280.046L70.6964 279.192Z" fill="url(#paint25_linear_10_4)"/>
<g opacity="0.8">
<path opacity="0.56" d="M40.6017 179.944V182.831L62.9009 198.96L62.9493 196.017L40.6017 179.944ZM40.6017 184.391V187.283L62.9009 203.411L62.9493 200.464L40.6017 184.391ZM40.6017 188.843V191.734L62.9009 207.863L62.9493 204.915L40.6017 188.843ZM40.6017 193.295V196.181L62.9009 212.31L62.9493 209.367L40.6017 193.295ZM40.6017 197.742V200.633L50.598 207.976L50.6465 205.028L40.6017 197.742ZM40.6017 202.193V205.085L62.9009 221.213L62.9493 218.266L40.6017 202.193ZM40.6017 206.645V209.532L62.9009 225.661L62.9493 222.717L40.6017 206.645ZM40.6017 211.092V213.983L62.9009 230.112L62.9493 227.165L40.6017 211.092ZM40.6017 215.544V218.435L62.9009 234.564L62.9493 231.616L40.6017 215.544ZM40.6017 228.669V231.56L62.9009 247.689L62.9493 244.741L40.6017 228.669ZM40.6017 233.12V236.007L62.9009 252.136L62.9493 249.193L40.6017 233.12ZM40.6017 237.568V240.459L62.9009 256.588L62.9493 253.64L40.6017 237.568ZM40.6017 242.019V244.91L62.9009 261.039L62.9493 258.092L40.6017 242.019Z" fill="white"/>
</g>
<path d="M38.5021 151.085L38.3876 162.974C42.741 172.363 52.0507 185.861 70.9033 192.055L70.9121 189.077C70.9121 189.077 62.5356 186.472 50.6289 175.618C38.7266 164.765 38.5021 151.085 38.5021 151.085Z" fill="url(#paint26_linear_10_4)"/>
<path d="M70.9122 189.077L67.5713 191.019V279.929L70.9254 279.27L70.9122 189.077Z" fill="url(#paint27_linear_10_4)"/>
<path d="M268.647 123.01V215.496L272.442 213.533V121.736L268.647 123.01Z" fill="url(#paint28_linear_10_4)"/>
<path d="M304.605 120.583C305.993 120.583 307.119 119.475 307.119 118.108C307.119 116.741 305.993 115.633 304.605 115.633C303.217 115.633 302.092 116.741 302.092 118.108C302.092 119.475 303.217 120.583 304.605 120.583Z" fill="#D9D9D9"/>
<path d="M78.9629 102.768C80.351 102.768 81.4763 101.66 81.4763 100.293C81.4763 98.9257 80.351 97.8176 78.9629 97.8176C77.5747 97.8176 76.4495 98.9257 76.4495 100.293C76.4495 101.66 77.5747 102.768 78.9629 102.768Z" fill="#D9D9D9"/>
<path d="M252.431 87.0376C258.44 92.9803 268.194 93.0063 274.233 87.094C280.268 81.1816 280.294 71.572 274.29 65.6293C268.286 59.6866 258.528 59.6606 252.493 65.573C246.449 71.4853 246.427 81.0949 252.431 87.0376Z" fill="url(#paint29_linear_10_4)"/>
<path d="M117.659 80.9909C120.712 80.9909 123.187 78.5535 123.187 75.5467C123.187 72.54 120.712 70.1025 117.659 70.1025C114.605 70.1025 112.13 72.54 112.13 75.5467C112.13 78.5535 114.605 80.9909 117.659 80.9909Z" fill="url(#paint30_linear_10_4)"/>
<path opacity="0.6" d="M28.9018 134.514C31.1918 134.514 33.0482 132.686 33.0482 130.431C33.0482 128.176 31.1918 126.348 28.9018 126.348C26.6117 126.348 24.7553 128.176 24.7553 130.431C24.7553 132.686 26.6117 134.514 28.9018 134.514Z" fill="url(#paint31_linear_10_4)"/>
<path d="M189.521 80.9909C190.91 80.9909 192.035 79.8828 192.035 78.5159C192.035 77.149 190.91 76.0409 189.521 76.0409C188.133 76.0409 187.008 77.149 187.008 78.5159C187.008 79.8828 188.133 80.9909 189.521 80.9909Z" fill="#1256AE"/>
<path d="M152.336 77.1332L152.864 78.1908L154.048 78.3598L153.19 79.1791L153.392 80.3407L152.336 79.7946L151.279 80.3407L151.477 79.1791L150.623 78.3598L151.807 78.1908L152.336 77.1332Z" fill="white"/>
<path opacity="0.4" d="M45.4877 104.012L46.0159 105.069L47.1999 105.238L46.3416 106.062L46.5441 107.219L45.4877 106.673L44.4268 107.219L44.6293 106.062L43.7754 105.238L44.9595 105.069L45.4877 104.012Z" fill="white"/>
<path d="M26.6394 167.114L27.1676 168.172L28.3517 168.341L27.4977 169.164L27.6958 170.322L26.6394 169.775L25.583 170.322L25.7855 169.164L24.9271 168.341L26.1112 168.172L26.6394 167.114ZM327.89 145.779L328.419 146.837L329.603 147.006L328.749 147.83L328.947 148.987L327.89 148.441L326.834 148.987L327.036 147.83L326.178 147.006L327.362 146.837L327.89 145.779ZM311.287 89.3349L311.815 90.3925L312.999 90.5616L312.145 91.3852L312.348 92.5425L311.287 91.9963L310.231 92.5425L310.433 91.3852L309.575 90.5616L310.759 90.3925L311.287 89.3349Z" fill="white"/>
<path d="M285.167 204.205V208.717L293.187 213.368V208.717L285.167 204.205Z" fill="#5691DD"/>
<path d="M285.167 204.205L293.187 199.554L301.282 204.157L293.187 208.717L285.167 204.205Z" fill="#0061DD"/>
<path d="M301.282 204.157V208.717L293.187 213.368V208.717L301.282 204.157Z" fill="#2B68B5"/>
<path d="M273.062 211.114V215.622L281.078 220.273V215.622L273.062 211.114Z" fill="#5691DD"/>
<path d="M273.062 211.114L281.078 206.463L289.177 211.066L281.078 215.622L273.062 211.114Z" fill="#0061DD"/>
<path d="M289.177 211.066V215.622L281.078 220.273V215.622L289.177 211.066Z" fill="#2B68B5"/>
<path d="M297.298 211.114V215.622L305.314 220.273V215.622L297.298 211.114Z" fill="#5691DD"/>
<path d="M297.298 211.114L305.314 206.463L313.413 211.066L305.314 215.622L297.298 211.114Z" fill="#0061DD"/>
<path d="M313.413 211.066V215.622L305.314 220.273V215.622L313.413 211.066Z" fill="#2B68B5"/>
<path d="M285.189 218.019V222.531L293.205 227.182V222.531L285.189 218.019Z" fill="#5691DD"/>
<path d="M285.189 218.019L293.205 213.368L301.304 217.971L293.205 222.531L285.189 218.019Z" fill="#0061DD"/>
<path d="M301.304 217.971V222.531L293.205 227.182V222.531L301.304 217.971Z" fill="#2B68B5"/>
<path opacity="0.73" d="M273.502 209.853L273.093 76.1926C273.093 76.1926 285.229 78.2255 288.922 79.9029C296.022 83.1322 314.174 100.314 314.174 100.314L313.752 209.853L293.627 221.296L273.502 209.853Z" fill="url(#paint32_linear_10_4)"/>
<path d="M81.2122 270.762V275.274L89.2277 279.925V275.274L81.2122 270.762Z" fill="#5691DD"/>
<path d="M81.2122 270.762L89.2277 266.111L97.3269 270.718L89.2277 275.274L81.2122 270.762Z" fill="#0061DD"/>
<path d="M97.327 270.718V275.274L89.2278 279.925V275.274L97.327 270.718Z" fill="#2B68B5"/>
<path d="M69.103 277.671V282.179L77.1185 286.834V282.179L69.103 277.671Z" fill="#5691DD"/>
<path d="M69.103 277.671L77.1185 273.02L85.2178 277.623L77.1185 282.179L69.103 277.671Z" fill="#0061DD"/>
<path d="M85.2179 277.623V282.179L77.1187 286.834V282.179L85.2179 277.623Z" fill="#2B68B5"/>
<path d="M93.3391 277.671V282.179L101.355 286.834V282.179L93.3391 277.671Z" fill="#5691DD"/>
<path d="M93.3391 277.671L101.355 273.02L109.454 277.623L101.355 282.179L93.3391 277.671Z" fill="#0061DD"/>
<path d="M109.454 277.623V282.179L101.355 286.834V282.179L109.454 277.623Z" fill="#2B68B5"/>
<path d="M81.2298 284.576V289.088L89.2454 293.739V289.088L81.2298 284.576Z" fill="#5691DD"/>
<path d="M81.2298 284.576L89.2454 279.925L97.3446 284.528L89.2454 289.088L81.2298 284.576Z" fill="#0061DD"/>
<path d="M97.3447 284.528V289.088L89.2455 293.739V289.088L97.3447 284.528Z" fill="#2B68B5"/>
<path opacity="0.73" d="M69.103 277.71L68.6937 73.6482C68.6937 73.6482 80.5564 70.4537 84.5223 69.5651C101.077 65.8547 109.775 63.9995 109.775 63.9995L109.353 277.714L89.2278 289.157L69.103 277.71Z" fill="url(#paint33_linear_10_4)"/>
<g opacity="0.5">
<path d="M89.9012 251.915C88.5278 251.828 87.489 250.654 87.577 249.297C87.6607 247.94 88.8403 246.9 90.2137 246.987C91.5738 247.073 92.6126 248.252 92.529 249.605C92.441 250.966 91.2657 252.002 89.9012 251.915Z" fill="url(#paint34_radial_10_4)"/>
<path d="M90.2183 266.821C88.977 266.743 88.0394 265.681 88.1142 264.45C88.1935 263.219 89.2587 262.279 90.5 262.357C91.7369 262.435 92.6744 263.497 92.5996 264.728C92.5204 265.963 91.4552 266.899 90.2183 266.821Z" fill="url(#paint35_radial_10_4)"/>
<path d="M84.9449 261.646C84.1702 261.598 83.5759 260.935 83.6243 260.164C83.6728 259.388 84.3418 258.803 85.1209 258.85C85.8956 258.898 86.4899 259.561 86.4371 260.337C86.3886 261.109 85.7196 261.694 84.9449 261.646Z" fill="url(#paint36_radial_10_4)"/>
<path d="M82.5327 241.408C81.2958 241.33 80.3494 240.268 80.4286 239.037C80.5079 237.806 81.5731 236.865 82.8144 236.943C84.0513 237.021 84.9889 238.083 84.914 239.314C84.8348 240.55 83.7696 241.486 82.5327 241.408Z" fill="url(#paint37_radial_10_4)"/>
<path d="M81.9693 250.315C81.1946 250.268 80.6048 249.605 80.6532 248.833C80.7016 248.062 81.3707 247.472 82.1454 247.52C82.9201 247.567 83.5143 248.235 83.4659 249.006C83.4131 249.778 82.744 250.363 81.9693 250.315Z" fill="url(#paint38_radial_10_4)"/>
<path d="M72.8138 239.878C72.0391 239.83 71.4448 239.167 71.4932 238.391C71.504 238.208 71.5512 238.029 71.6323 237.865C71.7133 237.7 71.8266 237.552 71.9657 237.431C72.1047 237.309 72.2667 237.216 72.4425 237.156C72.6182 237.096 72.8042 237.071 72.9898 237.082C73.7645 237.13 74.3588 237.793 74.306 238.569C74.2575 239.34 73.5885 239.926 72.8138 239.878Z" fill="url(#paint39_radial_10_4)"/>
<path d="M77.5544 229.306C76.7797 229.258 76.1898 228.595 76.2383 227.819C76.2867 227.048 76.9557 226.458 77.7304 226.51C78.5052 226.558 79.0994 227.225 79.0466 227.997C79.0366 228.18 78.9901 228.359 78.9095 228.523C78.829 228.688 78.7161 228.836 78.5774 228.958C78.4387 229.079 78.2769 229.173 78.1013 229.232C77.9257 229.292 77.7398 229.317 77.5544 229.306Z" fill="url(#paint40_radial_10_4)"/>
<path d="M91.3538 233.298C90.1169 233.22 89.1749 232.158 89.2498 230.927C89.329 229.696 90.3986 228.76 91.6355 228.833C92.8724 228.912 93.81 229.973 93.7352 231.204C93.6559 232.44 92.5907 233.376 91.3538 233.298Z" fill="url(#paint41_radial_10_4)"/>
<path d="M95.2362 238.565C94.4615 238.517 93.8717 237.854 93.9201 237.078C93.9685 236.306 94.6376 235.717 95.4123 235.764C96.187 235.812 96.7812 236.48 96.7328 237.251C96.6844 238.027 96.0109 238.612 95.2362 238.565Z" fill="url(#paint42_radial_10_4)"/>
<path d="M86.0805 228.127C85.3058 228.079 84.7116 227.412 84.76 226.64C84.8084 225.864 85.4819 225.279 86.2566 225.327C87.0313 225.375 87.6212 226.038 87.5727 226.814C87.5243 227.589 86.8553 228.175 86.0805 228.127Z" fill="url(#paint43_radial_10_4)"/>
<path d="M94.4131 267.077C90.6716 266.843 87.8325 263.64 88.0702 259.917C88.3035 256.197 91.5255 253.367 95.2626 253.601C98.9997 253.835 101.839 257.043 101.606 260.762C101.372 264.481 98.1546 267.307 94.4131 267.077Z" fill="url(#paint44_radial_10_4)"/>
<path d="M101.958 269.604C98.2205 269.37 95.377 266.163 95.6147 262.444C95.848 258.724 99.0701 255.894 102.807 256.128C106.544 256.362 109.388 259.565 109.15 263.289C108.917 267.008 105.695 269.838 101.958 269.604Z" fill="url(#paint45_radial_10_4)"/>
<path d="M101.002 260.597C97.2654 260.363 94.4262 257.155 94.6595 253.436C94.8928 249.717 98.1149 246.887 101.852 247.121C105.589 247.355 108.428 250.558 108.195 254.282C107.957 258.001 104.74 260.827 101.002 260.597Z" fill="url(#paint46_radial_10_4)"/>
<path d="M85.4467 249.852C83.0873 249.704 81.2914 247.68 81.4411 245.331C81.5907 242.986 83.6244 241.196 85.9837 241.347C88.343 241.495 90.1389 243.523 89.9893 245.864C89.8396 248.213 87.8104 249.999 85.4467 249.852Z" fill="url(#paint47_radial_10_4)"/>
<path d="M99.6741 223.715C95.937 223.481 93.0934 220.273 93.3311 216.554C93.5644 212.835 96.7865 210.005 100.524 210.239C104.261 210.473 107.1 213.68 106.867 217.399C106.633 221.118 103.411 223.949 99.6741 223.715Z" fill="url(#paint48_radial_10_4)"/>
<path d="M83.0609 261.143C79.3238 260.909 76.4803 257.702 76.718 253.983C76.9513 250.263 80.1734 247.433 83.9104 247.667C87.6475 247.901 90.4866 251.109 90.2533 254.828C90.0156 258.547 86.798 261.373 83.0609 261.143Z" fill="url(#paint49_radial_10_4)"/>
<path d="M89.175 225.877C87.1062 225.747 85.5348 223.974 85.6624 221.916C85.7945 219.861 87.5772 218.296 89.646 218.422C91.7104 218.552 93.2862 220.325 93.1542 222.384C93.0265 224.443 91.2438 226.007 89.175 225.877Z" fill="url(#paint50_radial_10_4)"/>
<path d="M84.1437 230.39C83.3646 230.342 82.7792 229.674 82.8276 228.903C82.876 228.127 83.5451 227.542 84.3198 227.589C85.0945 227.637 85.6844 228.3 85.6359 229.076C85.5875 229.852 84.9185 230.437 84.1437 230.39Z" fill="url(#paint51_radial_10_4)"/>
<path d="M78.3907 250.892C77.616 250.844 77.0262 250.181 77.0746 249.41C77.123 248.634 77.7921 248.049 78.5668 248.101C79.3415 248.148 79.9358 248.811 79.8873 249.587C79.8761 249.77 79.8285 249.948 79.7472 250.113C79.6659 250.277 79.5525 250.424 79.4135 250.545C79.2746 250.666 79.1127 250.759 78.9372 250.819C78.7617 250.878 78.576 250.903 78.3907 250.892Z" fill="url(#paint52_radial_10_4)"/>
</g>
<path d="M85.9396 206.935C84.5663 206.849 83.5275 205.674 83.6155 204.317C83.6991 202.961 84.8788 201.92 86.2521 202.007C87.6123 202.094 88.6511 203.273 88.5675 204.625C88.4794 205.982 87.3042 207.018 85.9396 206.935Z" fill="url(#paint53_radial_10_4)"/>
<path d="M86.2566 221.842C85.0153 221.764 84.0777 220.702 84.1526 219.471C84.2318 218.24 85.297 217.299 86.5383 217.377C87.7752 217.455 88.7128 218.517 88.6379 219.748C88.5587 220.979 87.4935 221.916 86.2566 221.842Z" fill="url(#paint54_radial_10_4)"/>
<path d="M80.9833 216.666C80.2086 216.619 79.6144 215.956 79.6628 215.184C79.7112 214.408 80.3803 213.823 81.1594 213.871C81.9341 213.918 82.5283 214.582 82.4755 215.357C82.4271 216.129 81.758 216.714 80.9833 216.666Z" fill="url(#paint55_radial_10_4)"/>
<path d="M78.5711 196.424C77.3342 196.346 76.3879 195.284 76.4671 194.053C76.5463 192.822 77.6116 191.882 78.8528 191.96C80.0897 192.038 81.0273 193.1 80.9525 194.331C80.8732 195.566 79.808 196.502 78.5711 196.424Z" fill="url(#paint56_radial_10_4)"/>
<path d="M78.0077 205.332C77.233 205.284 76.6432 204.621 76.6916 203.845C76.74 203.073 77.4091 202.484 78.1838 202.536C78.9585 202.583 79.5528 203.251 79.5043 204.023C79.4515 204.794 78.7825 205.379 78.0077 205.332Z" fill="url(#paint57_radial_10_4)"/>
<path d="M68.8522 194.894C68.0774 194.846 67.4832 194.183 67.5316 193.407C67.5424 193.224 67.5896 193.046 67.6707 192.881C67.7517 192.716 67.865 192.569 68.0041 192.447C68.1431 192.325 68.3051 192.232 68.4809 192.172C68.6566 192.112 68.8426 192.087 69.0282 192.098C69.8029 192.146 70.3972 192.809 70.3443 193.585C70.2959 194.357 69.6269 194.942 68.8522 194.894Z" fill="url(#paint58_radial_10_4)"/>
<path d="M73.5928 184.322C72.8181 184.274 72.2283 183.611 72.2767 182.835C72.3251 182.064 72.9942 181.474 73.7689 181.522C74.5436 181.57 75.1378 182.237 75.085 183.009C75.0756 183.192 75.0294 183.371 74.9491 183.537C74.8688 183.702 74.756 183.85 74.6172 183.972C74.4785 184.094 74.3165 184.188 74.1406 184.248C73.9648 184.308 73.7786 184.333 73.5928 184.322Z" fill="url(#paint59_radial_10_4)"/>
<path d="M87.3923 188.319C86.1554 188.24 85.2134 187.179 85.2882 185.948C85.3675 184.717 86.4371 183.78 87.674 183.854C88.9109 183.932 89.8484 184.994 89.7736 186.225C89.6944 187.46 88.6291 188.397 87.3923 188.319Z" fill="url(#paint60_radial_10_4)"/>
<path d="M91.2745 193.581C90.4998 193.533 89.91 192.87 89.9584 192.094C90.0068 191.322 90.6759 190.733 91.4506 190.781C92.2253 190.828 92.8195 191.496 92.7711 192.267C92.7227 193.043 92.0492 193.628 91.2745 193.581Z" fill="url(#paint61_radial_10_4)"/>
<path d="M82.119 183.143C81.3443 183.095 80.7501 182.428 80.7985 181.661C80.8469 180.885 81.5204 180.3 82.2951 180.347C83.0698 180.395 83.6596 181.058 83.6112 181.834C83.5628 182.606 82.8937 183.191 82.119 183.143Z" fill="url(#paint62_radial_10_4)"/>
<path d="M90.8916 222.093C87.1501 221.859 84.311 218.656 84.5487 214.933C84.782 211.214 88.0041 208.383 91.7411 208.617C95.4782 208.851 98.3173 212.059 98.0841 215.778C97.8508 219.497 94.6331 222.327 90.8916 222.093Z" fill="url(#paint63_radial_10_4)"/>
<path d="M98.4363 224.625C94.6992 224.391 91.8557 221.183 92.0934 217.464C92.3267 213.745 95.5488 210.914 99.2859 211.149C103.023 211.383 105.866 214.59 105.629 218.309C105.395 222.028 102.173 224.854 98.4363 224.625Z" fill="url(#paint64_radial_10_4)"/>
<path d="M97.4811 215.613C93.744 215.379 90.9049 212.172 91.1382 208.452C91.3715 204.733 94.5935 201.903 98.3306 202.137C102.068 202.371 104.907 205.574 104.674 209.298C104.436 213.017 101.218 215.847 97.4811 215.613Z" fill="url(#paint65_radial_10_4)"/>
<path d="M81.3927 204.868C79.0333 204.72 77.2374 202.696 77.3871 200.347C77.5367 198.002 79.5703 196.212 81.9297 196.363C84.289 196.511 86.0849 198.539 85.9353 200.88C85.7856 203.229 83.7564 205.015 81.3927 204.868Z" fill="url(#paint66_radial_10_4)"/>
<path d="M75.9046 196.407C72.1675 196.173 69.324 192.966 69.5617 189.247C69.795 185.528 73.017 182.697 76.7541 182.931C80.4912 183.165 83.3303 186.373 83.097 190.092C82.8637 193.811 79.6417 196.641 75.9046 196.407ZM78.5456 219.38C74.8086 219.146 71.965 215.939 72.2027 212.22C72.436 208.501 75.6581 205.67 79.3952 205.904C83.1322 206.138 85.9714 209.346 85.7381 213.065C85.5004 216.784 82.2827 219.614 78.5456 219.38Z" fill="url(#paint67_radial_10_4)"/>
<path d="M85.1209 180.898C83.0521 180.768 81.4807 178.995 81.6083 176.936C81.7404 174.881 83.5231 173.317 85.5919 173.442C87.6563 173.572 89.2322 175.345 89.1001 177.404C88.9724 179.459 87.1897 181.028 85.1209 180.898Z" fill="url(#paint68_radial_10_4)"/>
<path d="M80.0898 185.406C79.3107 185.358 78.7253 184.691 78.7737 183.919C78.8221 183.143 79.4912 182.558 80.2659 182.606C81.0406 182.653 81.6304 183.316 81.582 184.092C81.5336 184.868 80.8645 185.458 80.0898 185.406Z" fill="url(#paint69_radial_10_4)"/>
<path d="M74.8693 205.912C74.0945 205.865 73.5047 205.202 73.5531 204.43C73.6016 203.654 74.2706 203.069 75.0453 203.121C75.82 203.169 76.4143 203.832 76.3658 204.608C76.3424 204.976 76.1717 205.32 75.8912 205.564C75.6107 205.809 75.2432 205.934 74.8693 205.912Z" fill="url(#paint70_radial_10_4)"/>
<path d="M81.9913 252.938L98.5506 231.538L82.6955 211.647L95.9932 185.393" stroke="white" stroke-width="0.857635"/>
<path d="M80.3407 244.984L76.5904 249.969L79.0642 255.656L82.8321 250.649L80.3407 244.984Z" fill="#30E3CA"/>
<path d="M89.1265 251.356L82.832 250.649L79.0641 255.656L85.3806 256.427L89.1265 251.356Z" fill="#00CCB0"/>
<path d="M86.6044 245.639L80.3407 244.984L82.8321 250.649L89.1266 251.356L86.6044 245.639Z" fill="#00FFDB"/>
<path d="M92.375 232.583L96.4026 237.355L102.6 236.332L98.5506 231.538L92.375 232.583Z" fill="#30E3CA"/>
<path d="M100.747 225.691L98.5507 231.538L102.6 236.332L104.858 230.472L100.747 225.691Z" fill="#00CCB0"/>
<path d="M94.5054 226.744L92.375 232.583L98.5506 231.538L100.747 225.691L94.5054 226.744Z" fill="#00FFDB"/>
<path d="M85.121 205.956L78.8705 206.74L76.4143 212.436L82.6956 211.647L85.121 205.956Z" fill="#27FFD9"/>
<path d="M86.5295 216.61L82.6956 211.647L76.4143 212.436L80.2218 217.455L86.5295 216.61Z" fill="#1AAC92"/>
<path d="M88.9769 210.862L85.121 205.956L82.6956 211.647L86.5295 216.61L88.9769 210.862Z" fill="#1AC7A8"/>
<path d="M98.4186 179.701L92.1681 180.486L89.712 186.182L95.9933 185.393L98.4186 179.701Z" fill="#0061DD"/>
<path d="M99.8271 190.36L95.9932 185.393L89.7119 186.182L93.5194 191.205L99.8271 190.36Z" fill="#2B68B5"/>
<path d="M102.275 184.608L98.4186 179.701L95.9932 185.393L99.8271 190.36L102.275 184.608Z" fill="#5691DD"/>
<path opacity="0.2" d="M128.491 159.893C128.491 163.235 125.74 165.944 122.347 165.944C118.953 165.944 116.202 163.235 116.202 159.893C116.202 156.551 118.953 153.842 122.347 153.842C125.74 153.842 128.491 156.551 128.491 159.893Z" fill="white"/>
<path opacity="0.3" d="M126.607 159.893C126.607 162.207 124.701 164.088 122.347 164.088C119.996 164.088 118.086 162.212 118.086 159.893C118.086 157.578 119.992 155.697 122.347 155.697C124.697 155.697 126.607 157.578 126.607 159.893Z" fill="white"/>
<path d="M201.406 203.312C201.406 203.312 216.064 214.035 219.973 215.548C223.882 217.061 225.277 216.783 230.163 218.023C235.049 219.258 245.38 220.771 251.102 222.696C256.824 224.62 261.292 227.095 261.292 227.095C261.292 227.095 258.919 223.108 259.338 221.46C259.756 219.813 259.756 218.847 259.756 218.847C259.756 218.847 257.102 218.574 253.474 216.233C249.843 213.897 243.144 208.396 235.049 206.749C226.954 205.098 223.741 205.648 223.741 205.648L207.41 189.701L201.406 203.312Z" fill="url(#paint71_linear_10_4)"/>
<path d="M259.756 218.842L262.921 217.607C262.921 217.607 265.342 216.142 267.666 217.975C269.994 219.809 271.667 223.749 272.6 224.664C273.529 225.578 276.227 226.129 277.719 229.523C279.207 232.912 278.463 236.306 277.534 238.135C276.606 239.969 275.303 240.242 274.744 240.06C274.185 239.878 268.788 233.185 267.204 231.902C265.623 230.619 261.292 227.091 261.292 227.091C261.292 227.091 258.735 223.563 259.338 221.456C259.945 219.35 259.756 218.842 259.756 218.842Z" fill="#1AAC92"/>
<path d="M272.6 224.664C271.671 223.749 269.994 219.805 267.666 217.975C265.337 216.142 262.921 217.607 262.921 217.607L262.428 217.802C261.908 218.474 261.261 219.601 261.433 220.906C261.71 223.012 263.572 225.123 265.716 227.139C267.855 229.154 270.553 231.811 271.486 233.463C272.076 234.507 273.225 237.42 274.246 239.631C274.488 239.878 274.664 240.034 274.744 240.06C275.303 240.242 276.606 239.969 277.534 238.135C278.463 236.302 279.211 232.912 277.719 229.523C276.231 226.129 273.533 225.578 272.6 224.664Z" fill="black"/>
<path d="M201.873 204.686L208.572 214.859C208.572 214.859 217.226 229.341 217.134 230.897C217.041 232.453 213.784 236.67 210.804 235.205C207.824 233.74 205.777 230.715 203.73 228.608C201.684 226.501 187.91 213.671 187.91 213.671L201.873 204.686Z" fill="url(#paint72_linear_10_4)"/>
<path d="M220.765 198.271C220.765 198.271 218.996 195.683 218.648 195.063C218.3 194.443 216.764 191.145 218.996 189.359C221.227 187.573 224.229 188.054 226.325 188.327C228.42 188.6 229.256 189.498 229.886 189.151C230.515 188.808 231.563 187.088 233.517 186.814C235.471 186.541 240.146 187.296 242.73 189.359C245.314 191.422 242.312 193.962 238.61 194.721C234.912 195.475 231.558 197.95 230.092 198.981C228.627 200.013 227.183 200.837 227.183 200.837C227.183 200.837 226.602 198.362 224.995 197.881C223.393 197.399 220.765 198.271 220.765 198.271Z" fill="#1AAC92"/>
<path d="M242.725 189.359C240.142 187.296 235.467 186.541 233.513 186.814C231.558 187.088 230.511 188.808 229.881 189.151C229.252 189.493 228.415 188.6 226.32 188.327C224.225 188.054 221.223 187.573 218.991 189.359C216.76 191.145 218.291 194.443 218.643 195.063C218.679 195.124 218.727 195.206 218.784 195.301C219.916 195.531 222.068 195.895 223.736 195.752C226.109 195.544 227.504 194.378 230.299 194.517C232.874 194.643 241.097 194.474 243.663 191.318C243.782 190.659 243.513 189.987 242.725 189.359Z" fill="black"/>
<path d="M138.963 147.322C138.963 147.322 139.21 149.897 139.725 151.02C140.244 152.142 141.89 154.002 142.85 155.263C143.809 156.525 143.77 157.569 145.231 156.967C146.693 156.364 149.866 154.089 149.866 154.089L138.963 147.322Z" fill="url(#paint73_linear_10_4)"/>
<path d="M161.284 158.917C161.284 158.917 159.255 168.484 157.996 172.632C156.733 176.78 154.642 180.763 153.198 180.863C151.759 180.958 148.383 180.746 144.016 177.114C139.65 173.481 134.535 170.582 133.377 170.326C132.22 170.07 129.653 170.096 128.478 168.445C127.303 166.793 125.252 164.348 125.472 163.629C125.692 162.909 128.5 161.41 129.332 161.57C130.164 161.73 133.663 163.282 134.702 164.804C135.741 166.325 136.533 167.777 139.174 169.251C141.815 170.725 144.39 170.963 147.199 171.878L150.007 172.792C150.007 172.792 151.913 161.886 153.216 159.923C154.519 157.959 156.007 155.965 158.859 156.46C161.703 156.958 161.284 158.917 161.284 158.917Z" fill="url(#paint74_linear_10_4)"/>
<path d="M172.372 191.764C172.372 191.764 173.35 196.715 176.281 202.211C179.213 207.711 180.749 211.422 181.726 213.207C182.703 214.993 184.239 214.72 187.171 214.031C190.103 213.342 190.521 212.518 192.616 211.833C194.711 211.144 200.015 209.358 201.411 205.921C202.806 202.484 202.529 200.698 204.065 199.458C205.601 198.223 206.856 195.748 207.415 192.584C207.974 189.424 208.533 186.398 208.251 184.335C207.974 182.272 206.019 180.625 206.019 180.625C206.019 180.625 203.365 181.314 199.038 178.973C194.711 176.637 192.057 176.776 188.848 176.225C185.639 175.675 182.426 175.675 182.426 175.675" fill="url(#paint75_linear_10_4)"/>
<path d="M152.085 159.229C152.085 159.229 150.504 166.468 151.156 168.943C151.807 171.418 153.018 176.459 155.531 177.192C158.045 177.924 160.65 177.283 160.65 177.283C160.65 177.283 166.139 182.874 168.468 186.355C170.796 189.836 172.377 191.76 172.377 191.76C172.377 191.76 175.449 192.584 178.517 187.82C181.59 183.056 183.451 175.813 181.774 174.439C180.097 173.065 179.543 173.065 178.61 172.146C177.681 171.232 163.626 160.326 163.626 160.326L152.085 159.229Z" fill="url(#paint76_linear_10_4)"/>
<path d="M157.103 162.914C157.103 162.914 167.667 165.662 172.227 167.266C176.783 168.869 181.114 171.366 181.141 172.935C181.167 174.5 180.731 178.145 176.422 182.662C172.113 187.179 168.582 192.553 168.23 193.793C167.878 195.033 167.759 197.811 165.849 198.99C163.939 200.165 161.011 200.889 160.219 200.611C159.431 200.334 157.996 198.565 158.225 197.672C158.45 196.78 160.386 193.082 162.147 192.046C163.908 191.01 165.572 190.234 167.368 187.46C169.163 184.686 169.577 181.912 170.761 178.921L171.945 175.93C171.945 175.93 159.876 173.239 157.763 171.717C155.646 170.196 153.506 168.466 154.22 165.41C154.937 162.346 157.103 162.914 157.103 162.914Z" fill="url(#paint77_linear_10_4)"/>
<path d="M210.249 234.928C210.249 234.928 206.525 229.705 206.807 224.204C207.085 218.704 207.736 215.405 209.505 212.839C211.275 210.273 215.743 206.242 218.159 202.852C220.58 199.463 220.765 198.271 220.765 198.271C220.765 198.271 223.93 197.261 225.603 198.271C227.28 199.281 227.183 200.837 227.183 200.837C227.183 200.837 220.576 216.142 219.181 220.724C217.785 225.305 217.596 229.796 217.134 231.261C216.672 232.726 214.343 236.943 210.249 234.928Z" fill="url(#paint78_linear_10_4)"/>
<path d="M134.87 170.686C134.87 170.686 133.377 170.322 132.079 170.135C130.78 169.949 129.75 169.585 128.822 169.221C127.893 168.852 127.334 171.236 126.59 171.418C125.846 171.6 126.031 169.862 126.216 169.221C126.401 168.579 127.893 166.928 128.822 165.645C129.75 164.362 128.355 163.078 128.355 163.078C128.355 163.078 123.328 160.881 122.866 159.962C122.399 159.047 123.702 159.138 126.775 160.235C129.847 161.336 131.986 162.433 131.986 162.433C131.986 162.433 133.884 163.408 134.702 164.799" fill="white"/>
<path d="M139.095 128.567C139.095 128.567 144.611 123.413 153.066 127.015C160.149 130.032 160.228 134.345 164.625 137.353C167.654 139.425 176.677 144.193 185.921 142.316C195.165 140.443 204.303 143.439 211.099 151.904C217.891 160.369 219.995 165.207 219.995 165.207C219.995 165.207 208.85 163.889 201.349 169.914C193.844 175.935 177.201 175.787 167.922 172.315C158.643 168.843 152.675 162.363 150.953 159.52C149.232 156.676 148.004 154.128 145.024 152.91C142.049 151.692 134.095 145.463 134.319 139.763C134.539 134.072 135.693 131.402 139.095 128.567Z" fill="url(#paint79_linear_10_4)"/>
<path opacity="0.3" d="M185.921 142.32C176.677 144.193 167.654 139.425 164.625 137.357C160.224 134.349 160.144 130.036 153.066 127.019C144.668 123.443 139.174 128.497 139.1 128.567C147.564 125.533 151.429 128.311 155.606 133.448C162.64 142.108 169.67 150.435 179.979 149.78C187.77 149.286 196.815 147.305 203.097 151.514C209.378 155.718 211.64 159.186 211.64 159.186C211.64 159.186 202.595 154.483 192.796 154.982C182.998 155.476 173.702 154.24 167.165 150.279C160.633 146.321 156.359 139.884 156.359 139.884C156.359 139.884 159.189 157.474 182.492 157.946C206.864 158.44 204.602 160.174 210.716 165.749C215.738 164.708 219.999 165.211 219.999 165.211C219.999 165.211 217.895 160.374 211.103 151.908C204.303 143.443 195.165 140.443 185.921 142.32Z" fill="url(#paint80_linear_10_4)"/>
<g opacity="0.5">
<path d="M294.582 187.33C293.209 187.244 292.17 186.069 292.258 184.712C292.342 183.355 293.522 182.315 294.895 182.402C296.255 182.489 297.294 183.668 297.21 185.02C297.122 186.381 295.947 187.417 294.582 187.33Z" fill="url(#paint81_radial_10_4)"/>
<path d="M294.899 202.237C293.658 202.159 292.72 201.097 292.795 199.866C292.874 198.635 293.94 197.694 295.181 197.772C296.418 197.85 297.355 198.912 297.281 200.143C297.201 201.378 296.136 202.315 294.899 202.237Z" fill="url(#paint82_radial_10_4)"/>
<path d="M289.626 197.061C288.851 197.014 288.257 196.35 288.305 195.579C288.354 194.803 289.023 194.218 289.802 194.266C290.577 194.313 291.171 194.976 291.118 195.752C291.07 196.524 290.401 197.109 289.626 197.061Z" fill="url(#paint83_radial_10_4)"/>
<path d="M287.214 176.823C285.977 176.745 285.031 175.683 285.11 174.452C285.189 173.221 286.254 172.281 287.496 172.359C288.732 172.437 289.67 173.499 289.595 174.73C289.516 175.965 288.451 176.901 287.214 176.823Z" fill="url(#paint84_radial_10_4)"/>
<path d="M286.65 185.731C285.876 185.683 285.286 185.02 285.334 184.248C285.383 183.477 286.052 182.887 286.826 182.935C287.601 182.983 288.195 183.65 288.147 184.422C288.094 185.193 287.425 185.778 286.65 185.731Z" fill="url(#paint85_radial_10_4)"/>
<path d="M277.495 175.293C276.72 175.246 276.126 174.582 276.174 173.806C276.185 173.624 276.232 173.445 276.313 173.28C276.394 173.115 276.508 172.968 276.647 172.846C276.786 172.725 276.948 172.631 277.123 172.571C277.299 172.511 277.485 172.486 277.671 172.497C278.446 172.545 279.04 173.208 278.987 173.984C278.939 174.756 278.27 175.341 277.495 175.293Z" fill="url(#paint86_radial_10_4)"/>
<path d="M282.235 164.721C281.461 164.674 280.871 164.01 280.919 163.234C280.968 162.463 281.637 161.873 282.412 161.925C283.186 161.973 283.78 162.641 283.728 163.412C283.718 163.595 283.671 163.774 283.591 163.939C283.51 164.104 283.397 164.251 283.259 164.373C283.12 164.495 282.958 164.588 282.782 164.648C282.607 164.708 282.421 164.733 282.235 164.721Z" fill="url(#paint87_radial_10_4)"/>
<path d="M296.035 168.713C294.798 168.635 293.856 167.573 293.931 166.342C294.01 165.111 295.08 164.175 296.317 164.249C297.554 164.327 298.491 165.389 298.416 166.62C298.337 167.855 297.272 168.791 296.035 168.713Z" fill="url(#paint88_radial_10_4)"/>
<path d="M299.917 173.98C299.143 173.932 298.553 173.269 298.601 172.493C298.65 171.722 299.319 171.132 300.093 171.18C300.868 171.227 301.462 171.895 301.414 172.666C301.365 173.442 300.692 174.028 299.917 173.98Z" fill="url(#paint89_radial_10_4)"/>
<path d="M290.762 163.542C289.987 163.495 289.393 162.827 289.441 162.056C289.49 161.28 290.163 160.694 290.938 160.742C291.712 160.79 292.302 161.453 292.254 162.229C292.205 163.005 291.536 163.59 290.762 163.542Z" fill="url(#paint90_radial_10_4)"/>
<path d="M299.094 202.492C295.353 202.258 292.514 199.055 292.751 195.332C292.984 191.613 296.207 188.782 299.944 189.016C303.681 189.25 306.52 192.458 306.287 196.177C306.053 199.896 302.836 202.722 299.094 202.492Z" fill="url(#paint91_radial_10_4)"/>
<path d="M306.639 205.02C302.902 204.785 300.058 201.578 300.296 197.859C300.529 194.14 303.751 191.309 307.488 191.543C311.225 191.777 314.069 194.981 313.831 198.704C313.598 202.423 310.376 205.254 306.639 205.02Z" fill="url(#paint92_radial_10_4)"/>
<path d="M305.684 196.012C301.946 195.778 299.107 192.571 299.341 188.852C299.574 185.133 302.796 182.302 306.533 182.536C310.27 182.77 313.109 185.974 312.876 189.697C312.638 193.416 309.421 196.242 305.684 196.012Z" fill="url(#paint93_radial_10_4)"/>
<path d="M290.128 185.267C287.768 185.12 285.973 183.095 286.122 180.746C286.272 178.401 288.305 176.611 290.665 176.763C293.024 176.91 294.82 178.939 294.67 181.279C294.521 183.629 292.492 185.414 290.128 185.267Z" fill="url(#paint94_radial_10_4)"/>
<path d="M304.355 159.13C300.618 158.896 297.775 155.689 298.012 151.969C298.245 148.25 301.468 145.42 305.205 145.654C308.942 145.888 311.781 149.096 311.548 152.815C311.314 156.534 308.092 159.364 304.355 159.13Z" fill="url(#paint95_radial_10_4)"/>
<path d="M287.742 196.558C284.005 196.324 281.161 193.117 281.399 189.398C281.632 185.679 284.855 182.848 288.592 183.082C292.329 183.316 295.168 186.524 294.935 190.243C294.697 193.962 291.479 196.788 287.742 196.558Z" fill="url(#paint96_radial_10_4)"/>
<path d="M293.856 161.293C291.787 161.163 290.216 159.39 290.344 157.331C290.476 155.276 292.258 153.712 294.327 153.837C296.391 153.967 297.967 155.74 297.835 157.799C297.708 159.858 295.925 161.423 293.856 161.293Z" fill="url(#paint97_radial_10_4)"/>
<path d="M288.825 165.805C288.046 165.757 287.46 165.09 287.509 164.318C287.557 163.542 288.226 162.957 289.001 163.005C289.776 163.052 290.366 163.716 290.317 164.492C290.269 165.267 289.6 165.853 288.825 165.805Z" fill="url(#paint98_radial_10_4)"/>
<path d="M283.072 186.307C282.297 186.26 281.707 185.596 281.756 184.825C281.804 184.049 282.473 183.464 283.248 183.516C284.023 183.564 284.617 184.227 284.568 185.003C284.557 185.185 284.51 185.364 284.428 185.528C284.347 185.692 284.234 185.839 284.095 185.96C283.956 186.081 283.794 186.174 283.618 186.234C283.443 186.294 283.257 186.318 283.072 186.307Z" fill="url(#paint99_radial_10_4)"/>
</g>
<path d="M291.061 139.75C289.688 139.663 288.649 138.489 288.737 137.132C288.82 135.775 290 134.735 291.373 134.822C292.734 134.908 293.772 136.087 293.689 137.44C293.601 138.796 292.425 139.832 291.061 139.75Z" fill="url(#paint100_radial_10_4)"/>
<path d="M291.378 154.656C290.137 154.578 289.199 153.517 289.274 152.286C289.353 151.054 290.418 150.114 291.66 150.192C292.897 150.27 293.834 151.332 293.759 152.563C293.68 153.794 292.615 154.73 291.378 154.656Z" fill="url(#paint101_radial_10_4)"/>
<path d="M286.105 149.481C285.33 149.433 284.736 148.77 284.784 147.999C284.832 147.223 285.502 146.638 286.281 146.685C287.055 146.733 287.65 147.396 287.597 148.172C287.548 148.944 286.879 149.529 286.105 149.481Z" fill="url(#paint102_radial_10_4)"/>
<path d="M283.692 129.239C282.456 129.161 281.509 128.099 281.588 126.868C281.668 125.637 282.733 124.696 283.974 124.774C285.211 124.852 286.149 125.914 286.074 127.145C285.995 128.38 284.929 129.317 283.692 129.239Z" fill="url(#paint103_radial_10_4)"/>
<path d="M283.129 138.146C282.354 138.099 281.764 137.435 281.813 136.659C281.861 135.888 282.53 135.298 283.305 135.35C284.08 135.398 284.674 136.066 284.626 136.837C284.573 137.609 283.904 138.194 283.129 138.146Z" fill="url(#paint104_radial_10_4)"/>
<path d="M273.973 127.709C273.199 127.661 272.604 126.998 272.653 126.222C272.664 126.039 272.711 125.86 272.792 125.695C272.873 125.531 272.986 125.383 273.125 125.262C273.264 125.14 273.426 125.047 273.602 124.987C273.778 124.927 273.964 124.902 274.149 124.913C274.924 124.961 275.518 125.624 275.466 126.4C275.417 127.171 274.748 127.756 273.973 127.709Z" fill="url(#paint105_radial_10_4)"/>
<path d="M278.714 117.137C277.939 117.089 277.35 116.426 277.398 115.65C277.446 114.878 278.115 114.289 278.89 114.337C279.665 114.384 280.259 115.052 280.206 115.823C280.197 116.006 280.151 116.186 280.07 116.351C279.99 116.516 279.877 116.664 279.738 116.787C279.6 116.909 279.438 117.003 279.262 117.063C279.086 117.123 278.9 117.148 278.714 117.137Z" fill="url(#paint106_radial_10_4)"/>
<path d="M292.514 121.133C291.277 121.055 290.335 119.993 290.409 118.762C290.489 117.531 291.558 116.595 292.795 116.669C294.032 116.747 294.97 117.809 294.895 119.04C294.816 120.275 293.75 121.211 292.514 121.133Z" fill="url(#paint107_radial_10_4)"/>
<path d="M296.396 126.395C295.621 126.348 295.031 125.684 295.08 124.909C295.128 124.137 295.797 123.547 296.572 123.595C297.347 123.643 297.941 124.31 297.892 125.082C297.844 125.858 297.171 126.443 296.396 126.395Z" fill="url(#paint108_radial_10_4)"/>
<path d="M287.24 115.958C286.466 115.91 285.871 115.242 285.92 114.475C285.968 113.699 286.642 113.114 287.416 113.162C288.191 113.21 288.781 113.873 288.732 114.649C288.684 115.42 288.015 116.005 287.24 115.958Z" fill="url(#paint109_radial_10_4)"/>
<path d="M296.013 154.908C292.271 154.674 289.432 151.471 289.67 147.747C289.903 144.028 293.125 141.198 296.862 141.432C300.599 141.666 303.439 144.873 303.205 148.592C302.972 152.312 299.754 155.142 296.013 154.908Z" fill="url(#paint110_radial_10_4)"/>
<path d="M303.557 157.439C299.82 157.205 296.977 153.998 297.215 150.279C297.448 146.56 300.67 143.729 304.407 143.963C308.144 144.197 310.988 147.405 310.75 151.124C310.517 154.843 307.295 157.669 303.557 157.439Z" fill="url(#paint111_radial_10_4)"/>
<path d="M302.602 148.428C298.865 148.194 296.026 144.986 296.259 141.267C296.493 137.548 299.715 134.718 303.452 134.952C307.189 135.186 310.028 138.389 309.795 142.112C309.557 145.831 306.339 148.662 302.602 148.428Z" fill="url(#paint112_radial_10_4)"/>
<path d="M286.514 137.682C284.155 137.535 282.359 135.511 282.508 133.161C282.658 130.816 284.692 129.026 287.051 129.178C289.41 129.325 291.206 131.354 291.057 133.695C290.907 136.044 288.878 137.83 286.514 137.682Z" fill="url(#paint113_radial_10_4)"/>
<path d="M281.026 129.222C277.289 128.988 274.445 125.78 274.683 122.061C274.916 118.342 278.138 115.512 281.875 115.746C285.613 115.98 288.452 119.187 288.218 122.906C287.985 126.625 284.763 129.456 281.026 129.222ZM283.667 152.195C279.93 151.961 277.086 148.753 277.324 145.034C277.557 141.315 280.779 138.485 284.517 138.719C288.254 138.953 291.093 142.16 290.859 145.879C290.622 149.599 287.404 152.429 283.667 152.195Z" fill="url(#paint114_radial_10_4)"/>
<path d="M290.242 113.712C288.173 113.582 286.602 111.81 286.73 109.751C286.862 107.696 288.644 106.131 290.713 106.257C292.778 106.387 294.353 108.16 294.221 110.219C294.094 112.273 292.311 113.842 290.242 113.712Z" fill="url(#paint115_radial_10_4)"/>
<path d="M285.211 118.22C284.432 118.173 283.846 117.505 283.895 116.734C283.943 115.958 284.612 115.373 285.387 115.42C286.162 115.468 286.752 116.131 286.703 116.907C286.655 117.683 285.986 118.272 285.211 118.22Z" fill="url(#paint116_radial_10_4)"/>
<path d="M279.991 138.727C279.216 138.679 278.626 138.016 278.674 137.245C278.723 136.469 279.392 135.884 280.167 135.936C280.941 135.983 281.536 136.646 281.487 137.422C281.464 137.791 281.293 138.135 281.013 138.379C280.732 138.624 280.365 138.749 279.991 138.727Z" fill="url(#paint117_radial_10_4)"/>
<path d="M285.07 186.381L301.63 164.981L285.774 145.09L299.072 118.836" stroke="white" stroke-width="0.857635"/>
<path d="M283.42 178.427L279.665 183.412L282.143 189.099L285.911 184.088L283.42 178.427Z" fill="#30E3CA"/>
<path d="M292.201 184.799L285.911 184.088L282.143 189.099L288.46 189.866L292.201 184.799Z" fill="#00CCB0"/>
<path d="M289.683 179.082L283.42 178.427L285.911 184.088L292.201 184.799L289.683 179.082Z" fill="#00FFDB"/>
<path d="M295.454 166.026L299.481 170.798L305.679 169.775L301.63 164.981L295.454 166.026Z" fill="#30E3CA"/>
<path d="M303.826 159.134L301.63 164.981L305.679 169.775L307.937 163.915L303.826 159.134Z" fill="#00CCB0"/>
<path d="M297.584 160.187L295.454 166.026L301.63 164.981L303.826 159.134L297.584 160.187Z" fill="#00FFDB"/>
<path d="M288.2 139.399L281.949 140.183L279.493 145.879L285.774 145.09L288.2 139.399Z" fill="#00D9B3"/>
<path d="M289.608 150.053L285.774 145.09L279.493 145.879L283.301 150.898L289.608 150.053Z" fill="#00AC8E"/>
<path d="M292.056 144.306L288.2 139.399L285.774 145.09L289.608 150.053L292.056 144.306Z" fill="#00FFD2"/>
<path d="M301.498 113.145L295.247 113.929L292.791 119.625L299.072 118.836L301.498 113.145Z" fill="#0061DD"/>
<path d="M302.906 123.799L299.072 118.836L292.791 119.625L296.598 124.648L302.906 123.799Z" fill="#2B68B5"/>
<path d="M305.353 118.051L301.498 113.145L299.072 118.836L302.906 123.799L305.353 118.051Z" fill="#5691DD"/>
</g>
<defs>
<linearGradient id="paint0_linear_10_4" x1="9418.27" y1="5791.91" x2="19724.1" y2="20807.4" gradientUnits="userSpaceOnUse">
<stop stop-color="#00362C"/>
<stop offset="0.5936" stop-color="#008B72"/>
<stop offset="1" stop-color="#24B198"/>
</linearGradient>
<radialGradient id="paint1_radial_10_4" cx="0" cy="0" r="1" gradientUnits="userSpaceOnUse" gradientTransform="translate(9162.38 9056.73) scale(9095.98 8957.12)">
<stop stop-color="#3E77BF"/>
<stop offset="1" stop-color="#3E77BF" stop-opacity="0"/>
</radialGradient>
<linearGradient id="paint2_linear_10_4" x1="1065.72" y1="672.22" x2="2030" y2="2145.09" gradientUnits="userSpaceOnUse">
<stop stop-color="#00362C"/>
<stop offset="0.5936" stop-color="#008B72"/>
<stop offset="1" stop-color="#24B198"/>
</linearGradient>
<linearGradient id="paint3_linear_10_4" x1="1062.18" y1="769.701" x2="1905.76" y2="1752.73" gradientUnits="userSpaceOnUse">
<stop stop-color="#00362C"/>
<stop offset="0.5936" stop-color="#008B72"/>
<stop offset="1" stop-color="#24B198"/>
</linearGradient>
<linearGradient id="paint4_linear_10_4" x1="200.642" y1="1630.94" x2="5254.01" y2="1630.94" gradientUnits="userSpaceOnUse">
<stop stop-color="#08B294"/>
<stop offset="1" stop-color="#0D987F"/>
</linearGradient>
<linearGradient id="paint5_linear_10_4" x1="897.606" y1="404.7" x2="1860.13" y2="2129.45" gradientUnits="userSpaceOnUse">
<stop stop-color="#00362C"/>
<stop offset="0.5936" stop-color="#008B72"/>
<stop offset="1" stop-color="#24B198"/>
</linearGradient>
<linearGradient id="paint6_linear_10_4" x1="1580.7" y1="1024.25" x2="3024.72" y2="2243.39" gradientUnits="userSpaceOnUse">
<stop stop-color="#00362C"/>
<stop offset="0.5936" stop-color="#008B72"/>
<stop offset="1" stop-color="#24B198"/>
</linearGradient>
<linearGradient id="paint7_linear_10_4" x1="112.701" y1="1325.89" x2="3102.39" y2="1325.89" gradientUnits="userSpaceOnUse">
<stop stop-color="#3F9C8C"/>
<stop offset="1" stop-color="#19C6A7"/>
</linearGradient>
<linearGradient id="paint8_linear_10_4" x1="110.327" y1="1057.91" x2="3078.22" y2="1057.91" gradientUnits="userSpaceOnUse">
<stop stop-color="#3F9C8C"/>
<stop offset="1" stop-color="#19C6A7"/>
</linearGradient>
<linearGradient id="paint9_linear_10_4" x1="87.4053" y1="1200.15" x2="4845.54" y2="1200.15" gradientUnits="userSpaceOnUse">
<stop stop-color="#3F9C8C"/>
<stop offset="1" stop-color="#19C6A7"/>
</linearGradient>
<linearGradient id="paint10_linear_10_4" x1="116.333" y1="1630.23" x2="5188.83" y2="1630.23" gradientUnits="userSpaceOnUse">
<stop stop-color="#3F9C8C"/>
<stop offset="1" stop-color="#19C6A7"/>
</linearGradient>
<linearGradient id="paint11_linear_10_4" x1="144.627" y1="1286.75" x2="2642.94" y2="1286.75" gradientUnits="userSpaceOnUse">
<stop stop-color="#3F9C8C"/>
<stop offset="1" stop-color="#19C6A7"/>
</linearGradient>
<linearGradient id="paint12_linear_10_4" x1="102.896" y1="1379.57" x2="3102.52" y2="1379.57" gradientUnits="userSpaceOnUse">
<stop stop-color="#1AA68D"/>
<stop offset="1" stop-color="#2DE4C4"/>
</linearGradient>
<linearGradient id="paint13_linear_10_4" x1="100.589" y1="1101.87" x2="3078.34" y2="1101.87" gradientUnits="userSpaceOnUse">
<stop stop-color="#1AA68D"/>
<stop offset="1" stop-color="#2DE4C4"/>
</linearGradient>
<linearGradient id="paint14_linear_10_4" x1="99.6893" y1="1713.37" x2="5189.03" y2="1713.37" gradientUnits="userSpaceOnUse">
<stop stop-color="#1AA68D"/>
<stop offset="1" stop-color="#2DE4C4"/>
</linearGradient>
<linearGradient id="paint15_linear_10_4" x1="136.43" y1="1374.29" x2="2643.04" y2="1374.29" gradientUnits="userSpaceOnUse">
<stop stop-color="#1AA68D"/>
<stop offset="1" stop-color="#2DE4C4"/>
</linearGradient>
<linearGradient id="paint16_linear_10_4" x1="71.7892" y1="1234.93" x2="4845.73" y2="1234.93" gradientUnits="userSpaceOnUse">
<stop stop-color="#1AA68D"/>
<stop offset="1" stop-color="#2DE4C4"/>
</linearGradient>
<linearGradient id="paint17_linear_10_4" x1="263.068" y1="1101.74" x2="3198.84" y2="1101.74" gradientUnits="userSpaceOnUse">
<stop stop-color="#2A87FF"/>
<stop offset="1" stop-color="#24B198"/>
</linearGradient>
<linearGradient id="paint18_linear_10_4" x1="260.867" y1="1379.61" x2="3218.2" y2="1379.61" gradientUnits="userSpaceOnUse">
<stop stop-color="#2A87FF"/>
<stop offset="1" stop-color="#24B198"/>
</linearGradient>
<linearGradient id="paint19_linear_10_4" x1="299.766" y1="1234.79" x2="5006.4" y2="1234.79" gradientUnits="userSpaceOnUse">
<stop stop-color="#2A87FF"/>
<stop offset="1" stop-color="#24B198"/>
</linearGradient>
<linearGradient id="paint20_linear_10_4" x1="225.149" y1="1374.34" x2="2695.99" y2="1374.34" gradientUnits="userSpaceOnUse">
<stop stop-color="#2A87FF"/>
<stop offset="1" stop-color="#24B198"/>
</linearGradient>
<linearGradient id="paint21_linear_10_4" x1="273.253" y1="1712.96" x2="5290.85" y2="1712.96" gradientUnits="userSpaceOnUse">
<stop stop-color="#2A87FF"/>
<stop offset="1" stop-color="#24B198"/>
</linearGradient>
<linearGradient id="paint22_linear_10_4" x1="38.2776" y1="4545.32" x2="23454.9" y2="4545.32" gradientUnits="userSpaceOnUse">
<stop stop-color="#D0D0D0"/>
<stop offset="0.4332" stop-color="white"/>
</linearGradient>
<linearGradient id="paint23_linear_10_4" x1="39.915" y1="7188.58" x2="22913.4" y2="7188.58" gradientUnits="userSpaceOnUse">
<stop stop-color="#31AB95"/>
<stop offset="0.1825" stop-color="#2EB099"/>
<stop offset="0.4069" stop-color="#2668BD"/>
<stop offset="0.6533" stop-color="#196BD4"/>
<stop offset="0.9137" stop-color="#076FF3"/>
<stop offset="1" stop-color="#0070FF"/>
</linearGradient>
<linearGradient id="paint24_linear_10_4" x1="1048.74" y1="249.4" x2="1048.74" y2="4220.67" gradientUnits="userSpaceOnUse">
<stop stop-color="#134139"/>
<stop offset="0.2299" stop-color="#1360C2"/>
<stop offset="0.3479" stop-color="#1864C5"/>
<stop offset="0.4931" stop-color="#276FCC"/>
<stop offset="0.6524" stop-color="#1F70D8"/>
<stop offset="0.8219" stop-color="#1270E9"/>
<stop offset="0.9978" stop-color="#0070FF"/>
<stop offset="1" stop-color="#0070FF"/>
</linearGradient>
<linearGradient id="paint25_linear_10_4" x1="37.6217" y1="6599.28" x2="3366.73" y2="6599.28" gradientUnits="userSpaceOnUse">
<stop stop-color="#338DFF"/>
<stop offset="0.1585" stop-color="#378FFF"/>
<stop offset="0.3535" stop-color="#4396FF"/>
<stop offset="0.5676" stop-color="#4999FF"/>
<stop offset="0.7937" stop-color="#2685FF"/>
<stop offset="1" stop-color="#0070FF"/>
</linearGradient>
<linearGradient id="paint26_linear_10_4" x1="38.5177" y1="2199.71" x2="3290.9" y2="2199.71" gradientUnits="userSpaceOnUse">
<stop stop-color="#D0D0D0"/>
<stop offset="0.4332" stop-color="white"/>
</linearGradient>
<linearGradient id="paint27_linear_10_4" x1="235.294" y1="663.506" x2="235.294" y2="8565.36" gradientUnits="userSpaceOnUse">
<stop stop-color="#D0D0D0"/>
<stop offset="0.4332" stop-color="white"/>
</linearGradient>
<linearGradient id="paint28_linear_10_4" x1="458.18" y1="140.581" x2="687.423" y2="9752.13" gradientUnits="userSpaceOnUse">
<stop stop-color="#D0D0D0"/>
<stop offset="0.4332" stop-color="white"/>
</linearGradient>
<linearGradient id="paint29_linear_10_4" x1="2080.14" y1="155.411" x2="1490.18" y2="3134.39" gradientUnits="userSpaceOnUse">
<stop stop-color="#88DACF"/>
<stop offset="0.00834" stop-color="#89D9CE"/>
<stop offset="0.4784" stop-color="#CACACA"/>
<stop offset="0.8218" stop-color="#CBCBCB"/>
<stop offset="1" stop-color="#CFCFCF"/>
</linearGradient>
<linearGradient id="paint30_linear_10_4" x1="112.329" y1="614.619" x2="1217.93" y2="614.619" gradientUnits="userSpaceOnUse">
<stop stop-color="#338DFF"/>
<stop offset="0.1585" stop-color="#378FFF"/>
<stop offset="0.3535" stop-color="#4396FF"/>
<stop offset="0.5676" stop-color="#4999FF"/>
<stop offset="0.7937" stop-color="#2685FF"/>
<stop offset="1" stop-color="#0070FF"/>
</linearGradient>
<linearGradient id="paint31_linear_10_4" x1="24.7304" y1="534.473" x2="853.919" y2="534.473" gradientUnits="userSpaceOnUse">
<stop stop-color="#338DFF"/>
<stop offset="0.1585" stop-color="#378FFF"/>
<stop offset="0.3535" stop-color="#4396FF"/>
<stop offset="0.5676" stop-color="#4999FF"/>
<stop offset="0.7937" stop-color="#2685FF"/>
<stop offset="1" stop-color="#0070FF"/>
</linearGradient>
<linearGradient id="paint32_linear_10_4" x1="2327.29" y1="14336.1" x2="2327.29" y2="384.537" gradientUnits="userSpaceOnUse">
<stop stop-color="#1179FF"/>
<stop offset="1" stop-color="#005042" stop-opacity="0"/>
</linearGradient>
<linearGradient id="paint33_linear_10_4" x1="2122.89" y1="22191.2" x2="2122.89" y2="542.461" gradientUnits="userSpaceOnUse">
<stop stop-color="#1179FF"/>
<stop offset="1" stop-color="#005042" stop-opacity="0"/>
</linearGradient>
<radialGradient id="paint34_radial_10_4" cx="0" cy="0" r="1" gradientUnits="userSpaceOnUse" gradientTransform="translate(-252.795 461.189) rotate(93.6481) scale(207.758 215.481)">
<stop stop-color="#00FFD2"/>
<stop offset="0.14427" stop-color="#17FFD6"/>
<stop offset="0.23997" stop-color="#0070FF"/>
<stop offset="1" stop-color="#09FFD4" stop-opacity="0"/>
</radialGradient>
<radialGradient id="paint35_radial_10_4" cx="0" cy="0" r="1" gradientUnits="userSpaceOnUse" gradientTransform="translate(-240.047 439.8) rotate(93.649) scale(188.155 195.243)">
<stop stop-color="#00FFD2"/>
<stop offset="0.14427" stop-color="#17FFD6"/>
<stop offset="0.23997" stop-color="#0070FF"/>
<stop offset="1" stop-color="#09FFD4" stop-opacity="0"/>
</radialGradient>
<radialGradient id="paint36_radial_10_4" cx="0" cy="0" r="1" gradientUnits="userSpaceOnUse" gradientTransform="translate(-134.223 361.06) rotate(93.6482) scale(118.022 122.041)">
<stop stop-color="#00FFD2"/>
<stop offset="0.14427" stop-color="#17FFD6"/>
<stop offset="0.23997" stop-color="#0070FF"/>
<stop offset="1" stop-color="#09FFD4" stop-opacity="0"/>
</radialGradient>
<radialGradient id="paint37_radial_10_4" cx="0" cy="0" r="1" gradientUnits="userSpaceOnUse" gradientTransform="translate(-213.815 433.924) rotate(93.6491) scale(188.175 195.225)">
<stop stop-color="#00FFD2"/>
<stop offset="0.14427" stop-color="#17FFD6"/>
<stop offset="0.23997" stop-color="#0070FF"/>
<stop offset="1" stop-color="#09FFD4" stop-opacity="0"/>
</radialGradient>
<radialGradient id="paint38_radial_10_4" cx="0" cy="0" r="1" gradientUnits="userSpaceOnUse" gradientTransform="translate(-102.242 361.163) rotate(93.6426) scale(138.817 143.591)">
<stop stop-color="#D5D5D5"/>
<stop offset="0.043" stop-color="#B6B6B6"/>
<stop offset="0.1242" stop-color="#7E8180"/>
<stop offset="0.1997" stop-color="#40514E"/>
<stop offset="0.2672" stop-color="#333837"/>
<stop offset="0.3241" stop-color="#202625"/>
<stop offset="0.3636" stop-color="#191F1E"/>
<stop offset="0.994"/>
</radialGradient>
<radialGradient id="paint39_radial_10_4" cx="0" cy="0" r="1" gradientUnits="userSpaceOnUse" gradientTransform="translate(-111.398 350.582) rotate(93.6486) scale(118.023 122.036)">
<stop stop-color="#00FFD2"/>
<stop offset="0.14427" stop-color="#17FFD6"/>
<stop offset="0.23997" stop-color="#0070FF"/>
<stop offset="1" stop-color="#09FFD4" stop-opacity="0"/>
</radialGradient>
<radialGradient id="paint40_radial_10_4" cx="0" cy="0" r="1" gradientUnits="userSpaceOnUse" gradientTransform="translate(-100.984 355.434) rotate(93.6489) scale(117.838 122.268)">
<stop stop-color="#00FFD2"/>
<stop offset="0.14427" stop-color="#17FFD6"/>
<stop offset="0.23997" stop-color="#0070FF"/>
<stop offset="1" stop-color="#09FFD4" stop-opacity="0"/>
</radialGradient>
<radialGradient id="paint41_radial_10_4" cx="0" cy="0" r="1" gradientUnits="userSpaceOnUse" gradientTransform="translate(-206.114 442.977) rotate(93.6491) scale(188.155 195.205)">
<stop stop-color="#00FFD2"/>
<stop offset="0.14427" stop-color="#17FFD6"/>
<stop offset="0.23997" stop-color="#0070FF"/>
<stop offset="1" stop-color="#09FFD4" stop-opacity="0"/>
</radialGradient>
<radialGradient id="paint42_radial_10_4" cx="0" cy="0" r="1" gradientUnits="userSpaceOnUse" gradientTransform="translate(-111.697 372.235) rotate(93.6483) scale(118.004 122.439)">
<stop stop-color="#00FFD2"/>
<stop offset="0.14427" stop-color="#17FFD6"/>
<stop offset="0.23997" stop-color="#0070FF"/>
<stop offset="1" stop-color="#09FFD4" stop-opacity="0"/>
</radialGradient>
<radialGradient id="paint43_radial_10_4" cx="0" cy="0" r="1" gradientUnits="userSpaceOnUse" gradientTransform="translate(-100.551 363.97) rotate(93.6483) scale(118.004 122.44)">
<stop stop-color="#00FFD2"/>
<stop offset="0.14427" stop-color="#17FFD6"/>
<stop offset="0.23997" stop-color="#0070FF"/>
<stop offset="1" stop-color="#09FFD4" stop-opacity="0"/>
</radialGradient>
<radialGradient id="paint44_radial_10_4" cx="0" cy="0" r="1" gradientUnits="userSpaceOnUse" gradientTransform="translate(-796.876 829.735) rotate(93.6487) scale(567.88 589.339)">
<stop stop-color="#00FFD2"/>
<stop offset="0.14427" stop-color="#17FFD6"/>
<stop offset="0.23997" stop-color="#0070FF"/>
<stop offset="1" stop-color="#09FFD4" stop-opacity="0"/>
</radialGradient>
<radialGradient id="paint45_radial_10_4" cx="0" cy="0" r="1" gradientUnits="userSpaceOnUse" gradientTransform="translate(-799.939 836.927) rotate(93.6492) scale(567.9 589.359)">
<stop stop-color="#00FFD2"/>
<stop offset="0.14427" stop-color="#17FFD6"/>
<stop offset="0.23997" stop-color="#0070FF"/>
<stop offset="1" stop-color="#09FFD4" stop-opacity="0"/>
</radialGradient>
<radialGradient id="paint46_radial_10_4" cx="0" cy="0" r="1" gradientUnits="userSpaceOnUse" gradientTransform="translate(-790.715 836.494) rotate(93.6488) scale(515.476 534.99)">
<stop stop-color="#00FFD2"/>
<stop offset="0.14427" stop-color="#17FFD6"/>
<stop offset="0.29107" stop-color="#0070FF"/>
<stop offset="1" stop-color="white" stop-opacity="0"/>
</radialGradient>
<radialGradient id="paint47_radial_10_4" cx="0" cy="0" r="1" gradientUnits="userSpaceOnUse" gradientTransform="translate(-480.248 601.096) rotate(93.6491) scale(358.646 371.683)">
<stop stop-color="#00FFD2"/>
<stop offset="0.14427" stop-color="#17FFD6"/>
<stop offset="0.23997" stop-color="#0070FF"/>
<stop offset="1" stop-color="#09FFD4" stop-opacity="0"/>
</radialGradient>
<radialGradient id="paint48_radial_10_4" cx="0" cy="0" r="1" gradientUnits="userSpaceOnUse" gradientTransform="translate(-753.278 837.485) rotate(93.6488) scale(567.876 589.372)">
<stop stop-color="#00FFD2"/>
<stop offset="0.14427" stop-color="#17FFD6"/>
<stop offset="0.23997" stop-color="#0070FF"/>
<stop offset="1" stop-color="#09FFD4" stop-opacity="0"/>
</radialGradient>
<radialGradient id="paint49_radial_10_4" cx="0" cy="0" r="1" gradientUnits="userSpaceOnUse" gradientTransform="translate(-790.157 819.062) rotate(93.6487) scale(567.88 589.339)">
<stop stop-color="#00FFD2"/>
<stop offset="0.14427" stop-color="#17FFD6"/>
<stop offset="0.23997" stop-color="#0070FF"/>
<stop offset="1" stop-color="#09FFD4" stop-opacity="0"/>
</radialGradient>
<radialGradient id="paint50_radial_10_4" cx="0" cy="0" r="1" gradientUnits="userSpaceOnUse" gradientTransform="translate(-393.097 559.208) rotate(93.6487) scale(314.31 325.876)">
<stop stop-color="#00FFD2"/>
<stop offset="0.14427" stop-color="#17FFD6"/>
<stop offset="0.23997" stop-color="#0070FF"/>
<stop offset="1" stop-color="#09FFD4" stop-opacity="0"/>
</radialGradient>
<radialGradient id="paint51_radial_10_4" cx="0" cy="0" r="1" gradientUnits="userSpaceOnUse" gradientTransform="translate(-117.636 345.906) rotate(93.6488) scale(117.819 122.627)">
<stop stop-color="#00FFD2"/>
<stop offset="0.14427" stop-color="#17FFD6"/>
<stop offset="0.23997" stop-color="#0070FF"/>
<stop offset="1" stop-color="#09FFD4" stop-opacity="0"/>
</radialGradient>
<radialGradient id="paint52_radial_10_4" cx="0" cy="0" r="1" gradientUnits="userSpaceOnUse" gradientTransform="translate(-137.639 339.827) rotate(93.6489) scale(118.001 121.724)">
<stop stop-color="#00FFD2"/>
<stop offset="0.14427" stop-color="#17FFD6"/>
<stop offset="0.23997" stop-color="#0070FF"/>
<stop offset="1" stop-color="#09FFD4" stop-opacity="0"/>
</radialGradient>
<radialGradient id="paint53_radial_10_4" cx="0" cy="0" r="1" gradientUnits="userSpaceOnUse" gradientTransform="translate(-256.391 416.588) rotate(93.6482) scale(207.759 215.439)">
<stop stop-color="#00FFD2"/>
<stop offset="0.14427" stop-color="#17FFD6"/>
<stop offset="0.23997" stop-color="#0070FF"/>
<stop offset="1" stop-color="#09FFD4" stop-opacity="0"/>
</radialGradient>
<radialGradient id="paint54_radial_10_4" cx="0" cy="0" r="1" gradientUnits="userSpaceOnUse" gradientTransform="translate(-243.643 395.193) rotate(93.6491) scale(188.156 195.204)">
<stop stop-color="#00FFD2"/>
<stop offset="0.14427" stop-color="#17FFD6"/>
<stop offset="0.23997" stop-color="#0070FF"/>
<stop offset="1" stop-color="#09FFD4" stop-opacity="0"/>
</radialGradient>
<radialGradient id="paint55_radial_10_4" cx="0" cy="0" r="1" gradientUnits="userSpaceOnUse" gradientTransform="translate(-137.846 316.434) rotate(93.6482) scale(118.022 122.041)">
<stop stop-color="#00FFD2"/>
<stop offset="0.14427" stop-color="#17FFD6"/>
<stop offset="0.23997" stop-color="#0070FF"/>
<stop offset="1" stop-color="#09FFD4" stop-opacity="0"/>
</radialGradient>
<radialGradient id="paint56_radial_10_4" cx="0" cy="0" r="1" gradientUnits="userSpaceOnUse" gradientTransform="translate(-217.433 389.299) rotate(93.6491) scale(188.175 195.225)">
<stop stop-color="#00FFD2"/>
<stop offset="0.14427" stop-color="#17FFD6"/>
<stop offset="0.23997" stop-color="#0070FF"/>
<stop offset="1" stop-color="#09FFD4" stop-opacity="0"/>
</radialGradient>
<radialGradient id="paint57_radial_10_4" cx="0" cy="0" r="1" gradientUnits="userSpaceOnUse" gradientTransform="translate(-126.197 314.168) rotate(93.6486) scale(118.002 122.104)">
<stop stop-color="#00FFD2"/>
<stop offset="0.14427" stop-color="#17FFD6"/>
<stop offset="0.23997" stop-color="#0070FF"/>
<stop offset="1" stop-color="#09FFD4" stop-opacity="0"/>
</radialGradient>
<radialGradient id="paint58_radial_10_4" cx="0" cy="0" r="1" gradientUnits="userSpaceOnUse" gradientTransform="translate(-115.017 305.957) rotate(93.6486) scale(118.023 122.036)">
<stop stop-color="#00FFD2"/>
<stop offset="0.14427" stop-color="#17FFD6"/>
<stop offset="0.23997" stop-color="#0070FF"/>
<stop offset="1" stop-color="#09FFD4" stop-opacity="0"/>
</radialGradient>
<radialGradient id="paint59_radial_10_4" cx="0" cy="0" r="1" gradientUnits="userSpaceOnUse" gradientTransform="translate(-104.806 310.633) rotate(93.6486) scale(117.84 122.601)">
<stop stop-color="#00FFD2"/>
<stop offset="0.14427" stop-color="#17FFD6"/>
<stop offset="0.23997" stop-color="#0070FF"/>
<stop offset="1" stop-color="#09FFD4" stop-opacity="0"/>
</radialGradient>
<radialGradient id="paint60_radial_10_4" cx="0" cy="0" r="1" gradientUnits="userSpaceOnUse" gradientTransform="translate(-209.738 398.352) rotate(93.6491) scale(188.155 195.205)">
<stop stop-color="#00FFD2"/>
<stop offset="0.14427" stop-color="#17FFD6"/>
<stop offset="0.23997" stop-color="#0070FF"/>
<stop offset="1" stop-color="#09FFD4" stop-opacity="0"/>
</radialGradient>
<radialGradient id="paint61_radial_10_4" cx="0" cy="0" r="1" gradientUnits="userSpaceOnUse" gradientTransform="translate(-115.316 327.61) rotate(93.6483) scale(118.004 122.439)">
<stop stop-color="#00FFD2"/>
<stop offset="0.14427" stop-color="#17FFD6"/>
<stop offset="0.23997" stop-color="#0070FF"/>
<stop offset="1" stop-color="#09FFD4" stop-opacity="0"/>
</radialGradient>
<radialGradient id="paint62_radial_10_4" cx="0" cy="0" r="1" gradientUnits="userSpaceOnUse" gradientTransform="translate(-103.939 319.553) rotate(93.6492) scale(118.002 122.063)">
<stop stop-color="#00FFD2"/>
<stop offset="0.14427" stop-color="#17FFD6"/>
<stop offset="0.23997" stop-color="#0070FF"/>
<stop offset="1" stop-color="#09FFD4" stop-opacity="0"/>
</radialGradient>
<radialGradient id="paint63_radial_10_4" cx="0" cy="0" r="1" gradientUnits="userSpaceOnUse" gradientTransform="translate(-792.641 793.796) rotate(93.6488) scale(567.876 589.373)">
<stop stop-color="#00FFD2"/>
<stop offset="0.14427" stop-color="#17FFD6"/>
<stop offset="0.23997" stop-color="#0070FF"/>
<stop offset="1" stop-color="#09FFD4" stop-opacity="0"/>
</radialGradient>
<radialGradient id="paint64_radial_10_4" cx="0" cy="0" r="1" gradientUnits="userSpaceOnUse" gradientTransform="translate(-795.655 801.039) rotate(93.6491) scale(567.896 589.312)">
<stop stop-color="#00FFD2"/>
<stop offset="0.14427" stop-color="#17FFD6"/>
<stop offset="0.23997" stop-color="#0070FF"/>
<stop offset="1" stop-color="#09FFD4" stop-opacity="0"/>
</radialGradient>
<radialGradient id="paint65_radial_10_4" cx="0" cy="0" r="1" gradientUnits="userSpaceOnUse" gradientTransform="translate(-786.476 800.554) rotate(93.6488) scale(567.864 589.398)">
<stop stop-color="#00FFD2"/>
<stop offset="0.14427" stop-color="#17FFD6"/>
<stop offset="0.23997" stop-color="#0070FF"/>
<stop offset="1" stop-color="#09FFD4" stop-opacity="0"/>
</radialGradient>
<radialGradient id="paint66_radial_10_4" cx="0" cy="0" r="1" gradientUnits="userSpaceOnUse" gradientTransform="translate(-475.953 564.663) rotate(93.6491) scale(358.646 371.683)">
<stop stop-color="#00FFD2"/>
<stop offset="0.14427" stop-color="#17FFD6"/>
<stop offset="0.23997" stop-color="#0070FF"/>
<stop offset="1" stop-color="#09FFD4" stop-opacity="0"/>
</radialGradient>
<radialGradient id="paint67_radial_10_4" cx="0" cy="0" r="1" gradientUnits="userSpaceOnUse" gradientTransform="translate(-2104.31 827.5) rotate(93.6488) scale(678.458 1592.08)">
<stop stop-color="#00FFD2"/>
<stop offset="0.14427" stop-color="#17FFD6"/>
<stop offset="0.23997" stop-color="#0070FF"/>
<stop offset="1" stop-color="#09FFD4" stop-opacity="0"/>
</radialGradient>
<radialGradient id="paint68_radial_10_4" cx="0" cy="0" r="1" gradientUnits="userSpaceOnUse" gradientTransform="translate(-388.806 522.774) rotate(93.6487) scale(314.31 325.875)">
<stop stop-color="#00FFD2"/>
<stop offset="0.14427" stop-color="#17FFD6"/>
<stop offset="0.23997" stop-color="#0070FF"/>
<stop offset="1" stop-color="#09FFD4" stop-opacity="0"/>
</radialGradient>
<radialGradient id="paint69_radial_10_4" cx="0" cy="0" r="1" gradientUnits="userSpaceOnUse" gradientTransform="translate(-113.366 309.447) rotate(93.6487) scale(117.821 122.67)">
<stop stop-color="#00FFD2"/>
<stop offset="0.14427" stop-color="#17FFD6"/>
<stop offset="0.23997" stop-color="#0070FF"/>
<stop offset="1" stop-color="#09FFD4" stop-opacity="0"/>
</radialGradient>
<radialGradient id="paint70_radial_10_4" cx="0" cy="0" r="1" gradientUnits="userSpaceOnUse" gradientTransform="translate(-133.372 303.915) rotate(93.6489) scale(118.001 121.717)">
<stop stop-color="#00FFD2"/>
<stop offset="0.14427" stop-color="#17FFD6"/>
<stop offset="0.23997" stop-color="#0070FF"/>
<stop offset="1" stop-color="#09FFD4" stop-opacity="0"/>
</radialGradient>
<linearGradient id="paint71_linear_10_4" x1="201.526" y1="2059.22" x2="6190.1" y2="2059.22" gradientUnits="userSpaceOnUse">
<stop stop-color="white"/>
<stop offset="0.1225" stop-color="#FDFDFD"/>
<stop offset="0.2476" stop-color="#F7F7F7"/>
<stop offset="0.374" stop-color="#ECECEC"/>
<stop offset="0.5013" stop-color="#DEDEDE"/>
<stop offset="0.6295" stop-color="#CBCBCB"/>
<stop offset="0.7582" stop-color="#6BACFF"/>
<stop offset="0.8849" stop-color="#2F89FC"/>
<stop offset="1" stop-color="#0070FF"/>
</linearGradient>
<linearGradient id="paint72_linear_10_4" x1="188.144" y1="1745.69" x2="3110.42" y2="1745.69" gradientUnits="userSpaceOnUse">
<stop stop-color="white"/>
<stop offset="0.1225" stop-color="#FDFDFD"/>
<stop offset="0.2476" stop-color="#F7F7F7"/>
<stop offset="0.374" stop-color="#ECECEC"/>
<stop offset="0.5013" stop-color="#DEDEDE"/>
<stop offset="0.6295" stop-color="#CBCBCB"/>
<stop offset="0.7582" stop-color="#6BACFF"/>
<stop offset="0.8849" stop-color="#2F89FC"/>
<stop offset="1" stop-color="#0070FF"/>
</linearGradient>
<linearGradient id="paint73_linear_10_4" x1="139.039" y1="638.452" x2="1229.4" y2="638.452" gradientUnits="userSpaceOnUse">
<stop stop-color="white"/>
<stop offset="0.1225" stop-color="#FDFDFD"/>
<stop offset="0.2476" stop-color="#F7F7F7"/>
<stop offset="0.374" stop-color="#ECECEC"/>
<stop offset="0.5013" stop-color="#DEDEDE"/>
<stop offset="0.6295" stop-color="#CBCBCB"/>
<stop offset="0.7582" stop-color="#6BACFF"/>
<stop offset="0.8849" stop-color="#2F89FC"/>
<stop offset="1" stop-color="#0070FF"/>
</linearGradient>
<linearGradient id="paint74_linear_10_4" x1="125.097" y1="1381.31" x2="3710.44" y2="1381.31" gradientUnits="userSpaceOnUse">
<stop stop-color="white"/>
<stop offset="0.2621" stop-color="#FEFEFE"/>
<stop offset="0.3996" stop-color="#F5F5F5"/>
<stop offset="0.5081" stop-color="#F3F3F3"/>
<stop offset="0.6016" stop-color="#E9E9E9"/>
<stop offset="0.6853" stop-color="#DDDDDD"/>
<stop offset="0.7621" stop-color="#CECECE"/>
<stop offset="0.8336" stop-color="#78B3FF"/>
<stop offset="0.901" stop-color="#4E9CFF"/>
<stop offset="0.9627" stop-color="#2082FF"/>
<stop offset="1" stop-color="#0070FF"/>
</linearGradient>
<linearGradient id="paint75_linear_10_4" x1="172.3" y1="2120.21" x2="3767.3" y2="2120.21" gradientUnits="userSpaceOnUse">
<stop stop-color="#18423B"/>
<stop offset="0.4611" stop-color="#0C4B40"/>
<stop offset="1" stop-color="#005445"/>
</linearGradient>
<linearGradient id="paint76_linear_10_4" x1="150.747" y1="1788.71" x2="3291.29" y2="1788.71" gradientUnits="userSpaceOnUse">
<stop stop-color="#00F0C6"/>
<stop offset="0.1804" stop-color="#04EFC5"/>
<stop offset="0.3646" stop-color="#10EAC3"/>
<stop offset="0.5507" stop-color="#25E3C1"/>
<stop offset="0.738" stop-color="#8F8F8F"/>
<stop offset="0.9245" stop-color="#ADADAD"/>
<stop offset="1" stop-color="#BBBBBB"/>
</linearGradient>
<linearGradient id="paint77_linear_10_4" x1="1366.89" y1="4597.02" x2="1694.99" y2="117.97" gradientUnits="userSpaceOnUse">
<stop stop-color="white"/>
<stop offset="0.2621" stop-color="#FEFEFE"/>
<stop offset="0.3996" stop-color="#F5F5F5"/>
<stop offset="0.5081" stop-color="#F3F3F3"/>
<stop offset="0.6016" stop-color="#E9E9E9"/>
<stop offset="0.6853" stop-color="#DDDDDD"/>
<stop offset="0.7621" stop-color="#CECECE"/>
<stop offset="0.8336" stop-color="#78B3FF"/>
<stop offset="0.901" stop-color="#4E9CFF"/>
<stop offset="0.9627" stop-color="#2082FF"/>
<stop offset="1" stop-color="#0070FF"/>
</linearGradient>
<linearGradient id="paint78_linear_10_4" x1="206.588" y1="2079.91" x2="2246.25" y2="2079.91" gradientUnits="userSpaceOnUse">
<stop stop-color="white"/>
<stop offset="0.1225" stop-color="#FDFDFD"/>
<stop offset="0.2476" stop-color="#F7F7F7"/>
<stop offset="0.374" stop-color="#ECECEC"/>
<stop offset="0.5013" stop-color="#DEDEDE"/>
<stop offset="0.6295" stop-color="#CBCBCB"/>
<stop offset="0.7582" stop-color="#6BACFF"/>
<stop offset="0.8849" stop-color="#2F89FC"/>
<stop offset="1" stop-color="#0070FF"/>
</linearGradient>
<linearGradient id="paint79_linear_10_4" x1="134.143" y1="2575.51" x2="8702.34" y2="2575.51" gradientUnits="userSpaceOnUse">
<stop stop-color="#18423B"/>
<stop offset="0.4611" stop-color="#0C4B40"/>
<stop offset="1" stop-color="#005445"/>
</linearGradient>
<linearGradient id="paint80_linear_10_4" x1="138.857" y1="2126" x2="8228.66" y2="2126" gradientUnits="userSpaceOnUse">
<stop stop-color="#18423B"/>
<stop offset="0.4937" stop-color="#0BA78B"/>
<stop offset="0.838" stop-color="#0367E6"/>
<stop offset="1" stop-color="#0070FF"/>
</linearGradient>
<radialGradient id="paint81_radial_10_4" cx="0" cy="0" r="1" gradientUnits="userSpaceOnUse" gradientTransform="translate(-48.1136 396.604) rotate(93.6481) scale(207.758 215.481)">
<stop stop-color="#00FFD2"/>
<stop offset="0.14427" stop-color="#17FFD6"/>
<stop offset="0.23997" stop-color="#0070FF"/>
<stop offset="1" stop-color="#09FFD4" stop-opacity="0"/>
</radialGradient>
<radialGradient id="paint82_radial_10_4" cx="0" cy="0" r="1" gradientUnits="userSpaceOnUse" gradientTransform="translate(-35.366 375.215) rotate(93.649) scale(188.155 195.243)">
<stop stop-color="#00FFD2"/>
<stop offset="0.14427" stop-color="#17FFD6"/>
<stop offset="0.23997" stop-color="#0070FF"/>
<stop offset="1" stop-color="#09FFD4" stop-opacity="0"/>
</radialGradient>
<radialGradient id="paint83_radial_10_4" cx="0" cy="0" r="1" gradientUnits="userSpaceOnUse" gradientTransform="translate(70.4581 296.475) rotate(93.6482) scale(118.022 122.041)">
<stop stop-color="#00FFD2"/>
<stop offset="0.14427" stop-color="#17FFD6"/>
<stop offset="0.23997" stop-color="#0070FF"/>
<stop offset="1" stop-color="#09FFD4" stop-opacity="0"/>
</radialGradient>
<radialGradient id="paint84_radial_10_4" cx="0" cy="0" r="1" gradientUnits="userSpaceOnUse" gradientTransform="translate(-9.13334 369.339) rotate(93.6491) scale(188.175 195.225)">
<stop stop-color="#00FFD2"/>
<stop offset="0.14427" stop-color="#17FFD6"/>
<stop offset="0.23997" stop-color="#0070FF"/>
<stop offset="1" stop-color="#09FFD4" stop-opacity="0"/>
</radialGradient>
<radialGradient id="paint85_radial_10_4" cx="0" cy="0" r="1" gradientUnits="userSpaceOnUse" gradientTransform="translate(102.439 296.579) rotate(93.6426) scale(138.817 143.591)">
<stop stop-color="#D5D5D5"/>
<stop offset="0.043" stop-color="#B6B6B6"/>
<stop offset="0.1242" stop-color="#7E8180"/>
<stop offset="0.1997" stop-color="#40514E"/>
<stop offset="0.2672" stop-color="#333837"/>
<stop offset="0.3241" stop-color="#202625"/>
<stop offset="0.3636" stop-color="#191F1E"/>
<stop offset="0.994"/>
</radialGradient>
<radialGradient id="paint86_radial_10_4" cx="0" cy="0" r="1" gradientUnits="userSpaceOnUse" gradientTransform="translate(93.2828 285.997) rotate(93.6486) scale(118.023 122.036)">
<stop stop-color="#00FFD2"/>
<stop offset="0.14427" stop-color="#17FFD6"/>
<stop offset="0.23997" stop-color="#0070FF"/>
<stop offset="1" stop-color="#09FFD4" stop-opacity="0"/>
</radialGradient>
<radialGradient id="paint87_radial_10_4" cx="0" cy="0" r="1" gradientUnits="userSpaceOnUse" gradientTransform="translate(103.697 290.849) rotate(93.6489) scale(117.838 122.268)">
<stop stop-color="#00FFD2"/>
<stop offset="0.14427" stop-color="#17FFD6"/>
<stop offset="0.23997" stop-color="#0070FF"/>
<stop offset="1" stop-color="#09FFD4" stop-opacity="0"/>
</radialGradient>
<radialGradient id="paint88_radial_10_4" cx="0" cy="0" r="1" gradientUnits="userSpaceOnUse" gradientTransform="translate(-1.43317 378.393) rotate(93.6491) scale(188.155 195.205)">
<stop stop-color="#00FFD2"/>
<stop offset="0.14427" stop-color="#17FFD6"/>
<stop offset="0.23997" stop-color="#0070FF"/>
<stop offset="1" stop-color="#09FFD4" stop-opacity="0"/>
</radialGradient>
<radialGradient id="paint89_radial_10_4" cx="0" cy="0" r="1" gradientUnits="userSpaceOnUse" gradientTransform="translate(92.9838 307.65) rotate(93.6483) scale(118.004 122.439)">
<stop stop-color="#00FFD2"/>
<stop offset="0.14427" stop-color="#17FFD6"/>
<stop offset="0.23997" stop-color="#0070FF"/>
<stop offset="1" stop-color="#09FFD4" stop-opacity="0"/>
</radialGradient>
<radialGradient id="paint90_radial_10_4" cx="0" cy="0" r="1" gradientUnits="userSpaceOnUse" gradientTransform="translate(104.13 299.385) rotate(93.6483) scale(118.004 122.44)">
<stop stop-color="#00FFD2"/>
<stop offset="0.14427" stop-color="#17FFD6"/>
<stop offset="0.23997" stop-color="#0070FF"/>
<stop offset="1" stop-color="#09FFD4" stop-opacity="0"/>
</radialGradient>
<radialGradient id="paint91_radial_10_4" cx="0" cy="0" r="1" gradientUnits="userSpaceOnUse" gradientTransform="translate(-592.195 765.15) rotate(93.6487) scale(567.88 589.339)">
<stop stop-color="#00FFD2"/>
<stop offset="0.14427" stop-color="#17FFD6"/>
<stop offset="0.23997" stop-color="#0070FF"/>
<stop offset="1" stop-color="#09FFD4" stop-opacity="0"/>
</radialGradient>
<radialGradient id="paint92_radial_10_4" cx="0" cy="0" r="1" gradientUnits="userSpaceOnUse" gradientTransform="translate(-595.258 772.342) rotate(93.6492) scale(567.9 589.359)">
<stop stop-color="#00FFD2"/>
<stop offset="0.14427" stop-color="#17FFD6"/>
<stop offset="0.23997" stop-color="#0070FF"/>
<stop offset="1" stop-color="#09FFD4" stop-opacity="0"/>
</radialGradient>
<radialGradient id="paint93_radial_10_4" cx="0" cy="0" r="1" gradientUnits="userSpaceOnUse" gradientTransform="translate(-586.034 771.91) rotate(93.6488) scale(567.856 589.353)">
<stop stop-color="#00FFD2"/>
<stop offset="0.14427" stop-color="#17FFD6"/>
<stop offset="0.23997" stop-color="#0070FF"/>
<stop offset="1" stop-color="#09FFD4" stop-opacity="0"/>
</radialGradient>
<radialGradient id="paint94_radial_10_4" cx="0" cy="0" r="1" gradientUnits="userSpaceOnUse" gradientTransform="translate(-275.567 536.512) rotate(93.6491) scale(358.646 371.683)">
<stop stop-color="#00FFD2"/>
<stop offset="0.14427" stop-color="#17FFD6"/>
<stop offset="0.23997" stop-color="#0070FF"/>
<stop offset="1" stop-color="#09FFD4" stop-opacity="0"/>
</radialGradient>
<radialGradient id="paint95_radial_10_4" cx="0" cy="0" r="1" gradientUnits="userSpaceOnUse" gradientTransform="translate(-548.597 772.9) rotate(93.6488) scale(567.876 589.372)">
<stop stop-color="#00FFD2"/>
<stop offset="0.14427" stop-color="#17FFD6"/>
<stop offset="0.23997" stop-color="#0070FF"/>
<stop offset="1" stop-color="#09FFD4" stop-opacity="0"/>
</radialGradient>
<radialGradient id="paint96_radial_10_4" cx="0" cy="0" r="1" gradientUnits="userSpaceOnUse" gradientTransform="translate(-585.476 754.478) rotate(93.6487) scale(567.88 589.339)">
<stop stop-color="#00FFD2"/>
<stop offset="0.14427" stop-color="#17FFD6"/>
<stop offset="0.23997" stop-color="#0070FF"/>
<stop offset="1" stop-color="#09FFD4" stop-opacity="0"/>
</radialGradient>
<radialGradient id="paint97_radial_10_4" cx="0" cy="0" r="1" gradientUnits="userSpaceOnUse" gradientTransform="translate(-188.416 494.624) rotate(93.6487) scale(314.31 325.876)">
<stop stop-color="#00FFD2"/>
<stop offset="0.14427" stop-color="#17FFD6"/>
<stop offset="0.23997" stop-color="#0070FF"/>
<stop offset="1" stop-color="#09FFD4" stop-opacity="0"/>
</radialGradient>
<radialGradient id="paint98_radial_10_4" cx="0" cy="0" r="1" gradientUnits="userSpaceOnUse" gradientTransform="translate(87.0453 281.321) rotate(93.6488) scale(117.819 122.627)">
<stop stop-color="#00FFD2"/>
<stop offset="0.14427" stop-color="#17FFD6"/>
<stop offset="0.23997" stop-color="#0070FF"/>
<stop offset="1" stop-color="#09FFD4" stop-opacity="0"/>
</radialGradient>
<radialGradient id="paint99_radial_10_4" cx="0" cy="0" r="1" gradientUnits="userSpaceOnUse" gradientTransform="translate(67.042 275.242) rotate(93.6489) scale(118.001 121.724)">
<stop stop-color="#00FFD2"/>
<stop offset="0.14427" stop-color="#17FFD6"/>
<stop offset="0.23997" stop-color="#0070FF"/>
<stop offset="1" stop-color="#09FFD4" stop-opacity="0"/>
</radialGradient>
<radialGradient id="paint100_radial_10_4" cx="0" cy="0" r="1" gradientUnits="userSpaceOnUse" gradientTransform="translate(-51.2694 349.403) rotate(93.6482) scale(207.759 215.439)">
<stop stop-color="#00FFD2"/>
<stop offset="0.14427" stop-color="#17FFD6"/>
<stop offset="0.23997" stop-color="#0070FF"/>
<stop offset="1" stop-color="#09FFD4" stop-opacity="0"/>
</radialGradient>
<radialGradient id="paint101_radial_10_4" cx="0" cy="0" r="1" gradientUnits="userSpaceOnUse" gradientTransform="translate(-38.5219 328.007) rotate(93.6491) scale(188.156 195.204)">
<stop stop-color="#00FFD2"/>
<stop offset="0.14427" stop-color="#17FFD6"/>
<stop offset="0.23997" stop-color="#0070FF"/>
<stop offset="1" stop-color="#09FFD4" stop-opacity="0"/>
</radialGradient>
<radialGradient id="paint102_radial_10_4" cx="0" cy="0" r="1" gradientUnits="userSpaceOnUse" gradientTransform="translate(67.2749 249.249) rotate(93.6482) scale(118.022 122.041)">
<stop stop-color="#00FFD2"/>
<stop offset="0.14427" stop-color="#17FFD6"/>
<stop offset="0.23997" stop-color="#0070FF"/>
<stop offset="1" stop-color="#09FFD4" stop-opacity="0"/>
</radialGradient>
<radialGradient id="paint103_radial_10_4" cx="0" cy="0" r="1" gradientUnits="userSpaceOnUse" gradientTransform="translate(-12.3121 322.113) rotate(93.6491) scale(188.175 195.225)">
<stop stop-color="#00FFD2"/>
<stop offset="0.14427" stop-color="#17FFD6"/>
<stop offset="0.23997" stop-color="#0070FF"/>
<stop offset="1" stop-color="#09FFD4" stop-opacity="0"/>
</radialGradient>
<radialGradient id="paint104_radial_10_4" cx="0" cy="0" r="1" gradientUnits="userSpaceOnUse" gradientTransform="translate(78.9242 246.983) rotate(93.6486) scale(118.002 122.104)">
<stop stop-color="#00FFD2"/>
<stop offset="0.14427" stop-color="#17FFD6"/>
<stop offset="0.23997" stop-color="#0070FF"/>
<stop offset="1" stop-color="#09FFD4" stop-opacity="0"/>
</radialGradient>
<radialGradient id="paint105_radial_10_4" cx="0" cy="0" r="1" gradientUnits="userSpaceOnUse" gradientTransform="translate(90.1041 238.771) rotate(93.6486) scale(118.023 122.036)">
<stop stop-color="#00FFD2"/>
<stop offset="0.14427" stop-color="#17FFD6"/>
<stop offset="0.23997" stop-color="#0070FF"/>
<stop offset="1" stop-color="#09FFD4" stop-opacity="0"/>
</radialGradient>
<radialGradient id="paint106_radial_10_4" cx="0" cy="0" r="1" gradientUnits="userSpaceOnUse" gradientTransform="translate(100.315 243.447) rotate(93.6486) scale(117.84 122.601)">
<stop stop-color="#00FFD2"/>
<stop offset="0.14427" stop-color="#17FFD6"/>
<stop offset="0.23997" stop-color="#0070FF"/>
<stop offset="1" stop-color="#09FFD4" stop-opacity="0"/>
</radialGradient>
<radialGradient id="paint107_radial_10_4" cx="0" cy="0" r="1" gradientUnits="userSpaceOnUse" gradientTransform="translate(-4.61634 331.167) rotate(93.6491) scale(188.155 195.205)">
<stop stop-color="#00FFD2"/>
<stop offset="0.14427" stop-color="#17FFD6"/>
<stop offset="0.23997" stop-color="#0070FF"/>
<stop offset="1" stop-color="#09FFD4" stop-opacity="0"/>
</radialGradient>
<radialGradient id="paint108_radial_10_4" cx="0" cy="0" r="1" gradientUnits="userSpaceOnUse" gradientTransform="translate(89.8051 260.425) rotate(93.6483) scale(118.004 122.439)">
<stop stop-color="#00FFD2"/>
<stop offset="0.14427" stop-color="#17FFD6"/>
<stop offset="0.23997" stop-color="#0070FF"/>
<stop offset="1" stop-color="#09FFD4" stop-opacity="0"/>
</radialGradient>
<radialGradient id="paint109_radial_10_4" cx="0" cy="0" r="1" gradientUnits="userSpaceOnUse" gradientTransform="translate(101.182 252.368) rotate(93.6492) scale(118.002 122.063)">
<stop stop-color="#00FFD2"/>
<stop offset="0.14427" stop-color="#17FFD6"/>
<stop offset="0.23997" stop-color="#0070FF"/>
<stop offset="1" stop-color="#09FFD4" stop-opacity="0"/>
</radialGradient>
<radialGradient id="paint110_radial_10_4" cx="0" cy="0" r="1" gradientUnits="userSpaceOnUse" gradientTransform="translate(-587.519 726.611) rotate(93.6488) scale(567.876 589.373)">
<stop stop-color="#00FFD2"/>
<stop offset="0.14427" stop-color="#17FFD6"/>
<stop offset="0.23997" stop-color="#0070FF"/>
<stop offset="1" stop-color="#09FFD4" stop-opacity="0"/>
</radialGradient>
<radialGradient id="paint111_radial_10_4" cx="0" cy="0" r="1" gradientUnits="userSpaceOnUse" gradientTransform="translate(-590.534 733.853) rotate(93.6491) scale(567.896 589.312)">
<stop stop-color="#00FFD2"/>
<stop offset="0.14427" stop-color="#17FFD6"/>
<stop offset="0.23997" stop-color="#0070FF"/>
<stop offset="1" stop-color="#09FFD4" stop-opacity="0"/>
</radialGradient>
<radialGradient id="paint112_radial_10_4" cx="0" cy="0" r="1" gradientUnits="userSpaceOnUse" gradientTransform="translate(-581.355 733.369) rotate(93.6488) scale(567.864 589.398)">
<stop stop-color="#00FFD2"/>
<stop offset="0.14427" stop-color="#17FFD6"/>
<stop offset="0.23997" stop-color="#0070FF"/>
<stop offset="1" stop-color="#09FFD4" stop-opacity="0"/>
</radialGradient>
<radialGradient id="paint113_radial_10_4" cx="0" cy="0" r="1" gradientUnits="userSpaceOnUse" gradientTransform="translate(-270.832 497.477) rotate(93.6491) scale(358.646 371.683)">
<stop stop-color="#00FFD2"/>
<stop offset="0.14427" stop-color="#17FFD6"/>
<stop offset="0.23997" stop-color="#0070FF"/>
<stop offset="1" stop-color="#09FFD4" stop-opacity="0"/>
</radialGradient>
<radialGradient id="paint114_radial_10_4" cx="0" cy="0" r="1" gradientUnits="userSpaceOnUse" gradientTransform="translate(-1899.19 760.315) rotate(93.6488) scale(678.458 1592.08)">
<stop stop-color="#00FFD2"/>
<stop offset="0.14427" stop-color="#17FFD6"/>
<stop offset="0.23997" stop-color="#0070FF"/>
<stop offset="1" stop-color="#09FFD4" stop-opacity="0"/>
</radialGradient>
<radialGradient id="paint115_radial_10_4" cx="0" cy="0" r="1" gradientUnits="userSpaceOnUse" gradientTransform="translate(-183.684 455.589) rotate(93.6487) scale(314.31 325.875)">
<stop stop-color="#00FFD2"/>
<stop offset="0.14427" stop-color="#17FFD6"/>
<stop offset="0.23997" stop-color="#0070FF"/>
<stop offset="1" stop-color="#09FFD4" stop-opacity="0"/>
</radialGradient>
<radialGradient id="paint116_radial_10_4" cx="0" cy="0" r="1" gradientUnits="userSpaceOnUse" gradientTransform="translate(91.7547 242.261) rotate(93.6487) scale(117.821 122.67)">
<stop stop-color="#00FFD2"/>
<stop offset="0.14427" stop-color="#17FFD6"/>
<stop offset="0.23997" stop-color="#0070FF"/>
<stop offset="1" stop-color="#09FFD4" stop-opacity="0"/>
</radialGradient>
<radialGradient id="paint117_radial_10_4" cx="0" cy="0" r="1" gradientUnits="userSpaceOnUse" gradientTransform="translate(71.7495 236.73) rotate(93.6489) scale(118.001 121.717)">
<stop stop-color="#00FFD2"/>
<stop offset="0.14427" stop-color="#17FFD6"/>
<stop offset="0.23997" stop-color="#0070FF"/>
<stop offset="1" stop-color="#09FFD4" stop-opacity="0"/>
</radialGradient>
<clipPath id="clip0_10_4">
<rect width="352.14" height="346.763" fill="white"/>
</clipPath>
</defs>
</svg>
