<svg width="352" height="257" viewBox="0 0 352 257" fill="none" xmlns="http://www.w3.org/2000/svg">
<g clip-path="url(#clip0_10_4)">
<path d="M325.452 150.459C254.68 211.082 305.578 258.146 137.101 245.801C58.2263 240.015 19.1608 180.978 10.1152 127.035C-1.10045 60.1573 41.8122 12.681 159.951 12.681C213.242 12.681 261.323 -3.15305 294.89 18.1642C341.681 47.8905 360.27 120.637 325.452 150.459Z" fill="url(#paint0_linear_10_4)"/>
<path d="M66.3959 53.7985H248.316V232.941H66.3959V53.7985Z" fill="url(#paint1_radial_10_4)"/>
<path d="M239.9 152.86L218.093 165.374L218.41 165.911L240.216 153.398C240.529 153.216 240.723 152.895 240.727 152.535C240.731 152.175 240.551 151.85 240.238 151.659L237.575 150.034C237.516 149.998 237.467 149.948 237.434 149.888C237.401 149.828 237.384 149.76 237.386 149.692C237.39 149.553 237.465 149.427 237.589 149.362L245.767 144.833C246 144.889 246.256 144.928 246.533 144.928C247.497 144.928 248.276 144.538 248.276 144.052C248.276 143.571 247.497 143.177 246.533 143.177C245.569 143.177 244.79 143.567 244.79 144.052C244.79 144.221 244.891 144.377 245.054 144.512L237.276 148.816C236.955 148.994 236.761 149.314 236.752 149.679C236.743 150.038 236.924 150.372 237.241 150.563L239.904 152.188C240.027 152.262 240.093 152.383 240.093 152.526C240.093 152.665 240.023 152.786 239.9 152.86Z" fill="url(#paint2_linear_10_4)"/>
<path d="M248.835 152.609C249.795 152.609 250.578 152.219 250.578 151.733C250.578 151.252 249.799 150.858 248.835 150.858C247.871 150.858 247.092 151.248 247.092 151.733C247.092 151.907 247.198 152.071 247.374 152.21L220.611 167.541L220.928 168.079L248.087 152.522C248.316 152.574 248.566 152.609 248.835 152.609Z" fill="url(#paint3_linear_10_4)"/>
<path d="M248.694 126.823L200.693 154.113L201.01 154.65L249.407 127.135C249.636 127.191 249.887 127.221 250.155 127.221C251.115 127.221 251.899 126.831 251.899 126.346C251.899 125.865 251.119 125.47 250.155 125.47C249.192 125.47 248.412 125.86 248.412 126.346C248.412 126.528 248.518 126.688 248.694 126.823Z" fill="url(#paint4_linear_10_4)"/>
<path d="M208.709 136.835L189.42 148.096L189.742 148.63L209.03 137.368C209.269 137.23 209.466 137.032 209.602 136.795C209.738 136.557 209.808 136.289 209.805 136.016C209.804 135.743 209.731 135.476 209.591 135.24C209.452 135.004 209.253 134.808 209.012 134.672L206.415 133.199C206.272 133.119 206.152 133.003 206.069 132.863C205.985 132.723 205.941 132.564 205.94 132.401C205.936 132.239 205.976 132.079 206.055 131.937C206.134 131.795 206.249 131.675 206.389 131.591L212.19 128.023C212.406 128.071 212.644 128.097 212.895 128.097C213.859 128.097 214.638 127.707 214.638 127.221C214.638 126.74 213.859 126.346 212.895 126.346C211.935 126.346 211.152 126.736 211.152 127.221C211.152 127.408 211.275 127.581 211.473 127.724L206.054 131.057C205.821 131.199 205.63 131.399 205.499 131.636C205.369 131.873 205.304 132.14 205.311 132.41C205.319 132.965 205.619 133.459 206.103 133.736L208.7 135.21C208.995 135.379 209.175 135.682 209.175 136.016C209.175 136.359 208.999 136.662 208.709 136.835Z" fill="url(#paint5_linear_10_4)"/>
<path d="M232.016 173.969L263.33 156.167C263.791 155.906 264.318 155.78 264.849 155.804C265.38 155.828 265.893 156 266.327 156.302L269.193 158.296C269.743 158.681 270.398 158.897 271.073 158.914C271.748 158.932 272.413 158.751 272.983 158.395L277.38 155.665C277.57 155.699 277.772 155.721 277.988 155.721C278.952 155.721 279.731 155.331 279.731 154.845C279.731 154.36 278.952 153.97 277.988 153.97C277.028 153.97 276.245 154.36 276.245 154.845C276.245 155.053 276.394 155.24 276.632 155.392L272.644 157.871C272.179 158.161 271.637 158.308 271.086 158.293C270.536 158.278 270.003 158.103 269.554 157.789L266.688 155.795C266.155 155.425 265.525 155.213 264.873 155.183C264.222 155.153 263.575 155.307 263.009 155.626L231.695 173.428L232.016 173.969Z" fill="url(#paint6_linear_10_4)"/>
<path d="M110.669 152.908C110.609 152.874 110.559 152.826 110.524 152.767C110.489 152.708 110.471 152.642 110.471 152.574C110.471 152.435 110.537 152.31 110.66 152.236L113.323 150.61C113.475 150.518 113.6 150.388 113.686 150.234C113.771 150.079 113.815 149.905 113.811 149.729C113.808 149.553 113.757 149.381 113.666 149.23C113.574 149.079 113.444 148.954 113.288 148.868L105.51 144.564C105.677 144.429 105.774 144.273 105.774 144.104C105.774 143.623 104.995 143.229 104.031 143.229C103.071 143.229 102.288 143.619 102.288 144.104C102.288 144.59 103.067 144.98 104.031 144.98C104.308 144.98 104.563 144.945 104.797 144.889L112.975 149.414C113.103 149.484 113.173 149.605 113.178 149.748C113.182 149.887 113.112 150.012 112.988 150.086L110.325 151.711C110.174 151.803 110.049 151.932 109.964 152.086C109.878 152.239 109.834 152.412 109.836 152.587C109.839 152.762 109.887 152.933 109.976 153.084C110.066 153.236 110.194 153.361 110.347 153.45L132.154 165.963L132.47 165.426L110.669 152.908Z" fill="url(#paint7_linear_10_4)"/>
<path d="M103.476 151.781C103.476 151.295 102.697 150.905 101.733 150.905C100.769 150.905 99.99 151.295 99.99 151.781C99.99 152.262 100.769 152.656 101.733 152.656C102.002 152.656 102.252 152.622 102.477 152.57L129.636 168.126L129.953 167.589L103.194 152.262C103.371 152.119 103.476 151.959 103.476 151.781Z" fill="url(#paint8_linear_10_4)"/>
<path d="M72.5759 155.769C72.7916 155.769 72.9941 155.747 73.1834 155.712L77.5807 158.443C78.1518 158.799 78.8176 158.98 79.4933 158.962C80.169 158.944 80.824 158.729 81.375 158.343L84.2405 156.349C84.6752 156.048 85.1883 155.875 85.7194 155.852C86.2505 155.828 86.7774 155.954 87.2381 156.215L118.552 174.017L118.869 173.48L87.5551 155.678C86.9894 155.357 86.3426 155.203 85.6907 155.232C85.0389 155.261 84.409 155.473 83.8752 155.842L81.0097 157.836C80.5606 158.15 80.027 158.325 79.4767 158.338C78.9264 158.352 78.3844 158.205 77.9196 157.914L73.9317 155.435C74.1693 155.283 74.319 155.097 74.319 154.889C74.319 154.408 73.5399 154.013 72.5759 154.013C71.6119 154.013 70.8328 154.403 70.8328 154.889C70.8372 155.379 71.6163 155.769 72.5759 155.769Z" fill="url(#paint9_linear_10_4)"/>
<path d="M100.413 127.273C100.681 127.273 100.936 127.238 101.161 127.186L149.558 154.702L149.875 154.165L101.874 126.874C102.05 126.74 102.151 126.575 102.151 126.402C102.151 125.921 101.372 125.526 100.408 125.526C99.4442 125.526 98.6651 125.916 98.6651 126.402C98.6695 126.883 99.4486 127.273 100.413 127.273Z" fill="url(#paint10_linear_10_4)"/>
<path d="M141.393 136.072C141.393 135.734 141.573 135.435 141.868 135.266L144.465 133.792C144.949 133.515 145.249 133.021 145.258 132.466C145.266 131.911 144.989 131.408 144.509 131.114L139.091 127.78C139.293 127.637 139.412 127.464 139.412 127.278C139.412 126.792 138.633 126.402 137.669 126.402C136.705 126.402 135.926 126.792 135.926 127.278C135.926 127.759 136.705 128.153 137.669 128.153C137.92 128.153 138.158 128.127 138.373 128.08L144.175 131.647C144.314 131.733 144.429 131.852 144.507 131.994C144.586 132.137 144.626 132.296 144.623 132.458C144.621 132.62 144.575 132.779 144.492 132.918C144.409 133.058 144.291 133.174 144.148 133.255L141.551 134.729C141.311 134.864 141.111 135.06 140.972 135.296C140.833 135.532 140.76 135.8 140.759 136.072C140.755 136.632 141.045 137.139 141.538 137.425L160.827 148.69L161.148 148.153L141.859 136.887C141.564 136.714 141.393 136.406 141.393 136.072Z" fill="url(#paint11_linear_10_4)"/>
<path d="M110.669 209.868L132.475 197.359L132.158 196.821L110.352 209.335C110.197 209.422 110.069 209.548 109.979 209.699C109.89 209.85 109.842 210.022 109.841 210.197C109.837 210.557 110.017 210.882 110.33 211.073L112.993 212.698C113.116 212.772 113.182 212.898 113.182 213.037C113.182 213.105 113.163 213.172 113.127 213.231C113.092 213.289 113.041 213.338 112.98 213.37L104.801 217.896C104.568 217.839 104.313 217.8 104.035 217.8C103.076 217.8 102.292 218.19 102.292 218.676C102.292 219.157 103.071 219.551 104.035 219.551C104.999 219.551 105.778 219.161 105.778 218.676C105.778 218.507 105.677 218.351 105.514 218.216L113.292 213.912C113.613 213.734 113.807 213.414 113.816 213.05C113.825 212.685 113.64 212.356 113.327 212.165L110.664 210.54C110.605 210.505 110.556 210.456 110.523 210.396C110.49 210.337 110.473 210.27 110.475 210.202C110.471 210.059 110.545 209.937 110.669 209.868Z" fill="url(#paint12_linear_10_4)"/>
<path d="M101.733 210.115C100.769 210.115 99.99 210.505 99.99 210.991C99.99 211.472 100.769 211.866 101.733 211.866C102.697 211.866 103.476 211.476 103.476 210.991C103.476 210.813 103.371 210.653 103.194 210.514L129.953 195.183L129.636 194.645L102.481 210.202C102.252 210.15 102.002 210.115 101.733 210.115Z" fill="url(#paint13_linear_10_4)"/>
<path d="M101.874 235.901L149.875 208.611L149.558 208.074L101.161 235.589C100.932 235.533 100.681 235.503 100.408 235.503C99.4442 235.503 98.6651 235.893 98.6651 236.378C98.6651 236.859 99.4442 237.254 100.408 237.254C101.372 237.254 102.151 236.864 102.151 236.378C102.151 236.2 102.05 236.036 101.874 235.901Z" fill="url(#paint14_linear_10_4)"/>
<path d="M141.859 225.888L161.148 214.623L160.827 214.09L141.538 225.351C141.299 225.49 141.102 225.688 140.965 225.925C140.829 226.162 140.757 226.431 140.759 226.703C140.763 227.263 141.058 227.765 141.551 228.047L144.148 229.521C144.439 229.686 144.619 229.985 144.624 230.318C144.628 230.652 144.461 230.956 144.175 231.129L138.373 234.692C138.158 234.644 137.92 234.618 137.669 234.618C136.705 234.618 135.926 235.008 135.926 235.494C135.926 235.975 136.705 236.369 137.669 236.369C138.629 236.369 139.412 235.979 139.412 235.494C139.412 235.303 139.289 235.13 139.091 234.987L144.509 231.653C144.743 231.512 144.934 231.312 145.066 231.075C145.197 230.838 145.263 230.571 145.258 230.301C145.249 229.751 144.949 229.252 144.465 228.975L141.868 227.501C141.725 227.42 141.605 227.303 141.522 227.162C141.438 227.021 141.394 226.86 141.393 226.697C141.392 226.534 141.435 226.373 141.517 226.232C141.598 226.09 141.717 225.971 141.859 225.888Z" fill="url(#paint15_linear_10_4)"/>
<path d="M118.552 188.754L87.2381 206.556C86.7774 206.818 86.2505 206.944 85.7194 206.92C85.1884 206.896 84.6752 206.723 84.2405 206.422L81.375 204.428C80.2438 203.639 78.756 203.605 77.5807 204.328L73.179 207.059C72.9787 207.022 72.7753 207.003 72.5715 207.003C71.6075 207.003 70.8284 207.393 70.8284 207.878C70.8284 208.364 71.6075 208.754 72.5715 208.754C73.5355 208.754 74.3146 208.364 74.3146 207.878C74.3146 207.67 74.165 207.484 73.9273 207.337L77.9152 204.857C78.3804 204.567 78.9227 204.421 79.473 204.435C80.0233 204.45 80.5567 204.625 81.0053 204.94L83.8708 206.934C84.4046 207.303 85.0344 207.515 85.6863 207.544C86.3382 207.573 86.985 207.419 87.5507 207.098L118.865 189.296L118.552 188.754Z" fill="url(#paint16_linear_10_4)"/>
<path d="M250.574 210.943C250.574 210.462 249.795 210.067 248.831 210.067C248.562 210.067 248.311 210.102 248.087 210.154L220.928 194.597L220.611 195.135L247.374 210.466C247.198 210.605 247.092 210.765 247.092 210.943C247.092 211.428 247.871 211.819 248.835 211.819C249.795 211.819 250.574 211.424 250.574 210.943Z" fill="url(#paint17_linear_10_4)"/>
<path d="M244.794 218.624C244.794 219.105 245.573 219.499 246.537 219.499C247.501 219.499 248.28 219.109 248.28 218.624C248.28 218.143 247.501 217.748 246.537 217.748C246.26 217.748 246.005 217.783 245.771 217.839L237.593 213.314C237.533 213.281 237.482 213.232 237.447 213.174C237.411 213.115 237.392 213.048 237.39 212.98C237.388 212.912 237.404 212.845 237.437 212.785C237.471 212.726 237.52 212.676 237.58 212.642L240.243 211.017C240.555 210.83 240.736 210.501 240.731 210.141C240.727 209.781 240.533 209.461 240.221 209.279L218.415 196.765L218.098 197.302L239.904 209.816C240.027 209.885 240.098 210.007 240.102 210.15C240.102 210.288 240.036 210.414 239.913 210.488L237.25 212.113C236.937 212.304 236.757 212.633 236.761 212.998C236.77 213.362 236.964 213.682 237.285 213.86L245.063 218.164C244.895 218.299 244.794 218.455 244.794 218.624Z" fill="url(#paint18_linear_10_4)"/>
<path d="M277.988 206.955C277.772 206.955 277.57 206.977 277.38 207.012L272.983 204.281C272.413 203.925 271.748 203.744 271.073 203.762C270.398 203.779 269.743 203.995 269.193 204.38L266.328 206.374C265.893 206.676 265.38 206.848 264.849 206.872C264.318 206.896 263.791 206.77 263.33 206.509L232.016 188.707L231.699 189.244L263.013 207.046C263.579 207.367 264.226 207.521 264.877 207.492C265.529 207.463 266.159 207.251 266.693 206.882L269.559 204.888C270.008 204.574 270.541 204.399 271.091 204.385C271.641 204.37 272.183 204.516 272.649 204.805L276.636 207.285C276.399 207.436 276.249 207.623 276.249 207.831C276.249 208.312 277.028 208.706 277.992 208.706C278.956 208.706 279.735 208.316 279.735 207.831C279.731 207.345 278.952 206.955 277.988 206.955Z" fill="url(#paint19_linear_10_4)"/>
<path d="M212.895 234.575C212.644 234.575 212.406 234.601 212.19 234.649L206.389 231.081C206.249 230.996 206.135 230.876 206.056 230.734C205.978 230.591 205.938 230.432 205.94 230.27C205.943 230.108 205.988 229.95 206.071 229.81C206.155 229.67 206.273 229.554 206.415 229.473L209.012 227.995C209.253 227.86 209.454 227.665 209.593 227.429C209.732 227.193 209.805 226.924 209.805 226.651C209.809 226.092 209.519 225.585 209.026 225.299L189.737 214.034L189.416 214.571L208.704 225.832C208.999 226.006 209.175 226.309 209.171 226.647C209.171 226.985 208.99 227.284 208.695 227.453L206.098 228.927C205.614 229.204 205.315 229.699 205.306 230.253C205.297 230.808 205.575 231.311 206.05 231.606L211.469 234.939C211.266 235.082 211.147 235.255 211.147 235.442C211.147 235.923 211.926 236.317 212.89 236.317C213.854 236.317 214.633 235.927 214.633 235.442C214.633 234.965 213.854 234.575 212.895 234.575Z" fill="url(#paint20_linear_10_4)"/>
<path d="M250.156 235.45C249.887 235.45 249.632 235.485 249.403 235.537L201.006 208.021L200.689 208.559L248.69 235.849C248.514 235.988 248.412 236.148 248.412 236.322C248.412 236.803 249.192 237.197 250.156 237.197C251.115 237.197 251.899 236.807 251.899 236.322C251.899 235.836 251.12 235.45 250.156 235.45Z" fill="url(#paint21_linear_10_4)"/>
<path d="M272.442 75.7356C272.442 75.7356 237.364 54.5007 164.278 54.1756C139.918 54.0672 96.1473 60.4694 70.0274 72.9528C39.6025 87.4996 38.282 106.168 38.282 106.168L38.2776 108.652C39.9238 113.598 44.5809 125.405 53.2171 131.703C64.3271 139.809 70.9121 143.077 70.9121 143.077L74.6096 141.023L268.647 77.01L272.442 75.7356Z" fill="url(#paint22_linear_10_4)"/>
<path d="M39.915 198.915C39.915 198.915 53.3623 159.401 149.488 151.803C215.862 146.553 268.652 169.496 268.652 169.496V77.01C268.652 77.01 237.985 57.5349 164.898 57.2085C140.539 57.1014 96.7679 63.5036 70.648 75.987C40.2231 90.5381 40.1351 110.122 40.1351 110.122L39.915 198.915Z" fill="url(#paint23_linear_10_4)"/>
<g opacity="0.3">
<path opacity="0.56" d="M138.923 74.9424V79.6367L90.1521 90.057L90.0464 85.2326L138.923 74.9424ZM138.923 82.1724V86.8667L90.1521 97.2826L90.0464 92.467L138.923 82.1724ZM138.923 89.3981V94.0924L90.1521 104.513L90.0464 99.6927L138.923 89.3981ZM138.923 96.6281V101.322L90.1521 111.738L90.0464 106.918L138.923 96.6281ZM138.923 103.858V108.552L117.06 113.403L116.954 108.583L138.923 103.858ZM138.923 111.084V115.778L90.1521 126.194L90.0464 121.378L138.923 111.084ZM138.923 118.314V123.008L90.1521 133.424L90.0464 128.604L138.923 118.314ZM138.923 125.54V130.234L90.1521 140.654L90.0464 135.834L138.923 125.54ZM138.923 132.77V137.464L90.1521 147.88L90.0464 143.064L138.923 132.77Z" fill="white"/>
</g>
<g opacity="0.7">
<path d="M228.851 140.186L246.925 129.909L264.998 140.186L246.674 150.316L228.851 140.186Z" fill="#2B68B5"/>
<path d="M228.851 134.07L246.925 123.797L264.998 134.07L246.674 144.204L228.851 134.07Z" fill="#5691DD"/>
<path d="M228.851 126.398L246.925 116.125L264.998 126.398L246.674 136.532L228.851 126.398Z" fill="#1AAC92"/>
<path d="M228.851 119.775L246.925 109.502L264.998 119.775L246.674 129.909L228.851 119.775Z" fill="#1AAC92"/>
<path d="M228.851 113.156L246.925 102.879L264.998 113.156L246.674 123.286L228.851 113.156Z" fill="#1AAC92"/>
<path d="M228.851 106.901L246.925 96.6238L264.998 106.901L246.674 117.031L228.851 106.901Z" fill="#30E3CA"/>
<path d="M228.851 100.646L246.925 90.3734L264.998 100.646L246.674 110.78L228.851 100.646Z" fill="#00CCB0"/>
<path d="M228.851 94.3958L246.925 84.1186L264.998 94.3958L246.674 104.526L228.851 94.3958Z" fill="#30E3CA"/>
</g>
<g opacity="0.6">
<path opacity="0.56" d="M195.886 64.3835V67.2746L225.915 72.5974L225.981 69.6283L195.886 64.3835ZM195.886 68.835V71.7218L225.915 77.049L225.981 74.0798L195.886 68.835ZM195.886 73.2823V76.1734L225.915 81.4962L225.981 78.5271L195.886 73.2823ZM195.886 77.7339V80.625L225.915 85.9478L225.981 82.9787L195.886 77.7339ZM195.886 82.1854V85.0722L209.351 87.5733L209.413 84.6041L195.886 82.1854ZM195.886 86.6327V89.5238L225.915 94.851L225.981 91.8818L195.886 86.6327ZM195.886 91.0843V93.9754L225.915 99.2982L225.981 96.329L195.886 91.0843ZM195.886 95.5358V98.4226L225.915 103.75L225.981 100.781L195.886 95.5358ZM195.886 99.9831V102.874L225.915 108.201L225.981 105.232L195.886 99.9831Z" fill="white"/>
</g>
<g opacity="0.6">
<path opacity="0.56" d="M195.886 106.693V109.584L225.915 114.911L225.981 111.942L195.886 106.693ZM195.886 111.144V114.036L225.915 119.358L225.981 116.389L195.886 111.144ZM195.886 115.596V118.483L225.915 123.81L225.981 120.841L195.886 115.596ZM195.886 120.043V122.934L225.915 128.262L225.981 125.292L195.886 120.043ZM195.886 124.495V127.386L209.351 129.883L209.413 126.914L195.886 124.495ZM195.886 128.946V131.833L225.915 137.16L225.981 134.191L195.886 128.946ZM195.886 133.394V136.285L225.915 141.612L225.981 138.643L195.886 133.394ZM195.886 137.845V140.736L225.915 146.059L225.981 143.09L195.886 137.845ZM195.886 142.297V145.184L225.915 150.511L225.981 147.542L195.886 142.297Z" fill="white"/>
</g>
<path d="M58.5784 124.465C64.0944 124.465 68.5659 117.071 68.5659 107.95C68.5659 98.8292 64.0944 91.4353 58.5784 91.4353C53.0624 91.4353 48.5908 98.8292 48.5908 107.95C48.5908 117.071 53.0624 124.465 58.5784 124.465Z" fill="#1AAC92"/>
<path d="M60.0883 162.444C65.6042 162.444 70.0758 155.05 70.0758 145.929C70.0758 136.808 65.6042 129.415 60.0883 129.415C54.5723 129.415 50.1007 136.808 50.1007 145.929C50.1007 155.05 54.5723 162.444 60.0883 162.444Z" fill="url(#paint24_linear_10_4)"/>
<path d="M155.558 124.217L155.219 139.865L161.949 139.518L162.292 123.884L155.558 124.217Z" fill="#30E3CA"/>
<path d="M149.29 116.745L155.558 124.217L155.219 139.865L148.669 131.859L149.29 116.745Z" fill="#00CCB0"/>
<path d="M149.289 116.745L155.905 116.359L162.292 123.884L155.558 124.217L149.289 116.745Z" fill="#00FFDB"/>
<path d="M169.661 109.939L169.023 139.085L175.753 138.743L176.391 109.606L169.661 109.939Z" fill="#1AAC92"/>
<path d="M163.388 102.467L169.661 109.939L169.023 139.085L162.473 131.083L163.388 102.467Z" fill="#1AAC92"/>
<path d="M163.388 102.467L170.009 102.081L176.391 109.606L169.661 109.94L163.388 102.467Z" fill="#1AAC92"/>
<path d="M183.76 90.6551L182.703 139.12L189.438 138.777L190.494 90.3214L183.76 90.6551Z" fill="#5691DD"/>
<path d="M177.492 83.1824L183.76 90.6551L182.703 139.12L176.153 131.114L177.492 83.1824Z" fill="#2B68B5"/>
<path d="M177.492 83.1824L184.107 82.7966L190.494 90.3214L183.76 90.6551L177.492 83.1824Z" fill="#0061DD"/>
<path d="M70.6964 233.192L70.9121 143.077C70.9121 143.077 62.5356 140.472 50.6289 129.618C38.7221 118.765 38.5021 105.085 38.5021 105.085L37.6217 196.049C37.6217 196.049 38.0355 206.119 47.5432 219.495C53.0102 227.184 62.3419 231.931 67.3247 234.046L70.6964 233.192Z" fill="url(#paint25_linear_10_4)"/>
<g opacity="0.8">
<path opacity="0.56" d="M40.6017 133.944V136.831L62.9009 152.96L62.9493 150.017L40.6017 133.944ZM40.6017 138.391V141.283L62.9009 157.411L62.9493 154.464L40.6017 138.391ZM40.6017 142.843V145.734L62.9009 161.863L62.9493 158.915L40.6017 142.843ZM40.6017 147.295V150.181L62.9009 166.31L62.9493 163.367L40.6017 147.295ZM40.6017 151.742V154.633L50.598 161.976L50.6465 159.028L40.6017 151.742ZM40.6017 156.193V159.085L62.9009 175.213L62.9493 172.266L40.6017 156.193ZM40.6017 160.645V163.532L62.9009 179.661L62.9493 176.717L40.6017 160.645ZM40.6017 165.092V167.983L62.9009 184.112L62.9493 181.165L40.6017 165.092ZM40.6017 169.544V172.435L62.9009 188.564L62.9493 185.616L40.6017 169.544ZM40.6017 182.669V185.56L62.9009 201.689L62.9493 198.741L40.6017 182.669ZM40.6017 187.12V190.007L62.9009 206.136L62.9493 203.193L40.6017 187.12ZM40.6017 191.568V194.459L62.9009 210.588L62.9493 207.64L40.6017 191.568ZM40.6017 196.019V198.91L62.9009 215.039L62.9493 212.092L40.6017 196.019Z" fill="white"/>
</g>
<path d="M38.5021 105.085L38.3876 116.974C42.741 126.363 52.0507 139.861 70.9033 146.055L70.9121 143.077C70.9121 143.077 62.5356 140.472 50.6289 129.618C38.7266 118.765 38.5021 105.085 38.5021 105.085Z" fill="url(#paint26_linear_10_4)"/>
<path d="M70.9122 143.077L67.5713 145.019V233.929L70.9254 233.27L70.9122 143.077Z" fill="url(#paint27_linear_10_4)"/>
<path d="M268.647 77.01V169.496L272.442 167.533V75.7356L268.647 77.01Z" fill="url(#paint28_linear_10_4)"/>
<path d="M304.605 74.5826C305.993 74.5826 307.119 73.4745 307.119 72.1076C307.119 70.7407 305.993 69.6326 304.605 69.6326C303.217 69.6326 302.092 70.7407 302.092 72.1076C302.092 73.4745 303.217 74.5826 304.605 74.5826Z" fill="#D9D9D9"/>
<path d="M78.9629 56.7677C80.351 56.7677 81.4763 55.6596 81.4763 54.2926C81.4763 52.9257 80.351 51.8176 78.9629 51.8176C77.5747 51.8176 76.4495 52.9257 76.4495 54.2926C76.4495 55.6596 77.5747 56.7677 78.9629 56.7677Z" fill="#D9D9D9"/>
<path d="M252.431 41.0376C258.44 46.9803 268.194 47.0063 274.233 41.094C280.268 35.1816 280.294 25.572 274.29 19.6293C268.286 13.6866 258.528 13.6606 252.493 19.573C246.449 25.4853 246.427 35.0949 252.431 41.0376Z" fill="url(#paint29_linear_10_4)"/>
<path d="M117.659 34.9909C120.712 34.9909 123.187 32.5535 123.187 29.5467C123.187 26.54 120.712 24.1025 117.659 24.1025C114.605 24.1025 112.13 26.54 112.13 29.5467C112.13 32.5535 114.605 34.9909 117.659 34.9909Z" fill="url(#paint30_linear_10_4)"/>
<path opacity="0.6" d="M28.9018 88.5138C31.1918 88.5138 33.0482 86.6858 33.0482 84.4307C33.0482 82.1756 31.1918 80.3476 28.9018 80.3476C26.6117 80.3476 24.7553 82.1756 24.7553 84.4307C24.7553 86.6858 26.6117 88.5138 28.9018 88.5138Z" fill="url(#paint31_linear_10_4)"/>
<path d="M189.521 34.9909C190.91 34.9909 192.035 33.8828 192.035 32.5159C192.035 31.149 190.91 30.0409 189.521 30.0409C188.133 30.0409 187.008 31.149 187.008 32.5159C187.008 33.8828 188.133 34.9909 189.521 34.9909Z" fill="#1256AE"/>
<path d="M152.336 31.1332L152.864 32.1908L154.048 32.3598L153.19 33.1791L153.392 34.3407L152.336 33.7946L151.279 34.3407L151.477 33.1791L150.623 32.3598L151.807 32.1908L152.336 31.1332Z" fill="white"/>
<path opacity="0.4" d="M45.4877 58.0117L46.0159 59.0693L47.1999 59.2383L46.3416 60.0619L46.5441 61.2192L45.4877 60.6731L44.4268 61.2192L44.6293 60.0619L43.7754 59.2383L44.9595 59.0693L45.4877 58.0117Z" fill="white"/>
<path d="M26.6394 121.114L27.1676 122.172L28.3517 122.341L27.4977 123.164L27.6958 124.322L26.6394 123.775L25.583 124.322L25.7855 123.164L24.9271 122.341L26.1112 122.172L26.6394 121.114ZM327.89 99.7793L328.419 100.837L329.603 101.006L328.749 101.83L328.947 102.987L327.89 102.441L326.834 102.987L327.036 101.83L326.178 101.006L327.362 100.837L327.89 99.7793ZM311.287 43.3349L311.815 44.3925L312.999 44.5616L312.145 45.3852L312.348 46.5425L311.287 45.9963L310.231 46.5425L310.433 45.3852L309.575 44.5616L310.759 44.3925L311.287 43.3349Z" fill="white"/>
<path d="M285.167 158.205V162.717L293.187 167.368V162.717L285.167 158.205Z" fill="#5691DD"/>
<path d="M285.167 158.205L293.187 153.554L301.282 158.157L293.187 162.717L285.167 158.205Z" fill="#0061DD"/>
<path d="M301.282 158.157V162.717L293.187 167.368V162.717L301.282 158.157Z" fill="#2B68B5"/>
<path d="M273.062 165.114V169.622L281.078 174.273V169.622L273.062 165.114Z" fill="#5691DD"/>
<path d="M273.062 165.114L281.078 160.463L289.177 165.066L281.078 169.622L273.062 165.114Z" fill="#0061DD"/>
<path d="M289.177 165.066V169.622L281.078 174.273V169.622L289.177 165.066Z" fill="#2B68B5"/>
<path d="M297.298 165.114V169.622L305.314 174.273V169.622L297.298 165.114Z" fill="#5691DD"/>
<path d="M297.298 165.114L305.314 160.463L313.413 165.066L305.314 169.622L297.298 165.114Z" fill="#0061DD"/>
<path d="M313.413 165.066V169.622L305.314 174.273V169.622L313.413 165.066Z" fill="#2B68B5"/>
<path d="M285.189 172.019V176.531L293.205 181.182V176.531L285.189 172.019Z" fill="#5691DD"/>
<path d="M285.189 172.019L293.205 167.368L301.304 171.971L293.205 176.531L285.189 172.019Z" fill="#0061DD"/>
<path d="M301.304 171.971V176.531L293.205 181.182V176.531L301.304 171.971Z" fill="#2B68B5"/>
<path opacity="0.73" d="M273.502 163.853L273.093 30.1926C273.093 30.1926 285.229 32.2255 288.922 33.9029C296.022 37.1322 314.174 54.3143 314.174 54.3143L313.752 163.853L293.627 175.296L273.502 163.853Z" fill="url(#paint32_linear_10_4)"/>
<path d="M81.2122 224.762V229.274L89.2277 233.925V229.274L81.2122 224.762Z" fill="#5691DD"/>
<path d="M81.2122 224.762L89.2277 220.111L97.3269 224.718L89.2277 229.274L81.2122 224.762Z" fill="#0061DD"/>
<path d="M97.327 224.718V229.274L89.2278 233.925V229.274L97.327 224.718Z" fill="#2B68B5"/>
<path d="M69.103 231.671V236.179L77.1185 240.834V236.179L69.103 231.671Z" fill="#5691DD"/>
<path d="M69.103 231.671L77.1185 227.02L85.2178 231.623L77.1185 236.179L69.103 231.671Z" fill="#0061DD"/>
<path d="M85.2179 231.623V236.179L77.1187 240.834V236.179L85.2179 231.623Z" fill="#2B68B5"/>
<path d="M93.3391 231.671V236.179L101.355 240.834V236.179L93.3391 231.671Z" fill="#5691DD"/>
<path d="M93.3391 231.671L101.355 227.02L109.454 231.623L101.355 236.179L93.3391 231.671Z" fill="#0061DD"/>
<path d="M109.454 231.623V236.179L101.355 240.834V236.179L109.454 231.623Z" fill="#2B68B5"/>
<path d="M81.2298 238.576V243.088L89.2454 247.739V243.088L81.2298 238.576Z" fill="#5691DD"/>
<path d="M81.2298 238.576L89.2454 233.925L97.3446 238.528L89.2454 243.088L81.2298 238.576Z" fill="#0061DD"/>
<path d="M97.3447 238.528V243.088L89.2455 247.739V243.088L97.3447 238.528Z" fill="#2B68B5"/>
<path opacity="0.73" d="M69.103 231.71L68.6937 27.6482C68.6937 27.6482 80.5564 24.4537 84.5223 23.5651C101.077 19.8547 109.775 17.9995 109.775 17.9995L109.353 231.714L89.2278 243.157L69.103 231.71Z" fill="url(#paint33_linear_10_4)"/>
<g opacity="0.5">
<path d="M89.9012 205.915C88.5278 205.828 87.489 204.654 87.577 203.297C87.6607 201.94 88.8403 200.9 90.2137 200.987C91.5738 201.073 92.6126 202.252 92.529 203.605C92.441 204.966 91.2657 206.002 89.9012 205.915Z" fill="url(#paint34_radial_10_4)"/>
<path d="M90.2183 220.821C88.977 220.743 88.0394 219.681 88.1142 218.45C88.1935 217.219 89.2587 216.279 90.5 216.357C91.7369 216.435 92.6744 217.497 92.5996 218.728C92.5204 219.963 91.4552 220.899 90.2183 220.821Z" fill="url(#paint35_radial_10_4)"/>
<path d="M84.9449 215.646C84.1702 215.598 83.5759 214.935 83.6243 214.164C83.6728 213.388 84.3418 212.803 85.1209 212.85C85.8956 212.898 86.4899 213.561 86.4371 214.337C86.3886 215.109 85.7196 215.694 84.9449 215.646Z" fill="url(#paint36_radial_10_4)"/>
<path d="M82.5327 195.408C81.2958 195.33 80.3494 194.268 80.4286 193.037C80.5079 191.806 81.5731 190.865 82.8144 190.943C84.0513 191.021 84.9889 192.083 84.914 193.314C84.8348 194.55 83.7696 195.486 82.5327 195.408Z" fill="url(#paint37_radial_10_4)"/>
<path d="M81.9693 204.315C81.1946 204.268 80.6048 203.605 80.6532 202.833C80.7016 202.062 81.3707 201.472 82.1454 201.52C82.9201 201.567 83.5143 202.235 83.4659 203.006C83.4131 203.778 82.744 204.363 81.9693 204.315Z" fill="url(#paint38_radial_10_4)"/>
<path d="M72.8138 193.878C72.0391 193.83 71.4448 193.167 71.4932 192.391C71.504 192.208 71.5512 192.029 71.6323 191.865C71.7133 191.7 71.8266 191.552 71.9657 191.431C72.1047 191.309 72.2667 191.216 72.4425 191.156C72.6182 191.096 72.8042 191.071 72.9898 191.082C73.7645 191.13 74.3588 191.793 74.306 192.569C74.2575 193.34 73.5885 193.926 72.8138 193.878Z" fill="url(#paint39_radial_10_4)"/>
<path d="M77.5544 183.306C76.7797 183.258 76.1898 182.595 76.2383 181.819C76.2867 181.048 76.9557 180.458 77.7304 180.51C78.5052 180.558 79.0994 181.225 79.0466 181.997C79.0366 182.18 78.9901 182.359 78.9095 182.523C78.829 182.688 78.7161 182.836 78.5774 182.958C78.4387 183.079 78.2769 183.173 78.1013 183.232C77.9257 183.292 77.7398 183.317 77.5544 183.306Z" fill="url(#paint40_radial_10_4)"/>
<path d="M91.3538 187.298C90.1169 187.22 89.1749 186.158 89.2498 184.927C89.329 183.696 90.3986 182.76 91.6355 182.833C92.8724 182.912 93.81 183.973 93.7352 185.204C93.6559 186.44 92.5907 187.376 91.3538 187.298Z" fill="url(#paint41_radial_10_4)"/>
<path d="M95.2362 192.565C94.4615 192.517 93.8717 191.854 93.9201 191.078C93.9685 190.306 94.6376 189.717 95.4123 189.764C96.187 189.812 96.7812 190.48 96.7328 191.251C96.6844 192.027 96.0109 192.612 95.2362 192.565Z" fill="url(#paint42_radial_10_4)"/>
<path d="M86.0805 182.127C85.3058 182.079 84.7116 181.412 84.76 180.64C84.8084 179.864 85.4819 179.279 86.2566 179.327C87.0313 179.375 87.6212 180.038 87.5727 180.814C87.5243 181.589 86.8553 182.175 86.0805 182.127Z" fill="url(#paint43_radial_10_4)"/>
<path d="M94.4131 221.077C90.6716 220.843 87.8325 217.64 88.0702 213.917C88.3035 210.197 91.5255 207.367 95.2626 207.601C98.9997 207.835 101.839 211.043 101.606 214.762C101.372 218.481 98.1546 221.307 94.4131 221.077Z" fill="url(#paint44_radial_10_4)"/>
<path d="M101.958 223.604C98.2205 223.37 95.377 220.163 95.6147 216.444C95.848 212.724 99.0701 209.894 102.807 210.128C106.544 210.362 109.388 213.565 109.15 217.289C108.917 221.008 105.695 223.838 101.958 223.604Z" fill="url(#paint45_radial_10_4)"/>
<path d="M101.002 214.597C97.2654 214.363 94.4262 211.155 94.6595 207.436C94.8928 203.717 98.1149 200.887 101.852 201.121C105.589 201.355 108.428 204.558 108.195 208.282C107.957 212.001 104.74 214.827 101.002 214.597Z" fill="url(#paint46_radial_10_4)"/>
<path d="M85.4467 203.852C83.0873 203.704 81.2914 201.68 81.4411 199.331C81.5907 196.986 83.6244 195.196 85.9837 195.347C88.343 195.495 90.1389 197.523 89.9893 199.864C89.8396 202.213 87.8104 203.999 85.4467 203.852Z" fill="url(#paint47_radial_10_4)"/>
<path d="M99.6741 177.715C95.937 177.481 93.0934 174.273 93.3311 170.554C93.5644 166.835 96.7865 164.005 100.524 164.239C104.261 164.473 107.1 167.68 106.867 171.399C106.633 175.118 103.411 177.949 99.6741 177.715Z" fill="url(#paint48_radial_10_4)"/>
<path d="M83.0609 215.143C79.3238 214.909 76.4803 211.702 76.718 207.983C76.9513 204.263 80.1734 201.433 83.9104 201.667C87.6475 201.901 90.4866 205.109 90.2533 208.828C90.0156 212.547 86.798 215.373 83.0609 215.143Z" fill="url(#paint49_radial_10_4)"/>
<path d="M89.175 179.877C87.1062 179.747 85.5348 177.974 85.6624 175.916C85.7945 173.861 87.5772 172.296 89.646 172.422C91.7104 172.552 93.2862 174.325 93.1542 176.384C93.0265 178.443 91.2438 180.007 89.175 179.877Z" fill="url(#paint50_radial_10_4)"/>
<path d="M84.1437 184.39C83.3646 184.342 82.7792 183.674 82.8276 182.903C82.876 182.127 83.5451 181.542 84.3198 181.589C85.0945 181.637 85.6844 182.3 85.6359 183.076C85.5875 183.852 84.9185 184.437 84.1437 184.39Z" fill="url(#paint51_radial_10_4)"/>
<path d="M78.3907 204.892C77.616 204.844 77.0262 204.181 77.0746 203.41C77.123 202.634 77.7921 202.049 78.5668 202.101C79.3415 202.148 79.9358 202.811 79.8873 203.587C79.8761 203.77 79.8285 203.948 79.7472 204.113C79.6659 204.277 79.5525 204.424 79.4135 204.545C79.2746 204.666 79.1127 204.759 78.9372 204.819C78.7617 204.878 78.576 204.903 78.3907 204.892Z" fill="url(#paint52_radial_10_4)"/>
</g>
<path d="M85.9396 160.935C84.5663 160.849 83.5275 159.674 83.6155 158.317C83.6991 156.961 84.8788 155.92 86.2521 156.007C87.6123 156.094 88.6511 157.273 88.5675 158.625C88.4794 159.982 87.3042 161.018 85.9396 160.935Z" fill="url(#paint53_radial_10_4)"/>
<path d="M86.2566 175.842C85.0153 175.764 84.0777 174.702 84.1526 173.471C84.2318 172.24 85.297 171.299 86.5383 171.377C87.7752 171.455 88.7128 172.517 88.6379 173.748C88.5587 174.979 87.4935 175.916 86.2566 175.842Z" fill="url(#paint54_radial_10_4)"/>
<path d="M80.9833 170.666C80.2086 170.619 79.6144 169.956 79.6628 169.184C79.7112 168.408 80.3803 167.823 81.1594 167.871C81.9341 167.918 82.5283 168.582 82.4755 169.357C82.4271 170.129 81.758 170.714 80.9833 170.666Z" fill="url(#paint55_radial_10_4)"/>
<path d="M78.5711 150.424C77.3342 150.346 76.3879 149.284 76.4671 148.053C76.5463 146.822 77.6116 145.882 78.8528 145.96C80.0897 146.038 81.0273 147.1 80.9525 148.331C80.8732 149.566 79.808 150.502 78.5711 150.424Z" fill="url(#paint56_radial_10_4)"/>
<path d="M78.0077 159.332C77.233 159.284 76.6432 158.621 76.6916 157.845C76.74 157.073 77.4091 156.484 78.1838 156.536C78.9585 156.583 79.5528 157.251 79.5043 158.023C79.4515 158.794 78.7825 159.379 78.0077 159.332Z" fill="url(#paint57_radial_10_4)"/>
<path d="M68.8522 148.894C68.0774 148.846 67.4832 148.183 67.5316 147.407C67.5424 147.224 67.5896 147.046 67.6707 146.881C67.7517 146.716 67.865 146.569 68.0041 146.447C68.1431 146.325 68.3051 146.232 68.4809 146.172C68.6566 146.112 68.8426 146.087 69.0282 146.098C69.8029 146.146 70.3972 146.809 70.3443 147.585C70.2959 148.357 69.6269 148.942 68.8522 148.894Z" fill="url(#paint58_radial_10_4)"/>
<path d="M73.5928 138.322C72.8181 138.274 72.2283 137.611 72.2767 136.835C72.3251 136.064 72.9942 135.474 73.7689 135.522C74.5436 135.57 75.1378 136.237 75.085 137.009C75.0756 137.192 75.0294 137.371 74.9491 137.537C74.8688 137.702 74.756 137.85 74.6172 137.972C74.4785 138.094 74.3165 138.188 74.1406 138.248C73.9648 138.308 73.7786 138.333 73.5928 138.322Z" fill="url(#paint59_radial_10_4)"/>
<path d="M87.3923 142.319C86.1554 142.24 85.2134 141.179 85.2882 139.948C85.3675 138.717 86.4371 137.78 87.674 137.854C88.9109 137.932 89.8484 138.994 89.7736 140.225C89.6944 141.46 88.6291 142.397 87.3923 142.319Z" fill="url(#paint60_radial_10_4)"/>
<path d="M91.2745 147.581C90.4998 147.533 89.91 146.87 89.9584 146.094C90.0068 145.322 90.6759 144.733 91.4506 144.781C92.2253 144.828 92.8195 145.496 92.7711 146.267C92.7227 147.043 92.0492 147.628 91.2745 147.581Z" fill="url(#paint61_radial_10_4)"/>
<path d="M82.119 137.143C81.3443 137.095 80.7501 136.428 80.7985 135.661C80.8469 134.885 81.5204 134.3 82.2951 134.347C83.0698 134.395 83.6596 135.058 83.6112 135.834C83.5628 136.606 82.8937 137.191 82.119 137.143Z" fill="url(#paint62_radial_10_4)"/>
<path d="M90.8916 176.093C87.1501 175.859 84.311 172.656 84.5487 168.933C84.782 165.214 88.0041 162.383 91.7411 162.617C95.4782 162.851 98.3173 166.059 98.0841 169.778C97.8508 173.497 94.6331 176.327 90.8916 176.093Z" fill="url(#paint63_radial_10_4)"/>
<path d="M98.4363 178.625C94.6992 178.391 91.8557 175.183 92.0934 171.464C92.3267 167.745 95.5488 164.914 99.2859 165.149C103.023 165.383 105.866 168.59 105.629 172.309C105.395 176.028 102.173 178.854 98.4363 178.625Z" fill="url(#paint64_radial_10_4)"/>
<path d="M97.4811 169.613C93.744 169.379 90.9049 166.172 91.1382 162.452C91.3715 158.733 94.5935 155.903 98.3306 156.137C102.068 156.371 104.907 159.574 104.674 163.298C104.436 167.017 101.218 169.847 97.4811 169.613Z" fill="url(#paint65_radial_10_4)"/>
<path d="M81.3927 158.868C79.0333 158.72 77.2374 156.696 77.3871 154.347C77.5367 152.002 79.5703 150.212 81.9297 150.363C84.289 150.511 86.0849 152.539 85.9353 154.88C85.7856 157.229 83.7564 159.015 81.3927 158.868Z" fill="url(#paint66_radial_10_4)"/>
<path d="M75.9046 150.407C72.1675 150.173 69.324 146.966 69.5617 143.247C69.795 139.528 73.017 136.697 76.7541 136.931C80.4912 137.165 83.3303 140.373 83.097 144.092C82.8637 147.811 79.6417 150.641 75.9046 150.407ZM78.5456 173.38C74.8086 173.146 71.965 169.939 72.2027 166.22C72.436 162.501 75.6581 159.67 79.3952 159.904C83.1322 160.138 85.9714 163.346 85.7381 167.065C85.5004 170.784 82.2827 173.614 78.5456 173.38Z" fill="url(#paint67_radial_10_4)"/>
<path d="M85.1209 134.898C83.0521 134.768 81.4807 132.995 81.6083 130.936C81.7404 128.881 83.5231 127.317 85.5919 127.442C87.6563 127.572 89.2322 129.345 89.1001 131.404C88.9724 133.459 87.1897 135.028 85.1209 134.898Z" fill="url(#paint68_radial_10_4)"/>
<path d="M80.0898 139.406C79.3107 139.358 78.7253 138.691 78.7737 137.919C78.8221 137.143 79.4912 136.558 80.2659 136.606C81.0406 136.653 81.6304 137.316 81.582 138.092C81.5336 138.868 80.8645 139.458 80.0898 139.406Z" fill="url(#paint69_radial_10_4)"/>
<path d="M74.8693 159.912C74.0945 159.865 73.5047 159.202 73.5531 158.43C73.6016 157.654 74.2706 157.069 75.0453 157.121C75.82 157.169 76.4143 157.832 76.3658 158.608C76.3424 158.976 76.1717 159.32 75.8912 159.564C75.6107 159.809 75.2432 159.934 74.8693 159.912Z" fill="url(#paint70_radial_10_4)"/>
<path d="M81.9913 206.938L98.5506 185.538L82.6955 165.647L95.9932 139.393" stroke="white" stroke-width="0.857635"/>
<path d="M80.3407 198.984L76.5904 203.969L79.0642 209.656L82.8321 204.649L80.3407 198.984Z" fill="#30E3CA"/>
<path d="M89.1265 205.356L82.832 204.649L79.0641 209.656L85.3806 210.427L89.1265 205.356Z" fill="#00CCB0"/>
<path d="M86.6044 199.639L80.3407 198.984L82.8321 204.649L89.1266 205.356L86.6044 199.639Z" fill="#00FFDB"/>
<path d="M92.375 186.583L96.4026 191.355L102.6 190.332L98.5506 185.538L92.375 186.583Z" fill="#30E3CA"/>
<path d="M100.747 179.691L98.5507 185.538L102.6 190.332L104.858 184.472L100.747 179.691Z" fill="#00CCB0"/>
<path d="M94.5054 180.744L92.375 186.583L98.5506 185.538L100.747 179.691L94.5054 180.744Z" fill="#00FFDB"/>
<path d="M85.121 159.956L78.8705 160.74L76.4143 166.436L82.6956 165.647L85.121 159.956Z" fill="#27FFD9"/>
<path d="M86.5295 170.61L82.6956 165.647L76.4143 166.436L80.2218 171.455L86.5295 170.61Z" fill="#1AAC92"/>
<path d="M88.9769 164.862L85.121 159.956L82.6956 165.647L86.5295 170.61L88.9769 164.862Z" fill="#1AC7A8"/>
<path d="M98.4186 133.701L92.1681 134.486L89.712 140.182L95.9933 139.393L98.4186 133.701Z" fill="#0061DD"/>
<path d="M99.8271 144.36L95.9932 139.393L89.7119 140.182L93.5194 145.205L99.8271 144.36Z" fill="#2B68B5"/>
<path d="M102.275 138.608L98.4186 133.701L95.9932 139.393L99.8271 144.36L102.275 138.608Z" fill="#5691DD"/>
<path opacity="0.2" d="M128.491 113.893C128.491 117.235 125.74 119.944 122.347 119.944C118.953 119.944 116.202 117.235 116.202 113.893C116.202 110.551 118.953 107.842 122.347 107.842C125.74 107.842 128.491 110.551 128.491 113.893Z" fill="white"/>
<path opacity="0.3" d="M126.607 113.893C126.607 116.207 124.701 118.088 122.347 118.088C119.996 118.088 118.086 116.212 118.086 113.893C118.086 111.578 119.992 109.697 122.347 109.697C124.697 109.697 126.607 111.578 126.607 113.893Z" fill="white"/>
<path d="M201.406 157.312C201.406 157.312 216.064 168.035 219.973 169.548C223.882 171.061 225.277 170.783 230.163 172.023C235.049 173.258 245.38 174.771 251.102 176.696C256.824 178.62 261.292 181.095 261.292 181.095C261.292 181.095 258.919 177.108 259.338 175.46C259.756 173.813 259.756 172.847 259.756 172.847C259.756 172.847 257.102 172.574 253.474 170.233C249.843 167.897 243.144 162.396 235.049 160.749C226.954 159.098 223.741 159.648 223.741 159.648L207.41 143.701L201.406 157.312Z" fill="url(#paint71_linear_10_4)"/>
<path d="M259.756 172.842L262.921 171.607C262.921 171.607 265.342 170.142 267.666 171.975C269.994 173.809 271.667 177.749 272.6 178.664C273.529 179.578 276.227 180.129 277.719 183.523C279.207 186.912 278.463 190.306 277.534 192.135C276.606 193.969 275.303 194.242 274.744 194.06C274.185 193.878 268.788 187.185 267.204 185.902C265.623 184.619 261.292 181.091 261.292 181.091C261.292 181.091 258.735 177.563 259.338 175.456C259.945 173.35 259.756 172.842 259.756 172.842Z" fill="#1AAC92"/>
<path d="M272.6 178.664C271.671 177.749 269.994 173.805 267.666 171.975C265.337 170.142 262.921 171.607 262.921 171.607L262.428 171.802C261.908 172.474 261.261 173.601 261.433 174.906C261.71 177.012 263.572 179.123 265.716 181.139C267.855 183.154 270.553 185.811 271.486 187.463C272.076 188.507 273.225 191.42 274.246 193.631C274.488 193.878 274.664 194.034 274.744 194.06C275.303 194.242 276.606 193.969 277.534 192.135C278.463 190.302 279.211 186.912 277.719 183.523C276.231 180.129 273.533 179.578 272.6 178.664Z" fill="black"/>
<path d="M201.873 158.686L208.572 168.859C208.572 168.859 217.226 183.341 217.134 184.897C217.041 186.453 213.784 190.67 210.804 189.205C207.824 187.74 205.777 184.715 203.73 182.608C201.684 180.501 187.91 167.671 187.91 167.671L201.873 158.686Z" fill="url(#paint72_linear_10_4)"/>
<path d="M220.765 152.271C220.765 152.271 218.996 149.683 218.648 149.063C218.3 148.443 216.764 145.145 218.996 143.359C221.227 141.573 224.229 142.054 226.325 142.327C228.42 142.6 229.256 143.498 229.886 143.151C230.515 142.808 231.563 141.088 233.517 140.814C235.471 140.541 240.146 141.296 242.73 143.359C245.314 145.422 242.312 147.962 238.61 148.721C234.912 149.475 231.558 151.95 230.092 152.981C228.627 154.013 227.183 154.837 227.183 154.837C227.183 154.837 226.602 152.362 224.995 151.881C223.393 151.399 220.765 152.271 220.765 152.271Z" fill="#1AAC92"/>
<path d="M242.725 143.359C240.142 141.296 235.467 140.541 233.513 140.814C231.558 141.088 230.511 142.808 229.881 143.151C229.252 143.493 228.415 142.6 226.32 142.327C224.225 142.054 221.223 141.573 218.991 143.359C216.76 145.145 218.291 148.443 218.643 149.063C218.679 149.124 218.727 149.206 218.784 149.301C219.916 149.531 222.068 149.895 223.736 149.752C226.109 149.544 227.504 148.378 230.299 148.517C232.874 148.643 241.097 148.474 243.663 145.318C243.782 144.659 243.513 143.987 242.725 143.359Z" fill="black"/>
<path d="M138.963 101.322C138.963 101.322 139.21 103.897 139.725 105.02C140.244 106.142 141.89 108.002 142.85 109.263C143.809 110.525 143.77 111.569 145.231 110.967C146.693 110.364 149.866 108.089 149.866 108.089L138.963 101.322Z" fill="url(#paint73_linear_10_4)"/>
<path d="M161.284 112.917C161.284 112.917 159.255 122.484 157.996 126.632C156.733 130.78 154.642 134.763 153.198 134.863C151.759 134.958 148.383 134.746 144.016 131.114C139.65 127.481 134.535 124.582 133.377 124.326C132.22 124.07 129.653 124.096 128.478 122.445C127.303 120.793 125.252 118.348 125.472 117.629C125.692 116.909 128.5 115.41 129.332 115.57C130.164 115.73 133.663 117.282 134.702 118.804C135.741 120.325 136.533 121.777 139.174 123.251C141.815 124.725 144.39 124.963 147.199 125.878L150.007 126.792C150.007 126.792 151.913 115.886 153.216 113.923C154.519 111.959 156.007 109.965 158.859 110.46C161.703 110.958 161.284 112.917 161.284 112.917Z" fill="url(#paint74_linear_10_4)"/>
<path d="M172.372 145.764C172.372 145.764 173.35 150.715 176.281 156.211C179.213 161.711 180.749 165.422 181.726 167.207C182.703 168.993 184.239 168.72 187.171 168.031C190.103 167.342 190.521 166.518 192.616 165.833C194.711 165.144 200.015 163.358 201.411 159.921C202.806 156.484 202.529 154.698 204.065 153.458C205.601 152.223 206.856 149.748 207.415 146.584C207.974 143.424 208.533 140.398 208.251 138.335C207.974 136.272 206.019 134.625 206.019 134.625C206.019 134.625 203.365 135.314 199.038 132.973C194.711 130.637 192.057 130.776 188.848 130.225C185.639 129.675 182.426 129.675 182.426 129.675" fill="url(#paint75_linear_10_4)"/>
<path d="M152.085 113.229C152.085 113.229 150.504 120.468 151.156 122.943C151.807 125.418 153.018 130.459 155.531 131.192C158.045 131.924 160.65 131.283 160.65 131.283C160.65 131.283 166.139 136.874 168.468 140.355C170.796 143.836 172.377 145.76 172.377 145.76C172.377 145.76 175.449 146.584 178.517 141.82C181.59 137.056 183.451 129.813 181.774 128.439C180.097 127.065 179.543 127.065 178.61 126.146C177.681 125.232 163.626 114.326 163.626 114.326L152.085 113.229Z" fill="url(#paint76_linear_10_4)"/>
<path d="M157.103 116.914C157.103 116.914 167.667 119.662 172.227 121.266C176.783 122.869 181.114 125.366 181.141 126.935C181.167 128.5 180.731 132.145 176.422 136.662C172.113 141.179 168.582 146.553 168.23 147.793C167.878 149.033 167.759 151.811 165.849 152.99C163.939 154.165 161.011 154.889 160.219 154.611C159.431 154.334 157.996 152.565 158.225 151.672C158.45 150.78 160.386 147.082 162.147 146.046C163.908 145.01 165.572 144.234 167.368 141.46C169.163 138.686 169.577 135.912 170.761 132.921L171.945 129.93C171.945 129.93 159.876 127.239 157.763 125.717C155.646 124.196 153.506 122.466 154.22 119.41C154.937 116.346 157.103 116.914 157.103 116.914Z" fill="url(#paint77_linear_10_4)"/>
<path d="M210.249 188.928C210.249 188.928 206.525 183.705 206.807 178.204C207.085 172.704 207.736 169.405 209.505 166.839C211.275 164.273 215.743 160.242 218.159 156.852C220.58 153.463 220.765 152.271 220.765 152.271C220.765 152.271 223.93 151.261 225.603 152.271C227.28 153.281 227.183 154.837 227.183 154.837C227.183 154.837 220.576 170.142 219.181 174.724C217.785 179.305 217.596 183.796 217.134 185.261C216.672 186.726 214.343 190.943 210.249 188.928Z" fill="url(#paint78_linear_10_4)"/>
<path d="M134.87 124.686C134.87 124.686 133.377 124.322 132.079 124.135C130.78 123.949 129.75 123.585 128.822 123.221C127.893 122.852 127.334 125.236 126.59 125.418C125.846 125.6 126.031 123.862 126.216 123.221C126.401 122.579 127.893 120.928 128.822 119.645C129.75 118.362 128.355 117.078 128.355 117.078C128.355 117.078 123.328 114.881 122.866 113.962C122.399 113.047 123.702 113.138 126.775 114.235C129.847 115.336 131.986 116.433 131.986 116.433C131.986 116.433 133.884 117.408 134.702 118.799" fill="white"/>
<path d="M139.095 82.5668C139.095 82.5668 144.611 77.4131 153.066 81.0151C160.149 84.0319 160.228 88.3448 164.625 91.353C167.654 93.4249 176.677 98.1929 185.921 96.316C195.165 94.4435 204.303 97.4387 211.099 105.904C217.891 114.369 219.995 119.207 219.995 119.207C219.995 119.207 208.85 117.889 201.349 123.914C193.844 129.935 177.201 129.787 167.922 126.315C158.643 122.843 152.675 116.363 150.953 113.52C149.232 110.676 148.004 108.128 145.024 106.91C142.049 105.692 134.095 99.4629 134.319 93.763C134.539 88.0717 135.693 85.4016 139.095 82.5668Z" fill="url(#paint79_linear_10_4)"/>
<path opacity="0.3" d="M185.921 96.3203C176.677 98.1929 167.654 93.4249 164.625 91.3573C160.224 88.3491 160.144 84.0362 153.066 81.0194C144.668 77.4434 139.174 82.4975 139.1 82.5668C147.564 79.5327 151.429 82.3111 155.606 87.4475C162.64 96.1079 169.67 104.435 179.979 103.78C187.77 103.286 196.815 101.305 203.097 105.514C209.378 109.718 211.64 113.186 211.64 113.186C211.64 113.186 202.595 108.483 192.796 108.982C182.998 109.476 173.702 108.24 167.165 104.279C160.633 100.321 156.359 93.8843 156.359 93.8843C156.359 93.8843 159.189 111.474 182.492 111.946C206.864 112.44 204.602 114.174 210.716 119.749C215.738 118.708 219.999 119.211 219.999 119.211C219.999 119.211 217.895 114.374 211.103 105.908C204.303 97.443 195.165 94.4435 185.921 96.3203Z" fill="url(#paint80_linear_10_4)"/>
<g opacity="0.5">
<path d="M294.582 141.33C293.209 141.244 292.17 140.069 292.258 138.712C292.342 137.355 293.522 136.315 294.895 136.402C296.255 136.489 297.294 137.668 297.21 139.02C297.122 140.381 295.947 141.417 294.582 141.33Z" fill="url(#paint81_radial_10_4)"/>
<path d="M294.899 156.237C293.658 156.159 292.72 155.097 292.795 153.866C292.874 152.635 293.94 151.694 295.181 151.772C296.418 151.85 297.355 152.912 297.281 154.143C297.201 155.378 296.136 156.315 294.899 156.237Z" fill="url(#paint82_radial_10_4)"/>
<path d="M289.626 151.061C288.851 151.014 288.257 150.35 288.305 149.579C288.354 148.803 289.023 148.218 289.802 148.266C290.577 148.313 291.171 148.976 291.118 149.752C291.07 150.524 290.401 151.109 289.626 151.061Z" fill="url(#paint83_radial_10_4)"/>
<path d="M287.214 130.823C285.977 130.745 285.031 129.683 285.11 128.452C285.189 127.221 286.254 126.281 287.496 126.359C288.732 126.437 289.67 127.499 289.595 128.73C289.516 129.965 288.451 130.901 287.214 130.823Z" fill="url(#paint84_radial_10_4)"/>
<path d="M286.65 139.731C285.876 139.683 285.286 139.02 285.334 138.248C285.383 137.477 286.052 136.887 286.826 136.935C287.601 136.983 288.195 137.65 288.147 138.422C288.094 139.193 287.425 139.778 286.65 139.731Z" fill="url(#paint85_radial_10_4)"/>
<path d="M277.495 129.293C276.72 129.246 276.126 128.582 276.174 127.806C276.185 127.624 276.232 127.445 276.313 127.28C276.394 127.115 276.508 126.968 276.647 126.846C276.786 126.725 276.948 126.631 277.123 126.571C277.299 126.511 277.485 126.486 277.671 126.497C278.446 126.545 279.04 127.208 278.987 127.984C278.939 128.756 278.27 129.341 277.495 129.293Z" fill="url(#paint86_radial_10_4)"/>
<path d="M282.235 118.721C281.461 118.674 280.871 118.01 280.919 117.234C280.968 116.463 281.637 115.873 282.412 115.925C283.186 115.973 283.78 116.641 283.728 117.412C283.718 117.595 283.671 117.774 283.591 117.939C283.51 118.104 283.397 118.251 283.259 118.373C283.12 118.495 282.958 118.588 282.782 118.648C282.607 118.708 282.421 118.733 282.235 118.721Z" fill="url(#paint87_radial_10_4)"/>
<path d="M296.035 122.713C294.798 122.635 293.856 121.573 293.931 120.342C294.01 119.111 295.08 118.175 296.317 118.249C297.554 118.327 298.491 119.389 298.416 120.62C298.337 121.855 297.272 122.791 296.035 122.713Z" fill="url(#paint88_radial_10_4)"/>
<path d="M299.917 127.98C299.143 127.932 298.553 127.269 298.601 126.493C298.65 125.722 299.319 125.132 300.093 125.18C300.868 125.227 301.462 125.895 301.414 126.666C301.365 127.442 300.692 128.028 299.917 127.98Z" fill="url(#paint89_radial_10_4)"/>
<path d="M290.762 117.542C289.987 117.495 289.393 116.827 289.441 116.056C289.49 115.28 290.163 114.694 290.938 114.742C291.712 114.79 292.302 115.453 292.254 116.229C292.205 117.005 291.536 117.59 290.762 117.542Z" fill="url(#paint90_radial_10_4)"/>
<path d="M299.094 156.492C295.353 156.258 292.514 153.055 292.751 149.332C292.984 145.613 296.207 142.782 299.944 143.016C303.681 143.25 306.52 146.458 306.287 150.177C306.053 153.896 302.836 156.722 299.094 156.492Z" fill="url(#paint91_radial_10_4)"/>
<path d="M306.639 159.02C302.902 158.785 300.058 155.578 300.296 151.859C300.529 148.14 303.751 145.309 307.488 145.543C311.225 145.777 314.069 148.981 313.831 152.704C313.598 156.423 310.376 159.254 306.639 159.02Z" fill="url(#paint92_radial_10_4)"/>
<path d="M305.684 150.012C301.946 149.778 299.107 146.571 299.341 142.852C299.574 139.133 302.796 136.302 306.533 136.536C310.27 136.77 313.109 139.974 312.876 143.697C312.638 147.416 309.421 150.242 305.684 150.012Z" fill="url(#paint93_radial_10_4)"/>
<path d="M290.128 139.267C287.768 139.12 285.973 137.095 286.122 134.746C286.272 132.401 288.305 130.611 290.665 130.763C293.024 130.91 294.82 132.939 294.67 135.279C294.521 137.629 292.492 139.414 290.128 139.267Z" fill="url(#paint94_radial_10_4)"/>
<path d="M304.355 113.13C300.618 112.896 297.775 109.689 298.012 105.969C298.245 102.25 301.468 99.42 305.205 99.654C308.942 99.8881 311.781 103.096 311.548 106.815C311.314 110.534 308.092 113.364 304.355 113.13Z" fill="url(#paint95_radial_10_4)"/>
<path d="M287.742 150.558C284.005 150.324 281.161 147.117 281.399 143.398C281.632 139.679 284.855 136.848 288.592 137.082C292.329 137.316 295.168 140.524 294.935 144.243C294.697 147.962 291.479 150.788 287.742 150.558Z" fill="url(#paint96_radial_10_4)"/>
<path d="M293.856 115.293C291.787 115.163 290.216 113.39 290.344 111.331C290.476 109.276 292.258 107.712 294.327 107.837C296.391 107.967 297.967 109.74 297.835 111.799C297.708 113.858 295.925 115.423 293.856 115.293Z" fill="url(#paint97_radial_10_4)"/>
<path d="M288.825 119.805C288.046 119.757 287.46 119.09 287.509 118.318C287.557 117.542 288.226 116.957 289.001 117.005C289.776 117.052 290.366 117.716 290.317 118.492C290.269 119.267 289.6 119.853 288.825 119.805Z" fill="url(#paint98_radial_10_4)"/>
<path d="M283.072 140.307C282.297 140.26 281.707 139.596 281.756 138.825C281.804 138.049 282.473 137.464 283.248 137.516C284.023 137.564 284.617 138.227 284.568 139.003C284.557 139.185 284.51 139.364 284.428 139.528C284.347 139.692 284.234 139.839 284.095 139.96C283.956 140.081 283.794 140.174 283.618 140.234C283.443 140.294 283.257 140.318 283.072 140.307Z" fill="url(#paint99_radial_10_4)"/>
</g>
<path d="M291.061 93.75C289.688 93.6633 288.649 92.4886 288.737 91.1319C288.82 89.7752 290 88.7349 291.373 88.8216C292.734 88.9083 293.772 90.0873 293.689 91.4396C293.601 92.7964 292.425 93.8323 291.061 93.75Z" fill="url(#paint100_radial_10_4)"/>
<path d="M291.378 108.656C290.137 108.578 289.199 107.517 289.274 106.286C289.353 105.054 290.418 104.114 291.66 104.192C292.897 104.27 293.834 105.332 293.759 106.563C293.68 107.794 292.615 108.73 291.378 108.656Z" fill="url(#paint101_radial_10_4)"/>
<path d="M286.105 103.481C285.33 103.433 284.736 102.77 284.784 101.999C284.832 101.223 285.502 100.638 286.281 100.685C287.055 100.733 287.65 101.396 287.597 102.172C287.548 102.944 286.879 103.529 286.105 103.481Z" fill="url(#paint102_radial_10_4)"/>
<path d="M283.692 83.2387C282.456 83.1607 281.509 82.0987 281.588 80.8677C281.668 79.6367 282.733 78.6961 283.974 78.7741C285.211 78.8522 286.149 79.9141 286.074 81.1451C285.995 82.3805 284.929 83.3167 283.692 83.2387Z" fill="url(#paint103_radial_10_4)"/>
<path d="M283.129 92.1462C282.354 92.0985 281.764 91.4354 281.813 90.6595C281.861 89.8879 282.53 89.2984 283.305 89.3504C284.08 89.3981 284.674 90.0656 284.626 90.8372C284.573 91.6087 283.904 92.1939 283.129 92.1462Z" fill="url(#paint104_radial_10_4)"/>
<path d="M273.973 81.7086C273.199 81.661 272.604 80.9978 272.653 80.2219C272.664 80.0391 272.711 79.8602 272.792 79.6954C272.873 79.5306 272.986 79.3831 273.125 79.2615C273.264 79.1399 273.426 79.0465 273.602 78.9867C273.778 78.9269 273.964 78.9018 274.149 78.9129C274.924 78.9605 275.518 79.6237 275.466 80.3996C275.417 81.1712 274.748 81.7563 273.973 81.7086Z" fill="url(#paint105_radial_10_4)"/>
<path d="M278.714 71.1367C277.939 71.089 277.35 70.4258 277.398 69.6499C277.446 68.8784 278.115 68.2889 278.89 68.3366C279.665 68.3843 280.259 69.0518 280.206 69.8233C280.197 70.0064 280.151 70.1858 280.07 70.3511C279.99 70.5165 279.877 70.6645 279.738 70.7866C279.6 70.9088 279.438 71.0026 279.262 71.0627C279.086 71.1228 278.9 71.1479 278.714 71.1367Z" fill="url(#paint106_radial_10_4)"/>
<path d="M292.514 75.1331C291.277 75.0551 290.335 73.9932 290.409 72.7621C290.489 71.5311 291.558 70.5949 292.795 70.6686C294.032 70.7466 294.97 71.8085 294.895 73.0396C294.816 74.2749 293.75 75.2112 292.514 75.1331Z" fill="url(#paint107_radial_10_4)"/>
<path d="M296.396 80.3953C295.621 80.3476 295.031 79.6844 295.08 78.9085C295.128 78.137 295.797 77.5475 296.572 77.5952C297.347 77.6428 297.941 78.3104 297.892 79.0819C297.844 79.8578 297.171 80.443 296.396 80.3953Z" fill="url(#paint108_radial_10_4)"/>
<path d="M287.24 69.9577C286.466 69.91 285.871 69.2425 285.92 68.4753C285.968 67.6994 286.642 67.1142 287.416 67.1619C288.191 67.2096 288.781 67.8728 288.732 68.6486C288.684 69.4202 288.015 70.0054 287.24 69.9577Z" fill="url(#paint109_radial_10_4)"/>
<path d="M296.013 108.908C292.271 108.674 289.432 105.471 289.67 101.747C289.903 98.0282 293.125 95.1977 296.862 95.4318C300.599 95.6659 303.439 98.8734 303.205 102.592C302.972 106.312 299.754 109.142 296.013 108.908Z" fill="url(#paint110_radial_10_4)"/>
<path d="M303.557 111.439C299.82 111.205 296.977 107.998 297.215 104.279C297.448 100.56 300.67 97.7291 304.407 97.9631C308.144 98.1972 310.988 101.405 310.75 105.124C310.517 108.843 307.295 111.669 303.557 111.439Z" fill="url(#paint111_radial_10_4)"/>
<path d="M302.602 102.428C298.865 102.194 296.026 98.9861 296.259 95.2671C296.493 91.548 299.715 88.7176 303.452 88.9516C307.189 89.1857 310.028 92.3889 309.795 96.1123C309.557 99.8313 306.339 102.662 302.602 102.428Z" fill="url(#paint112_radial_10_4)"/>
<path d="M286.514 91.6824C284.155 91.535 282.359 89.5108 282.508 87.1615C282.658 84.8165 284.692 83.0263 287.051 83.178C289.41 83.3254 291.206 85.354 291.057 87.6946C290.907 90.044 288.878 91.8298 286.514 91.6824Z" fill="url(#paint113_radial_10_4)"/>
<path d="M281.026 83.2218C277.289 82.9878 274.445 79.7802 274.683 76.0612C274.916 72.3421 278.138 69.5117 281.875 69.7457C285.613 69.9798 288.452 73.1874 288.218 76.9064C287.985 80.6254 284.763 83.4559 281.026 83.2218ZM283.667 106.195C279.93 105.961 277.086 102.753 277.324 99.0342C277.557 95.3152 280.779 92.4847 284.517 92.7188C288.254 92.9529 291.093 96.1604 290.859 99.8795C290.622 103.599 287.404 106.429 283.667 106.195Z" fill="url(#paint114_radial_10_4)"/>
<path d="M290.242 67.7124C288.173 67.5824 286.602 65.8095 286.73 63.7506C286.862 61.696 288.644 60.1313 290.713 60.257C292.778 60.387 294.353 62.1598 294.221 64.2188C294.094 66.2733 292.311 67.8424 290.242 67.7124Z" fill="url(#paint115_radial_10_4)"/>
<path d="M285.211 72.2203C284.432 72.1726 283.846 71.5051 283.895 70.7336C283.943 69.9577 284.612 69.3725 285.387 69.4202C286.162 69.4679 286.752 70.1311 286.703 70.907C286.655 71.6828 285.986 72.2723 285.211 72.2203Z" fill="url(#paint116_radial_10_4)"/>
<path d="M279.991 92.727C279.216 92.6794 278.626 92.0162 278.674 91.2446C278.723 90.4687 279.392 89.8836 280.167 89.9356C280.941 89.9833 281.536 90.6465 281.487 91.4223C281.464 91.7905 281.293 92.1346 281.013 92.3791C280.732 92.6236 280.365 92.7487 279.991 92.727Z" fill="url(#paint117_radial_10_4)"/>
<path d="M285.07 140.381L301.63 118.981L285.774 99.0901L299.072 72.8358" stroke="white" stroke-width="0.857635"/>
<path d="M283.42 132.427L279.665 137.412L282.143 143.099L285.911 138.088L283.42 132.427Z" fill="#30E3CA"/>
<path d="M292.201 138.799L285.911 138.088L282.143 143.099L288.46 143.866L292.201 138.799Z" fill="#00CCB0"/>
<path d="M289.683 133.082L283.42 132.427L285.911 138.088L292.201 138.799L289.683 133.082Z" fill="#00FFDB"/>
<path d="M295.454 120.026L299.481 124.798L305.679 123.775L301.63 118.981L295.454 120.026Z" fill="#30E3CA"/>
<path d="M303.826 113.134L301.63 118.981L305.679 123.775L307.937 117.915L303.826 113.134Z" fill="#00CCB0"/>
<path d="M297.584 114.187L295.454 120.026L301.63 118.981L303.826 113.134L297.584 114.187Z" fill="#00FFDB"/>
<path d="M288.2 93.3989L281.949 94.1834L279.493 99.879L285.774 99.0901L288.2 93.3989Z" fill="#00D9B3"/>
<path d="M289.608 104.053L285.774 99.0901L279.493 99.879L283.301 104.898L289.608 104.053Z" fill="#00AC8E"/>
<path d="M292.056 98.3056L288.2 93.3989L285.774 99.0901L289.608 104.053L292.056 98.3056Z" fill="#00FFD2"/>
<path d="M301.498 67.1446L295.247 67.9291L292.791 73.6247L299.072 72.8358L301.498 67.1446Z" fill="#0061DD"/>
<path d="M302.906 77.7989L299.072 72.8358L292.791 73.6247L296.598 78.6484L302.906 77.7989Z" fill="#2B68B5"/>
<path d="M305.353 72.0513L301.498 67.1446L299.072 72.8358L302.906 77.7989L305.353 72.0513Z" fill="#5691DD"/>
</g>
<defs>
<linearGradient id="paint0_linear_10_4" x1="9418.27" y1="5745.91" x2="19724.1" y2="20761.4" gradientUnits="userSpaceOnUse">
<stop stop-color="#00362C"/>
<stop offset="0.5936" stop-color="#008B72"/>
<stop offset="1" stop-color="#24B198"/>
</linearGradient>
<radialGradient id="paint1_radial_10_4" cx="0" cy="0" r="1" gradientUnits="userSpaceOnUse" gradientTransform="translate(9162.38 9010.73) scale(9095.98 8957.12)">
<stop stop-color="#3E77BF"/>
<stop offset="1" stop-color="#3E77BF" stop-opacity="0"/>
</radialGradient>
<linearGradient id="paint2_linear_10_4" x1="1065.72" y1="626.22" x2="2030" y2="2099.09" gradientUnits="userSpaceOnUse">
<stop stop-color="#00362C"/>
<stop offset="0.5936" stop-color="#008B72"/>
<stop offset="1" stop-color="#24B198"/>
</linearGradient>
<linearGradient id="paint3_linear_10_4" x1="1062.18" y1="723.701" x2="1905.76" y2="1706.73" gradientUnits="userSpaceOnUse">
<stop stop-color="#00362C"/>
<stop offset="0.5936" stop-color="#008B72"/>
<stop offset="1" stop-color="#24B198"/>
</linearGradient>
<linearGradient id="paint4_linear_10_4" x1="200.642" y1="1584.94" x2="5254.01" y2="1584.94" gradientUnits="userSpaceOnUse">
<stop stop-color="#08B294"/>
<stop offset="1" stop-color="#0D987F"/>
</linearGradient>
<linearGradient id="paint5_linear_10_4" x1="897.606" y1="358.7" x2="1860.13" y2="2083.45" gradientUnits="userSpaceOnUse">
<stop stop-color="#00362C"/>
<stop offset="0.5936" stop-color="#008B72"/>
<stop offset="1" stop-color="#24B198"/>
</linearGradient>
<linearGradient id="paint6_linear_10_4" x1="1580.7" y1="978.253" x2="3024.72" y2="2197.39" gradientUnits="userSpaceOnUse">
<stop stop-color="#00362C"/>
<stop offset="0.5936" stop-color="#008B72"/>
<stop offset="1" stop-color="#24B198"/>
</linearGradient>
<linearGradient id="paint7_linear_10_4" x1="112.701" y1="1279.89" x2="3102.39" y2="1279.89" gradientUnits="userSpaceOnUse">
<stop stop-color="#3F9C8C"/>
<stop offset="1" stop-color="#19C6A7"/>
</linearGradient>
<linearGradient id="paint8_linear_10_4" x1="110.327" y1="1011.91" x2="3078.22" y2="1011.91" gradientUnits="userSpaceOnUse">
<stop stop-color="#3F9C8C"/>
<stop offset="1" stop-color="#19C6A7"/>
</linearGradient>
<linearGradient id="paint9_linear_10_4" x1="87.4053" y1="1154.15" x2="4845.54" y2="1154.15" gradientUnits="userSpaceOnUse">
<stop stop-color="#3F9C8C"/>
<stop offset="1" stop-color="#19C6A7"/>
</linearGradient>
<linearGradient id="paint10_linear_10_4" x1="116.333" y1="1584.23" x2="5188.83" y2="1584.23" gradientUnits="userSpaceOnUse">
<stop stop-color="#3F9C8C"/>
<stop offset="1" stop-color="#19C6A7"/>
</linearGradient>
<linearGradient id="paint11_linear_10_4" x1="144.627" y1="1240.75" x2="2642.94" y2="1240.75" gradientUnits="userSpaceOnUse">
<stop stop-color="#3F9C8C"/>
<stop offset="1" stop-color="#19C6A7"/>
</linearGradient>
<linearGradient id="paint12_linear_10_4" x1="102.896" y1="1333.57" x2="3102.52" y2="1333.57" gradientUnits="userSpaceOnUse">
<stop stop-color="#1AA68D"/>
<stop offset="1" stop-color="#2DE4C4"/>
</linearGradient>
<linearGradient id="paint13_linear_10_4" x1="100.589" y1="1055.87" x2="3078.34" y2="1055.87" gradientUnits="userSpaceOnUse">
<stop stop-color="#1AA68D"/>
<stop offset="1" stop-color="#2DE4C4"/>
</linearGradient>
<linearGradient id="paint14_linear_10_4" x1="99.6893" y1="1667.37" x2="5189.03" y2="1667.37" gradientUnits="userSpaceOnUse">
<stop stop-color="#1AA68D"/>
<stop offset="1" stop-color="#2DE4C4"/>
</linearGradient>
<linearGradient id="paint15_linear_10_4" x1="136.43" y1="1328.29" x2="2643.04" y2="1328.29" gradientUnits="userSpaceOnUse">
<stop stop-color="#1AA68D"/>
<stop offset="1" stop-color="#2DE4C4"/>
</linearGradient>
<linearGradient id="paint16_linear_10_4" x1="71.7892" y1="1188.93" x2="4845.73" y2="1188.93" gradientUnits="userSpaceOnUse">
<stop stop-color="#1AA68D"/>
<stop offset="1" stop-color="#2DE4C4"/>
</linearGradient>
<linearGradient id="paint17_linear_10_4" x1="263.068" y1="1055.74" x2="3198.84" y2="1055.74" gradientUnits="userSpaceOnUse">
<stop stop-color="#2A87FF"/>
<stop offset="1" stop-color="#24B198"/>
</linearGradient>
<linearGradient id="paint18_linear_10_4" x1="260.867" y1="1333.61" x2="3218.2" y2="1333.61" gradientUnits="userSpaceOnUse">
<stop stop-color="#2A87FF"/>
<stop offset="1" stop-color="#24B198"/>
</linearGradient>
<linearGradient id="paint19_linear_10_4" x1="299.766" y1="1188.79" x2="5006.4" y2="1188.79" gradientUnits="userSpaceOnUse">
<stop stop-color="#2A87FF"/>
<stop offset="1" stop-color="#24B198"/>
</linearGradient>
<linearGradient id="paint20_linear_10_4" x1="225.149" y1="1328.34" x2="2695.99" y2="1328.34" gradientUnits="userSpaceOnUse">
<stop stop-color="#2A87FF"/>
<stop offset="1" stop-color="#24B198"/>
</linearGradient>
<linearGradient id="paint21_linear_10_4" x1="273.253" y1="1666.96" x2="5290.85" y2="1666.96" gradientUnits="userSpaceOnUse">
<stop stop-color="#2A87FF"/>
<stop offset="1" stop-color="#24B198"/>
</linearGradient>
<linearGradient id="paint22_linear_10_4" x1="38.2776" y1="4499.32" x2="23454.9" y2="4499.32" gradientUnits="userSpaceOnUse">
<stop stop-color="#D0D0D0"/>
<stop offset="0.4332" stop-color="white"/>
</linearGradient>
<linearGradient id="paint23_linear_10_4" x1="39.915" y1="7142.58" x2="22913.4" y2="7142.58" gradientUnits="userSpaceOnUse">
<stop stop-color="#31AB95"/>
<stop offset="0.1825" stop-color="#2EB099"/>
<stop offset="0.4069" stop-color="#2668BD"/>
<stop offset="0.6533" stop-color="#196BD4"/>
<stop offset="0.9137" stop-color="#076FF3"/>
<stop offset="1" stop-color="#0070FF"/>
</linearGradient>
<linearGradient id="paint24_linear_10_4" x1="1048.74" y1="203.4" x2="1048.74" y2="4174.67" gradientUnits="userSpaceOnUse">
<stop stop-color="#134139"/>
<stop offset="0.2299" stop-color="#1360C2"/>
<stop offset="0.3479" stop-color="#1864C5"/>
<stop offset="0.4931" stop-color="#276FCC"/>
<stop offset="0.6524" stop-color="#1F70D8"/>
<stop offset="0.8219" stop-color="#1270E9"/>
<stop offset="0.9978" stop-color="#0070FF"/>
<stop offset="1" stop-color="#0070FF"/>
</linearGradient>
<linearGradient id="paint25_linear_10_4" x1="37.6217" y1="6553.28" x2="3366.73" y2="6553.28" gradientUnits="userSpaceOnUse">
<stop stop-color="#338DFF"/>
<stop offset="0.1585" stop-color="#378FFF"/>
<stop offset="0.3535" stop-color="#4396FF"/>
<stop offset="0.5676" stop-color="#4999FF"/>
<stop offset="0.7937" stop-color="#2685FF"/>
<stop offset="1" stop-color="#0070FF"/>
</linearGradient>
<linearGradient id="paint26_linear_10_4" x1="38.5177" y1="2153.71" x2="3290.9" y2="2153.71" gradientUnits="userSpaceOnUse">
<stop stop-color="#D0D0D0"/>
<stop offset="0.4332" stop-color="white"/>
</linearGradient>
<linearGradient id="paint27_linear_10_4" x1="235.294" y1="617.506" x2="235.294" y2="8519.36" gradientUnits="userSpaceOnUse">
<stop stop-color="#D0D0D0"/>
<stop offset="0.4332" stop-color="white"/>
</linearGradient>
<linearGradient id="paint28_linear_10_4" x1="458.18" y1="94.5815" x2="687.423" y2="9706.13" gradientUnits="userSpaceOnUse">
<stop stop-color="#D0D0D0"/>
<stop offset="0.4332" stop-color="white"/>
</linearGradient>
<linearGradient id="paint29_linear_10_4" x1="2080.14" y1="109.411" x2="1490.18" y2="3088.39" gradientUnits="userSpaceOnUse">
<stop stop-color="#88DACF"/>
<stop offset="0.00834" stop-color="#89D9CE"/>
<stop offset="0.4784" stop-color="#CACACA"/>
<stop offset="0.8218" stop-color="#CBCBCB"/>
<stop offset="1" stop-color="#CFCFCF"/>
</linearGradient>
<linearGradient id="paint30_linear_10_4" x1="112.329" y1="568.619" x2="1217.93" y2="568.619" gradientUnits="userSpaceOnUse">
<stop stop-color="#338DFF"/>
<stop offset="0.1585" stop-color="#378FFF"/>
<stop offset="0.3535" stop-color="#4396FF"/>
<stop offset="0.5676" stop-color="#4999FF"/>
<stop offset="0.7937" stop-color="#2685FF"/>
<stop offset="1" stop-color="#0070FF"/>
</linearGradient>
<linearGradient id="paint31_linear_10_4" x1="24.7304" y1="488.473" x2="853.919" y2="488.473" gradientUnits="userSpaceOnUse">
<stop stop-color="#338DFF"/>
<stop offset="0.1585" stop-color="#378FFF"/>
<stop offset="0.3535" stop-color="#4396FF"/>
<stop offset="0.5676" stop-color="#4999FF"/>
<stop offset="0.7937" stop-color="#2685FF"/>
<stop offset="1" stop-color="#0070FF"/>
</linearGradient>
<linearGradient id="paint32_linear_10_4" x1="2327.29" y1="14290.1" x2="2327.29" y2="338.537" gradientUnits="userSpaceOnUse">
<stop stop-color="#1179FF"/>
<stop offset="1" stop-color="#005042" stop-opacity="0"/>
</linearGradient>
<linearGradient id="paint33_linear_10_4" x1="2122.89" y1="22145.2" x2="2122.89" y2="496.461" gradientUnits="userSpaceOnUse">
<stop stop-color="#1179FF"/>
<stop offset="1" stop-color="#005042" stop-opacity="0"/>
</linearGradient>
<radialGradient id="paint34_radial_10_4" cx="0" cy="0" r="1" gradientUnits="userSpaceOnUse" gradientTransform="translate(-252.795 415.189) rotate(93.6481) scale(207.758 215.481)">
<stop stop-color="#00FFD2"/>
<stop offset="0.14427" stop-color="#17FFD6"/>
<stop offset="0.23997" stop-color="#0070FF"/>
<stop offset="1" stop-color="#09FFD4" stop-opacity="0"/>
</radialGradient>
<radialGradient id="paint35_radial_10_4" cx="0" cy="0" r="1" gradientUnits="userSpaceOnUse" gradientTransform="translate(-240.047 393.8) rotate(93.649) scale(188.155 195.243)">
<stop stop-color="#00FFD2"/>
<stop offset="0.14427" stop-color="#17FFD6"/>
<stop offset="0.23997" stop-color="#0070FF"/>
<stop offset="1" stop-color="#09FFD4" stop-opacity="0"/>
</radialGradient>
<radialGradient id="paint36_radial_10_4" cx="0" cy="0" r="1" gradientUnits="userSpaceOnUse" gradientTransform="translate(-134.223 315.06) rotate(93.6482) scale(118.022 122.041)">
<stop stop-color="#00FFD2"/>
<stop offset="0.14427" stop-color="#17FFD6"/>
<stop offset="0.23997" stop-color="#0070FF"/>
<stop offset="1" stop-color="#09FFD4" stop-opacity="0"/>
</radialGradient>
<radialGradient id="paint37_radial_10_4" cx="0" cy="0" r="1" gradientUnits="userSpaceOnUse" gradientTransform="translate(-213.815 387.924) rotate(93.6491) scale(188.175 195.225)">
<stop stop-color="#00FFD2"/>
<stop offset="0.14427" stop-color="#17FFD6"/>
<stop offset="0.23997" stop-color="#0070FF"/>
<stop offset="1" stop-color="#09FFD4" stop-opacity="0"/>
</radialGradient>
<radialGradient id="paint38_radial_10_4" cx="0" cy="0" r="1" gradientUnits="userSpaceOnUse" gradientTransform="translate(-102.242 315.163) rotate(93.6426) scale(138.817 143.591)">
<stop stop-color="#D5D5D5"/>
<stop offset="0.043" stop-color="#B6B6B6"/>
<stop offset="0.1242" stop-color="#7E8180"/>
<stop offset="0.1997" stop-color="#40514E"/>
<stop offset="0.2672" stop-color="#333837"/>
<stop offset="0.3241" stop-color="#202625"/>
<stop offset="0.3636" stop-color="#191F1E"/>
<stop offset="0.994"/>
</radialGradient>
<radialGradient id="paint39_radial_10_4" cx="0" cy="0" r="1" gradientUnits="userSpaceOnUse" gradientTransform="translate(-111.398 304.582) rotate(93.6486) scale(118.023 122.036)">
<stop stop-color="#00FFD2"/>
<stop offset="0.14427" stop-color="#17FFD6"/>
<stop offset="0.23997" stop-color="#0070FF"/>
<stop offset="1" stop-color="#09FFD4" stop-opacity="0"/>
</radialGradient>
<radialGradient id="paint40_radial_10_4" cx="0" cy="0" r="1" gradientUnits="userSpaceOnUse" gradientTransform="translate(-100.984 309.434) rotate(93.6489) scale(117.838 122.268)">
<stop stop-color="#00FFD2"/>
<stop offset="0.14427" stop-color="#17FFD6"/>
<stop offset="0.23997" stop-color="#0070FF"/>
<stop offset="1" stop-color="#09FFD4" stop-opacity="0"/>
</radialGradient>
<radialGradient id="paint41_radial_10_4" cx="0" cy="0" r="1" gradientUnits="userSpaceOnUse" gradientTransform="translate(-206.114 396.977) rotate(93.6491) scale(188.155 195.205)">
<stop stop-color="#00FFD2"/>
<stop offset="0.14427" stop-color="#17FFD6"/>
<stop offset="0.23997" stop-color="#0070FF"/>
<stop offset="1" stop-color="#09FFD4" stop-opacity="0"/>
</radialGradient>
<radialGradient id="paint42_radial_10_4" cx="0" cy="0" r="1" gradientUnits="userSpaceOnUse" gradientTransform="translate(-111.697 326.235) rotate(93.6483) scale(118.004 122.439)">
<stop stop-color="#00FFD2"/>
<stop offset="0.14427" stop-color="#17FFD6"/>
<stop offset="0.23997" stop-color="#0070FF"/>
<stop offset="1" stop-color="#09FFD4" stop-opacity="0"/>
</radialGradient>
<radialGradient id="paint43_radial_10_4" cx="0" cy="0" r="1" gradientUnits="userSpaceOnUse" gradientTransform="translate(-100.551 317.97) rotate(93.6483) scale(118.004 122.44)">
<stop stop-color="#00FFD2"/>
<stop offset="0.14427" stop-color="#17FFD6"/>
<stop offset="0.23997" stop-color="#0070FF"/>
<stop offset="1" stop-color="#09FFD4" stop-opacity="0"/>
</radialGradient>
<radialGradient id="paint44_radial_10_4" cx="0" cy="0" r="1" gradientUnits="userSpaceOnUse" gradientTransform="translate(-796.876 783.735) rotate(93.6487) scale(567.88 589.339)">
<stop stop-color="#00FFD2"/>
<stop offset="0.14427" stop-color="#17FFD6"/>
<stop offset="0.23997" stop-color="#0070FF"/>
<stop offset="1" stop-color="#09FFD4" stop-opacity="0"/>
</radialGradient>
<radialGradient id="paint45_radial_10_4" cx="0" cy="0" r="1" gradientUnits="userSpaceOnUse" gradientTransform="translate(-799.939 790.927) rotate(93.6492) scale(567.9 589.359)">
<stop stop-color="#00FFD2"/>
<stop offset="0.14427" stop-color="#17FFD6"/>
<stop offset="0.23997" stop-color="#0070FF"/>
<stop offset="1" stop-color="#09FFD4" stop-opacity="0"/>
</radialGradient>
<radialGradient id="paint46_radial_10_4" cx="0" cy="0" r="1" gradientUnits="userSpaceOnUse" gradientTransform="translate(-790.715 790.494) rotate(93.6488) scale(515.476 534.99)">
<stop stop-color="#00FFD2"/>
<stop offset="0.14427" stop-color="#17FFD6"/>
<stop offset="0.29107" stop-color="#0070FF"/>
<stop offset="1" stop-color="white" stop-opacity="0"/>
</radialGradient>
<radialGradient id="paint47_radial_10_4" cx="0" cy="0" r="1" gradientUnits="userSpaceOnUse" gradientTransform="translate(-480.248 555.096) rotate(93.6491) scale(358.646 371.683)">
<stop stop-color="#00FFD2"/>
<stop offset="0.14427" stop-color="#17FFD6"/>
<stop offset="0.23997" stop-color="#0070FF"/>
<stop offset="1" stop-color="#09FFD4" stop-opacity="0"/>
</radialGradient>
<radialGradient id="paint48_radial_10_4" cx="0" cy="0" r="1" gradientUnits="userSpaceOnUse" gradientTransform="translate(-753.278 791.485) rotate(93.6488) scale(567.876 589.372)">
<stop stop-color="#00FFD2"/>
<stop offset="0.14427" stop-color="#17FFD6"/>
<stop offset="0.23997" stop-color="#0070FF"/>
<stop offset="1" stop-color="#09FFD4" stop-opacity="0"/>
</radialGradient>
<radialGradient id="paint49_radial_10_4" cx="0" cy="0" r="1" gradientUnits="userSpaceOnUse" gradientTransform="translate(-790.157 773.062) rotate(93.6487) scale(567.88 589.339)">
<stop stop-color="#00FFD2"/>
<stop offset="0.14427" stop-color="#17FFD6"/>
<stop offset="0.23997" stop-color="#0070FF"/>
<stop offset="1" stop-color="#09FFD4" stop-opacity="0"/>
</radialGradient>
<radialGradient id="paint50_radial_10_4" cx="0" cy="0" r="1" gradientUnits="userSpaceOnUse" gradientTransform="translate(-393.097 513.208) rotate(93.6487) scale(314.31 325.876)">
<stop stop-color="#00FFD2"/>
<stop offset="0.14427" stop-color="#17FFD6"/>
<stop offset="0.23997" stop-color="#0070FF"/>
<stop offset="1" stop-color="#09FFD4" stop-opacity="0"/>
</radialGradient>
<radialGradient id="paint51_radial_10_4" cx="0" cy="0" r="1" gradientUnits="userSpaceOnUse" gradientTransform="translate(-117.636 299.906) rotate(93.6488) scale(117.819 122.627)">
<stop stop-color="#00FFD2"/>
<stop offset="0.14427" stop-color="#17FFD6"/>
<stop offset="0.23997" stop-color="#0070FF"/>
<stop offset="1" stop-color="#09FFD4" stop-opacity="0"/>
</radialGradient>
<radialGradient id="paint52_radial_10_4" cx="0" cy="0" r="1" gradientUnits="userSpaceOnUse" gradientTransform="translate(-137.639 293.827) rotate(93.6489) scale(118.001 121.724)">
<stop stop-color="#00FFD2"/>
<stop offset="0.14427" stop-color="#17FFD6"/>
<stop offset="0.23997" stop-color="#0070FF"/>
<stop offset="1" stop-color="#09FFD4" stop-opacity="0"/>
</radialGradient>
<radialGradient id="paint53_radial_10_4" cx="0" cy="0" r="1" gradientUnits="userSpaceOnUse" gradientTransform="translate(-256.391 370.588) rotate(93.6482) scale(207.759 215.439)">
<stop stop-color="#00FFD2"/>
<stop offset="0.14427" stop-color="#17FFD6"/>
<stop offset="0.23997" stop-color="#0070FF"/>
<stop offset="1" stop-color="#09FFD4" stop-opacity="0"/>
</radialGradient>
<radialGradient id="paint54_radial_10_4" cx="0" cy="0" r="1" gradientUnits="userSpaceOnUse" gradientTransform="translate(-243.643 349.193) rotate(93.6491) scale(188.156 195.204)">
<stop stop-color="#00FFD2"/>
<stop offset="0.14427" stop-color="#17FFD6"/>
<stop offset="0.23997" stop-color="#0070FF"/>
<stop offset="1" stop-color="#09FFD4" stop-opacity="0"/>
</radialGradient>
<radialGradient id="paint55_radial_10_4" cx="0" cy="0" r="1" gradientUnits="userSpaceOnUse" gradientTransform="translate(-137.846 270.434) rotate(93.6482) scale(118.022 122.041)">
<stop stop-color="#00FFD2"/>
<stop offset="0.14427" stop-color="#17FFD6"/>
<stop offset="0.23997" stop-color="#0070FF"/>
<stop offset="1" stop-color="#09FFD4" stop-opacity="0"/>
</radialGradient>
<radialGradient id="paint56_radial_10_4" cx="0" cy="0" r="1" gradientUnits="userSpaceOnUse" gradientTransform="translate(-217.433 343.299) rotate(93.6491) scale(188.175 195.225)">
<stop stop-color="#00FFD2"/>
<stop offset="0.14427" stop-color="#17FFD6"/>
<stop offset="0.23997" stop-color="#0070FF"/>
<stop offset="1" stop-color="#09FFD4" stop-opacity="0"/>
</radialGradient>
<radialGradient id="paint57_radial_10_4" cx="0" cy="0" r="1" gradientUnits="userSpaceOnUse" gradientTransform="translate(-126.197 268.168) rotate(93.6486) scale(118.002 122.104)">
<stop stop-color="#00FFD2"/>
<stop offset="0.14427" stop-color="#17FFD6"/>
<stop offset="0.23997" stop-color="#0070FF"/>
<stop offset="1" stop-color="#09FFD4" stop-opacity="0"/>
</radialGradient>
<radialGradient id="paint58_radial_10_4" cx="0" cy="0" r="1" gradientUnits="userSpaceOnUse" gradientTransform="translate(-115.017 259.957) rotate(93.6486) scale(118.023 122.036)">
<stop stop-color="#00FFD2"/>
<stop offset="0.14427" stop-color="#17FFD6"/>
<stop offset="0.23997" stop-color="#0070FF"/>
<stop offset="1" stop-color="#09FFD4" stop-opacity="0"/>
</radialGradient>
<radialGradient id="paint59_radial_10_4" cx="0" cy="0" r="1" gradientUnits="userSpaceOnUse" gradientTransform="translate(-104.806 264.633) rotate(93.6486) scale(117.84 122.601)">
<stop stop-color="#00FFD2"/>
<stop offset="0.14427" stop-color="#17FFD6"/>
<stop offset="0.23997" stop-color="#0070FF"/>
<stop offset="1" stop-color="#09FFD4" stop-opacity="0"/>
</radialGradient>
<radialGradient id="paint60_radial_10_4" cx="0" cy="0" r="1" gradientUnits="userSpaceOnUse" gradientTransform="translate(-209.738 352.352) rotate(93.6491) scale(188.155 195.205)">
<stop stop-color="#00FFD2"/>
<stop offset="0.14427" stop-color="#17FFD6"/>
<stop offset="0.23997" stop-color="#0070FF"/>
<stop offset="1" stop-color="#09FFD4" stop-opacity="0"/>
</radialGradient>
<radialGradient id="paint61_radial_10_4" cx="0" cy="0" r="1" gradientUnits="userSpaceOnUse" gradientTransform="translate(-115.316 281.61) rotate(93.6483) scale(118.004 122.439)">
<stop stop-color="#00FFD2"/>
<stop offset="0.14427" stop-color="#17FFD6"/>
<stop offset="0.23997" stop-color="#0070FF"/>
<stop offset="1" stop-color="#09FFD4" stop-opacity="0"/>
</radialGradient>
<radialGradient id="paint62_radial_10_4" cx="0" cy="0" r="1" gradientUnits="userSpaceOnUse" gradientTransform="translate(-103.939 273.553) rotate(93.6492) scale(118.002 122.063)">
<stop stop-color="#00FFD2"/>
<stop offset="0.14427" stop-color="#17FFD6"/>
<stop offset="0.23997" stop-color="#0070FF"/>
<stop offset="1" stop-color="#09FFD4" stop-opacity="0"/>
</radialGradient>
<radialGradient id="paint63_radial_10_4" cx="0" cy="0" r="1" gradientUnits="userSpaceOnUse" gradientTransform="translate(-792.641 747.796) rotate(93.6488) scale(567.876 589.373)">
<stop stop-color="#00FFD2"/>
<stop offset="0.14427" stop-color="#17FFD6"/>
<stop offset="0.23997" stop-color="#0070FF"/>
<stop offset="1" stop-color="#09FFD4" stop-opacity="0"/>
</radialGradient>
<radialGradient id="paint64_radial_10_4" cx="0" cy="0" r="1" gradientUnits="userSpaceOnUse" gradientTransform="translate(-795.655 755.039) rotate(93.6491) scale(567.896 589.312)">
<stop stop-color="#00FFD2"/>
<stop offset="0.14427" stop-color="#17FFD6"/>
<stop offset="0.23997" stop-color="#0070FF"/>
<stop offset="1" stop-color="#09FFD4" stop-opacity="0"/>
</radialGradient>
<radialGradient id="paint65_radial_10_4" cx="0" cy="0" r="1" gradientUnits="userSpaceOnUse" gradientTransform="translate(-786.476 754.554) rotate(93.6488) scale(567.864 589.398)">
<stop stop-color="#00FFD2"/>
<stop offset="0.14427" stop-color="#17FFD6"/>
<stop offset="0.23997" stop-color="#0070FF"/>
<stop offset="1" stop-color="#09FFD4" stop-opacity="0"/>
</radialGradient>
<radialGradient id="paint66_radial_10_4" cx="0" cy="0" r="1" gradientUnits="userSpaceOnUse" gradientTransform="translate(-475.953 518.663) rotate(93.6491) scale(358.646 371.683)">
<stop stop-color="#00FFD2"/>
<stop offset="0.14427" stop-color="#17FFD6"/>
<stop offset="0.23997" stop-color="#0070FF"/>
<stop offset="1" stop-color="#09FFD4" stop-opacity="0"/>
</radialGradient>
<radialGradient id="paint67_radial_10_4" cx="0" cy="0" r="1" gradientUnits="userSpaceOnUse" gradientTransform="translate(-2104.31 781.5) rotate(93.6488) scale(678.458 1592.08)">
<stop stop-color="#00FFD2"/>
<stop offset="0.14427" stop-color="#17FFD6"/>
<stop offset="0.23997" stop-color="#0070FF"/>
<stop offset="1" stop-color="#09FFD4" stop-opacity="0"/>
</radialGradient>
<radialGradient id="paint68_radial_10_4" cx="0" cy="0" r="1" gradientUnits="userSpaceOnUse" gradientTransform="translate(-388.806 476.774) rotate(93.6487) scale(314.31 325.875)">
<stop stop-color="#00FFD2"/>
<stop offset="0.14427" stop-color="#17FFD6"/>
<stop offset="0.23997" stop-color="#0070FF"/>
<stop offset="1" stop-color="#09FFD4" stop-opacity="0"/>
</radialGradient>
<radialGradient id="paint69_radial_10_4" cx="0" cy="0" r="1" gradientUnits="userSpaceOnUse" gradientTransform="translate(-113.366 263.447) rotate(93.6487) scale(117.821 122.67)">
<stop stop-color="#00FFD2"/>
<stop offset="0.14427" stop-color="#17FFD6"/>
<stop offset="0.23997" stop-color="#0070FF"/>
<stop offset="1" stop-color="#09FFD4" stop-opacity="0"/>
</radialGradient>
<radialGradient id="paint70_radial_10_4" cx="0" cy="0" r="1" gradientUnits="userSpaceOnUse" gradientTransform="translate(-133.372 257.915) rotate(93.6489) scale(118.001 121.717)">
<stop stop-color="#00FFD2"/>
<stop offset="0.14427" stop-color="#17FFD6"/>
<stop offset="0.23997" stop-color="#0070FF"/>
<stop offset="1" stop-color="#09FFD4" stop-opacity="0"/>
</radialGradient>
<linearGradient id="paint71_linear_10_4" x1="201.526" y1="2013.22" x2="6190.1" y2="2013.22" gradientUnits="userSpaceOnUse">
<stop stop-color="white"/>
<stop offset="0.1225" stop-color="#FDFDFD"/>
<stop offset="0.2476" stop-color="#F7F7F7"/>
<stop offset="0.374" stop-color="#ECECEC"/>
<stop offset="0.5013" stop-color="#DEDEDE"/>
<stop offset="0.6295" stop-color="#CBCBCB"/>
<stop offset="0.7582" stop-color="#6BACFF"/>
<stop offset="0.8849" stop-color="#2F89FC"/>
<stop offset="1" stop-color="#0070FF"/>
</linearGradient>
<linearGradient id="paint72_linear_10_4" x1="188.144" y1="1699.69" x2="3110.42" y2="1699.69" gradientUnits="userSpaceOnUse">
<stop stop-color="white"/>
<stop offset="0.1225" stop-color="#FDFDFD"/>
<stop offset="0.2476" stop-color="#F7F7F7"/>
<stop offset="0.374" stop-color="#ECECEC"/>
<stop offset="0.5013" stop-color="#DEDEDE"/>
<stop offset="0.6295" stop-color="#CBCBCB"/>
<stop offset="0.7582" stop-color="#6BACFF"/>
<stop offset="0.8849" stop-color="#2F89FC"/>
<stop offset="1" stop-color="#0070FF"/>
</linearGradient>
<linearGradient id="paint73_linear_10_4" x1="139.039" y1="592.452" x2="1229.4" y2="592.452" gradientUnits="userSpaceOnUse">
<stop stop-color="white"/>
<stop offset="0.1225" stop-color="#FDFDFD"/>
<stop offset="0.2476" stop-color="#F7F7F7"/>
<stop offset="0.374" stop-color="#ECECEC"/>
<stop offset="0.5013" stop-color="#DEDEDE"/>
<stop offset="0.6295" stop-color="#CBCBCB"/>
<stop offset="0.7582" stop-color="#6BACFF"/>
<stop offset="0.8849" stop-color="#2F89FC"/>
<stop offset="1" stop-color="#0070FF"/>
</linearGradient>
<linearGradient id="paint74_linear_10_4" x1="125.097" y1="1335.31" x2="3710.44" y2="1335.31" gradientUnits="userSpaceOnUse">
<stop stop-color="white"/>
<stop offset="0.2621" stop-color="#FEFEFE"/>
<stop offset="0.3996" stop-color="#F5F5F5"/>
<stop offset="0.5081" stop-color="#F3F3F3"/>
<stop offset="0.6016" stop-color="#E9E9E9"/>
<stop offset="0.6853" stop-color="#DDDDDD"/>
<stop offset="0.7621" stop-color="#CECECE"/>
<stop offset="0.8336" stop-color="#78B3FF"/>
<stop offset="0.901" stop-color="#4E9CFF"/>
<stop offset="0.9627" stop-color="#2082FF"/>
<stop offset="1" stop-color="#0070FF"/>
</linearGradient>
<linearGradient id="paint75_linear_10_4" x1="172.3" y1="2074.21" x2="3767.3" y2="2074.21" gradientUnits="userSpaceOnUse">
<stop stop-color="#18423B"/>
<stop offset="0.4611" stop-color="#0C4B40"/>
<stop offset="1" stop-color="#005445"/>
</linearGradient>
<linearGradient id="paint76_linear_10_4" x1="150.747" y1="1742.71" x2="3291.29" y2="1742.71" gradientUnits="userSpaceOnUse">
<stop stop-color="#00F0C6"/>
<stop offset="0.1804" stop-color="#04EFC5"/>
<stop offset="0.3646" stop-color="#10EAC3"/>
<stop offset="0.5507" stop-color="#25E3C1"/>
<stop offset="0.738" stop-color="#8F8F8F"/>
<stop offset="0.9245" stop-color="#ADADAD"/>
<stop offset="1" stop-color="#BBBBBB"/>
</linearGradient>
<linearGradient id="paint77_linear_10_4" x1="1366.89" y1="4551.02" x2="1694.99" y2="71.9705" gradientUnits="userSpaceOnUse">
<stop stop-color="white"/>
<stop offset="0.2621" stop-color="#FEFEFE"/>
<stop offset="0.3996" stop-color="#F5F5F5"/>
<stop offset="0.5081" stop-color="#F3F3F3"/>
<stop offset="0.6016" stop-color="#E9E9E9"/>
<stop offset="0.6853" stop-color="#DDDDDD"/>
<stop offset="0.7621" stop-color="#CECECE"/>
<stop offset="0.8336" stop-color="#78B3FF"/>
<stop offset="0.901" stop-color="#4E9CFF"/>
<stop offset="0.9627" stop-color="#2082FF"/>
<stop offset="1" stop-color="#0070FF"/>
</linearGradient>
<linearGradient id="paint78_linear_10_4" x1="206.588" y1="2033.91" x2="2246.25" y2="2033.91" gradientUnits="userSpaceOnUse">
<stop stop-color="white"/>
<stop offset="0.1225" stop-color="#FDFDFD"/>
<stop offset="0.2476" stop-color="#F7F7F7"/>
<stop offset="0.374" stop-color="#ECECEC"/>
<stop offset="0.5013" stop-color="#DEDEDE"/>
<stop offset="0.6295" stop-color="#CBCBCB"/>
<stop offset="0.7582" stop-color="#6BACFF"/>
<stop offset="0.8849" stop-color="#2F89FC"/>
<stop offset="1" stop-color="#0070FF"/>
</linearGradient>
<linearGradient id="paint79_linear_10_4" x1="134.143" y1="2529.51" x2="8702.34" y2="2529.51" gradientUnits="userSpaceOnUse">
<stop stop-color="#18423B"/>
<stop offset="0.4611" stop-color="#0C4B40"/>
<stop offset="1" stop-color="#005445"/>
</linearGradient>
<linearGradient id="paint80_linear_10_4" x1="138.857" y1="2080" x2="8228.66" y2="2080" gradientUnits="userSpaceOnUse">
<stop stop-color="#18423B"/>
<stop offset="0.4937" stop-color="#0BA78B"/>
<stop offset="0.838" stop-color="#0367E6"/>
<stop offset="1" stop-color="#0070FF"/>
</linearGradient>
<radialGradient id="paint81_radial_10_4" cx="0" cy="0" r="1" gradientUnits="userSpaceOnUse" gradientTransform="translate(-48.1136 350.604) rotate(93.6481) scale(207.758 215.481)">
<stop stop-color="#00FFD2"/>
<stop offset="0.14427" stop-color="#17FFD6"/>
<stop offset="0.23997" stop-color="#0070FF"/>
<stop offset="1" stop-color="#09FFD4" stop-opacity="0"/>
</radialGradient>
<radialGradient id="paint82_radial_10_4" cx="0" cy="0" r="1" gradientUnits="userSpaceOnUse" gradientTransform="translate(-35.366 329.215) rotate(93.649) scale(188.155 195.243)">
<stop stop-color="#00FFD2"/>
<stop offset="0.14427" stop-color="#17FFD6"/>
<stop offset="0.23997" stop-color="#0070FF"/>
<stop offset="1" stop-color="#09FFD4" stop-opacity="0"/>
</radialGradient>
<radialGradient id="paint83_radial_10_4" cx="0" cy="0" r="1" gradientUnits="userSpaceOnUse" gradientTransform="translate(70.4581 250.475) rotate(93.6482) scale(118.022 122.041)">
<stop stop-color="#00FFD2"/>
<stop offset="0.14427" stop-color="#17FFD6"/>
<stop offset="0.23997" stop-color="#0070FF"/>
<stop offset="1" stop-color="#09FFD4" stop-opacity="0"/>
</radialGradient>
<radialGradient id="paint84_radial_10_4" cx="0" cy="0" r="1" gradientUnits="userSpaceOnUse" gradientTransform="translate(-9.13334 323.339) rotate(93.6491) scale(188.175 195.225)">
<stop stop-color="#00FFD2"/>
<stop offset="0.14427" stop-color="#17FFD6"/>
<stop offset="0.23997" stop-color="#0070FF"/>
<stop offset="1" stop-color="#09FFD4" stop-opacity="0"/>
</radialGradient>
<radialGradient id="paint85_radial_10_4" cx="0" cy="0" r="1" gradientUnits="userSpaceOnUse" gradientTransform="translate(102.439 250.579) rotate(93.6426) scale(138.817 143.591)">
<stop stop-color="#D5D5D5"/>
<stop offset="0.043" stop-color="#B6B6B6"/>
<stop offset="0.1242" stop-color="#7E8180"/>
<stop offset="0.1997" stop-color="#40514E"/>
<stop offset="0.2672" stop-color="#333837"/>
<stop offset="0.3241" stop-color="#202625"/>
<stop offset="0.3636" stop-color="#191F1E"/>
<stop offset="0.994"/>
</radialGradient>
<radialGradient id="paint86_radial_10_4" cx="0" cy="0" r="1" gradientUnits="userSpaceOnUse" gradientTransform="translate(93.2828 239.997) rotate(93.6486) scale(118.023 122.036)">
<stop stop-color="#00FFD2"/>
<stop offset="0.14427" stop-color="#17FFD6"/>
<stop offset="0.23997" stop-color="#0070FF"/>
<stop offset="1" stop-color="#09FFD4" stop-opacity="0"/>
</radialGradient>
<radialGradient id="paint87_radial_10_4" cx="0" cy="0" r="1" gradientUnits="userSpaceOnUse" gradientTransform="translate(103.697 244.849) rotate(93.6489) scale(117.838 122.268)">
<stop stop-color="#00FFD2"/>
<stop offset="0.14427" stop-color="#17FFD6"/>
<stop offset="0.23997" stop-color="#0070FF"/>
<stop offset="1" stop-color="#09FFD4" stop-opacity="0"/>
</radialGradient>
<radialGradient id="paint88_radial_10_4" cx="0" cy="0" r="1" gradientUnits="userSpaceOnUse" gradientTransform="translate(-1.43317 332.393) rotate(93.6491) scale(188.155 195.205)">
<stop stop-color="#00FFD2"/>
<stop offset="0.14427" stop-color="#17FFD6"/>
<stop offset="0.23997" stop-color="#0070FF"/>
<stop offset="1" stop-color="#09FFD4" stop-opacity="0"/>
</radialGradient>
<radialGradient id="paint89_radial_10_4" cx="0" cy="0" r="1" gradientUnits="userSpaceOnUse" gradientTransform="translate(92.9838 261.65) rotate(93.6483) scale(118.004 122.439)">
<stop stop-color="#00FFD2"/>
<stop offset="0.14427" stop-color="#17FFD6"/>
<stop offset="0.23997" stop-color="#0070FF"/>
<stop offset="1" stop-color="#09FFD4" stop-opacity="0"/>
</radialGradient>
<radialGradient id="paint90_radial_10_4" cx="0" cy="0" r="1" gradientUnits="userSpaceOnUse" gradientTransform="translate(104.13 253.385) rotate(93.6483) scale(118.004 122.44)">
<stop stop-color="#00FFD2"/>
<stop offset="0.14427" stop-color="#17FFD6"/>
<stop offset="0.23997" stop-color="#0070FF"/>
<stop offset="1" stop-color="#09FFD4" stop-opacity="0"/>
</radialGradient>
<radialGradient id="paint91_radial_10_4" cx="0" cy="0" r="1" gradientUnits="userSpaceOnUse" gradientTransform="translate(-592.195 719.15) rotate(93.6487) scale(567.88 589.339)">
<stop stop-color="#00FFD2"/>
<stop offset="0.14427" stop-color="#17FFD6"/>
<stop offset="0.23997" stop-color="#0070FF"/>
<stop offset="1" stop-color="#09FFD4" stop-opacity="0"/>
</radialGradient>
<radialGradient id="paint92_radial_10_4" cx="0" cy="0" r="1" gradientUnits="userSpaceOnUse" gradientTransform="translate(-595.258 726.342) rotate(93.6492) scale(567.9 589.359)">
<stop stop-color="#00FFD2"/>
<stop offset="0.14427" stop-color="#17FFD6"/>
<stop offset="0.23997" stop-color="#0070FF"/>
<stop offset="1" stop-color="#09FFD4" stop-opacity="0"/>
</radialGradient>
<radialGradient id="paint93_radial_10_4" cx="0" cy="0" r="1" gradientUnits="userSpaceOnUse" gradientTransform="translate(-586.034 725.91) rotate(93.6488) scale(567.856 589.353)">
<stop stop-color="#00FFD2"/>
<stop offset="0.14427" stop-color="#17FFD6"/>
<stop offset="0.23997" stop-color="#0070FF"/>
<stop offset="1" stop-color="#09FFD4" stop-opacity="0"/>
</radialGradient>
<radialGradient id="paint94_radial_10_4" cx="0" cy="0" r="1" gradientUnits="userSpaceOnUse" gradientTransform="translate(-275.567 490.512) rotate(93.6491) scale(358.646 371.683)">
<stop stop-color="#00FFD2"/>
<stop offset="0.14427" stop-color="#17FFD6"/>
<stop offset="0.23997" stop-color="#0070FF"/>
<stop offset="1" stop-color="#09FFD4" stop-opacity="0"/>
</radialGradient>
<radialGradient id="paint95_radial_10_4" cx="0" cy="0" r="1" gradientUnits="userSpaceOnUse" gradientTransform="translate(-548.597 726.9) rotate(93.6488) scale(567.876 589.372)">
<stop stop-color="#00FFD2"/>
<stop offset="0.14427" stop-color="#17FFD6"/>
<stop offset="0.23997" stop-color="#0070FF"/>
<stop offset="1" stop-color="#09FFD4" stop-opacity="0"/>
</radialGradient>
<radialGradient id="paint96_radial_10_4" cx="0" cy="0" r="1" gradientUnits="userSpaceOnUse" gradientTransform="translate(-585.476 708.478) rotate(93.6487) scale(567.88 589.339)">
<stop stop-color="#00FFD2"/>
<stop offset="0.14427" stop-color="#17FFD6"/>
<stop offset="0.23997" stop-color="#0070FF"/>
<stop offset="1" stop-color="#09FFD4" stop-opacity="0"/>
</radialGradient>
<radialGradient id="paint97_radial_10_4" cx="0" cy="0" r="1" gradientUnits="userSpaceOnUse" gradientTransform="translate(-188.416 448.624) rotate(93.6487) scale(314.31 325.876)">
<stop stop-color="#00FFD2"/>
<stop offset="0.14427" stop-color="#17FFD6"/>
<stop offset="0.23997" stop-color="#0070FF"/>
<stop offset="1" stop-color="#09FFD4" stop-opacity="0"/>
</radialGradient>
<radialGradient id="paint98_radial_10_4" cx="0" cy="0" r="1" gradientUnits="userSpaceOnUse" gradientTransform="translate(87.0453 235.321) rotate(93.6488) scale(117.819 122.627)">
<stop stop-color="#00FFD2"/>
<stop offset="0.14427" stop-color="#17FFD6"/>
<stop offset="0.23997" stop-color="#0070FF"/>
<stop offset="1" stop-color="#09FFD4" stop-opacity="0"/>
</radialGradient>
<radialGradient id="paint99_radial_10_4" cx="0" cy="0" r="1" gradientUnits="userSpaceOnUse" gradientTransform="translate(67.042 229.242) rotate(93.6489) scale(118.001 121.724)">
<stop stop-color="#00FFD2"/>
<stop offset="0.14427" stop-color="#17FFD6"/>
<stop offset="0.23997" stop-color="#0070FF"/>
<stop offset="1" stop-color="#09FFD4" stop-opacity="0"/>
</radialGradient>
<radialGradient id="paint100_radial_10_4" cx="0" cy="0" r="1" gradientUnits="userSpaceOnUse" gradientTransform="translate(-51.2694 303.403) rotate(93.6482) scale(207.759 215.439)">
<stop stop-color="#00FFD2"/>
<stop offset="0.14427" stop-color="#17FFD6"/>
<stop offset="0.23997" stop-color="#0070FF"/>
<stop offset="1" stop-color="#09FFD4" stop-opacity="0"/>
</radialGradient>
<radialGradient id="paint101_radial_10_4" cx="0" cy="0" r="1" gradientUnits="userSpaceOnUse" gradientTransform="translate(-38.5219 282.007) rotate(93.6491) scale(188.156 195.204)">
<stop stop-color="#00FFD2"/>
<stop offset="0.14427" stop-color="#17FFD6"/>
<stop offset="0.23997" stop-color="#0070FF"/>
<stop offset="1" stop-color="#09FFD4" stop-opacity="0"/>
</radialGradient>
<radialGradient id="paint102_radial_10_4" cx="0" cy="0" r="1" gradientUnits="userSpaceOnUse" gradientTransform="translate(67.2749 203.249) rotate(93.6482) scale(118.022 122.041)">
<stop stop-color="#00FFD2"/>
<stop offset="0.14427" stop-color="#17FFD6"/>
<stop offset="0.23997" stop-color="#0070FF"/>
<stop offset="1" stop-color="#09FFD4" stop-opacity="0"/>
</radialGradient>
<radialGradient id="paint103_radial_10_4" cx="0" cy="0" r="1" gradientUnits="userSpaceOnUse" gradientTransform="translate(-12.3121 276.113) rotate(93.6491) scale(188.175 195.225)">
<stop stop-color="#00FFD2"/>
<stop offset="0.14427" stop-color="#17FFD6"/>
<stop offset="0.23997" stop-color="#0070FF"/>
<stop offset="1" stop-color="#09FFD4" stop-opacity="0"/>
</radialGradient>
<radialGradient id="paint104_radial_10_4" cx="0" cy="0" r="1" gradientUnits="userSpaceOnUse" gradientTransform="translate(78.9242 200.983) rotate(93.6486) scale(118.002 122.104)">
<stop stop-color="#00FFD2"/>
<stop offset="0.14427" stop-color="#17FFD6"/>
<stop offset="0.23997" stop-color="#0070FF"/>
<stop offset="1" stop-color="#09FFD4" stop-opacity="0"/>
</radialGradient>
<radialGradient id="paint105_radial_10_4" cx="0" cy="0" r="1" gradientUnits="userSpaceOnUse" gradientTransform="translate(90.1041 192.771) rotate(93.6486) scale(118.023 122.036)">
<stop stop-color="#00FFD2"/>
<stop offset="0.14427" stop-color="#17FFD6"/>
<stop offset="0.23997" stop-color="#0070FF"/>
<stop offset="1" stop-color="#09FFD4" stop-opacity="0"/>
</radialGradient>
<radialGradient id="paint106_radial_10_4" cx="0" cy="0" r="1" gradientUnits="userSpaceOnUse" gradientTransform="translate(100.315 197.447) rotate(93.6486) scale(117.84 122.601)">
<stop stop-color="#00FFD2"/>
<stop offset="0.14427" stop-color="#17FFD6"/>
<stop offset="0.23997" stop-color="#0070FF"/>
<stop offset="1" stop-color="#09FFD4" stop-opacity="0"/>
</radialGradient>
<radialGradient id="paint107_radial_10_4" cx="0" cy="0" r="1" gradientUnits="userSpaceOnUse" gradientTransform="translate(-4.61634 285.167) rotate(93.6491) scale(188.155 195.205)">
<stop stop-color="#00FFD2"/>
<stop offset="0.14427" stop-color="#17FFD6"/>
<stop offset="0.23997" stop-color="#0070FF"/>
<stop offset="1" stop-color="#09FFD4" stop-opacity="0"/>
</radialGradient>
<radialGradient id="paint108_radial_10_4" cx="0" cy="0" r="1" gradientUnits="userSpaceOnUse" gradientTransform="translate(89.8051 214.425) rotate(93.6483) scale(118.004 122.439)">
<stop stop-color="#00FFD2"/>
<stop offset="0.14427" stop-color="#17FFD6"/>
<stop offset="0.23997" stop-color="#0070FF"/>
<stop offset="1" stop-color="#09FFD4" stop-opacity="0"/>
</radialGradient>
<radialGradient id="paint109_radial_10_4" cx="0" cy="0" r="1" gradientUnits="userSpaceOnUse" gradientTransform="translate(101.182 206.368) rotate(93.6492) scale(118.002 122.063)">
<stop stop-color="#00FFD2"/>
<stop offset="0.14427" stop-color="#17FFD6"/>
<stop offset="0.23997" stop-color="#0070FF"/>
<stop offset="1" stop-color="#09FFD4" stop-opacity="0"/>
</radialGradient>
<radialGradient id="paint110_radial_10_4" cx="0" cy="0" r="1" gradientUnits="userSpaceOnUse" gradientTransform="translate(-587.519 680.611) rotate(93.6488) scale(567.876 589.373)">
<stop stop-color="#00FFD2"/>
<stop offset="0.14427" stop-color="#17FFD6"/>
<stop offset="0.23997" stop-color="#0070FF"/>
<stop offset="1" stop-color="#09FFD4" stop-opacity="0"/>
</radialGradient>
<radialGradient id="paint111_radial_10_4" cx="0" cy="0" r="1" gradientUnits="userSpaceOnUse" gradientTransform="translate(-590.534 687.853) rotate(93.6491) scale(567.896 589.312)">
<stop stop-color="#00FFD2"/>
<stop offset="0.14427" stop-color="#17FFD6"/>
<stop offset="0.23997" stop-color="#0070FF"/>
<stop offset="1" stop-color="#09FFD4" stop-opacity="0"/>
</radialGradient>
<radialGradient id="paint112_radial_10_4" cx="0" cy="0" r="1" gradientUnits="userSpaceOnUse" gradientTransform="translate(-581.355 687.369) rotate(93.6488) scale(567.864 589.398)">
<stop stop-color="#00FFD2"/>
<stop offset="0.14427" stop-color="#17FFD6"/>
<stop offset="0.23997" stop-color="#0070FF"/>
<stop offset="1" stop-color="#09FFD4" stop-opacity="0"/>
</radialGradient>
<radialGradient id="paint113_radial_10_4" cx="0" cy="0" r="1" gradientUnits="userSpaceOnUse" gradientTransform="translate(-270.832 451.477) rotate(93.6491) scale(358.646 371.683)">
<stop stop-color="#00FFD2"/>
<stop offset="0.14427" stop-color="#17FFD6"/>
<stop offset="0.23997" stop-color="#0070FF"/>
<stop offset="1" stop-color="#09FFD4" stop-opacity="0"/>
</radialGradient>
<radialGradient id="paint114_radial_10_4" cx="0" cy="0" r="1" gradientUnits="userSpaceOnUse" gradientTransform="translate(-1899.19 714.315) rotate(93.6488) scale(678.458 1592.08)">
<stop stop-color="#00FFD2"/>
<stop offset="0.14427" stop-color="#17FFD6"/>
<stop offset="0.23997" stop-color="#0070FF"/>
<stop offset="1" stop-color="#09FFD4" stop-opacity="0"/>
</radialGradient>
<radialGradient id="paint115_radial_10_4" cx="0" cy="0" r="1" gradientUnits="userSpaceOnUse" gradientTransform="translate(-183.684 409.589) rotate(93.6487) scale(314.31 325.875)">
<stop stop-color="#00FFD2"/>
<stop offset="0.14427" stop-color="#17FFD6"/>
<stop offset="0.23997" stop-color="#0070FF"/>
<stop offset="1" stop-color="#09FFD4" stop-opacity="0"/>
</radialGradient>
<radialGradient id="paint116_radial_10_4" cx="0" cy="0" r="1" gradientUnits="userSpaceOnUse" gradientTransform="translate(91.7547 196.261) rotate(93.6487) scale(117.821 122.67)">
<stop stop-color="#00FFD2"/>
<stop offset="0.14427" stop-color="#17FFD6"/>
<stop offset="0.23997" stop-color="#0070FF"/>
<stop offset="1" stop-color="#09FFD4" stop-opacity="0"/>
</radialGradient>
<radialGradient id="paint117_radial_10_4" cx="0" cy="0" r="1" gradientUnits="userSpaceOnUse" gradientTransform="translate(71.7495 190.73) rotate(93.6489) scale(118.001 121.717)">
<stop stop-color="#00FFD2"/>
<stop offset="0.14427" stop-color="#17FFD6"/>
<stop offset="0.23997" stop-color="#0070FF"/>
<stop offset="1" stop-color="#09FFD4" stop-opacity="0"/>
</radialGradient>
<clipPath id="clip0_10_4">
<rect width="352" height="257" fill="white"/>
</clipPath>
</defs>
</svg>
