<svg width="21" height="21" viewBox="0 0 21 21" fill="none" xmlns="http://www.w3.org/2000/svg">
<path d="M10.5 2.7796C8.428 2.7796 6.44086 3.6027 4.97573 5.06783C3.5106 6.53296 2.6875 8.5201 2.6875 10.5921C2.6875 12.6641 3.5106 14.6512 4.97573 16.1164C6.44086 17.5815 8.428 18.4046 10.5 18.4046C12.1219 18.4046 13.8219 17.9179 15.0477 17.103C15.0819 17.0803 15.1113 17.0511 15.1342 17.017C15.1571 16.9829 15.1731 16.9446 15.1812 16.9044C15.1893 16.8641 15.1894 16.8226 15.1815 16.7823C15.1736 16.742 15.1579 16.7037 15.1352 16.6694C15.1124 16.6352 15.0832 16.6058 15.0491 16.5829C15.015 16.56 14.9767 16.544 14.9365 16.5359C14.8962 16.5278 14.8547 16.5277 14.8144 16.5356C14.7741 16.5435 14.7358 16.5592 14.7016 16.5819C13.5742 17.3319 12.0031 17.7796 10.5 17.7796C9.07845 17.7796 7.68882 17.3581 6.50684 16.5683C5.32486 15.7785 4.40362 14.656 3.85962 13.3426C3.31561 12.0293 3.17327 10.5841 3.45061 9.18989C3.72794 7.79565 4.41248 6.51496 5.41767 5.50977C6.42286 4.50458 7.70355 3.82004 9.09779 3.54271C10.492 3.26538 11.9372 3.40771 13.2505 3.95172C14.5639 4.49572 15.6864 5.41696 16.4762 6.59894C17.266 7.78092 17.6875 9.17055 17.6875 10.5921C17.6875 13.039 16.5156 13.4046 15.8125 13.4046C15.1094 13.4046 13.9375 13.039 13.9375 10.5921V7.4671C13.9375 7.38422 13.9046 7.30474 13.846 7.24613C13.7874 7.18753 13.7079 7.1546 13.625 7.1546C13.5421 7.1546 13.4626 7.18753 13.404 7.24613C13.3454 7.30474 13.3125 7.38422 13.3125 7.4671V8.61945C12.8825 8.0064 12.264 7.55055 11.5512 7.3212C10.8384 7.09184 10.0701 7.10153 9.36329 7.34878C8.65646 7.59604 8.04971 8.06734 7.63527 8.69103C7.22084 9.31472 7.0214 10.0567 7.06728 10.8041C7.11316 11.5515 7.40185 12.2635 7.88945 12.8318C8.37706 13.4001 9.0369 13.7937 9.76866 13.9527C10.5004 14.1116 11.2641 14.0273 11.9435 13.7124C12.6229 13.3976 13.181 12.8695 13.5328 12.2085C13.8953 13.3718 14.6922 14.0296 15.8125 14.0296C17.375 14.0296 18.3125 12.7444 18.3125 10.5921C18.3102 8.5208 17.4864 6.53498 16.0218 5.07034C14.5571 3.60571 12.5713 2.78188 10.5 2.7796ZM10.5 13.4046C9.94374 13.4046 9.39997 13.2397 8.93746 12.9306C8.47495 12.6216 8.11446 12.1823 7.90159 11.6684C7.68872 11.1545 7.63302 10.589 7.74154 10.0434C7.85006 9.49784 8.11793 8.9967 8.51126 8.60336C8.9046 8.21003 9.40574 7.94216 9.95131 7.83364C10.4969 7.72512 11.0624 7.78082 11.5763 7.99369C12.0902 8.20656 12.5295 8.56705 12.8385 9.02956C13.1475 9.49207 13.3125 10.0358 13.3125 10.5921C13.3125 11.338 13.0162 12.0534 12.4887 12.5808C11.9613 13.1083 11.2459 13.4046 10.5 13.4046Z" fill="#072D30"/>
</svg>
