<svg width="21" height="21" viewBox="0 0 21 21" fill="none" xmlns="http://www.w3.org/2000/svg">
<path d="M16.75 7.1546H13.9375V4.9671C13.9375 4.05542 13.5753 3.18108 12.9307 2.53642C12.286 1.89177 11.4117 1.5296 10.5 1.5296C9.58832 1.5296 8.71398 1.89177 8.06932 2.53642C7.42466 3.18108 7.0625 4.05542 7.0625 4.9671V7.1546H4.25C4.00136 7.1546 3.7629 7.25337 3.58709 7.42919C3.41127 7.605 3.3125 7.84346 3.3125 8.0921V16.8421C3.3125 17.0907 3.41127 17.3292 3.58709 17.505C3.7629 17.6808 4.00136 17.7796 4.25 17.7796H16.75C16.9986 17.7796 17.2371 17.6808 17.4129 17.505C17.5887 17.3292 17.6875 17.0907 17.6875 16.8421V8.0921C17.6875 7.84346 17.5887 7.605 17.4129 7.42919C17.2371 7.25337 16.9986 7.1546 16.75 7.1546ZM7.6875 4.9671C7.6875 4.22118 7.98382 3.50581 8.51126 2.97836C9.03871 2.45092 9.75408 2.1546 10.5 2.1546C11.2459 2.1546 11.9613 2.45092 12.4887 2.97836C13.0162 3.50581 13.3125 4.22118 13.3125 4.9671V7.1546H7.6875V4.9671ZM17.0625 16.8421C17.0625 16.925 17.0296 17.0045 16.971 17.0631C16.9124 17.1217 16.8329 17.1546 16.75 17.1546H4.25C4.16712 17.1546 4.08763 17.1217 4.02903 17.0631C3.97042 17.0045 3.9375 16.925 3.9375 16.8421V8.0921C3.9375 8.00922 3.97042 7.92974 4.02903 7.87113C4.08763 7.81253 4.16712 7.7796 4.25 7.7796H16.75C16.8329 7.7796 16.9124 7.81253 16.971 7.87113C17.0296 7.92974 17.0625 8.00922 17.0625 8.0921V16.8421ZM11.125 12.4671C11.125 12.5907 11.0883 12.7116 11.0197 12.8143C10.951 12.9171 10.8534 12.9972 10.7392 13.0445C10.625 13.0918 10.4993 13.1042 10.3781 13.0801C10.2568 13.056 10.1455 12.9965 10.0581 12.909C9.97065 12.8216 9.91112 12.7103 9.88701 12.589C9.86289 12.4678 9.87527 12.3421 9.92257 12.2279C9.96988 12.1137 10.05 12.0161 10.1528 11.9474C10.2555 11.8788 10.3764 11.8421 10.5 11.8421C10.6658 11.8421 10.8247 11.9079 10.9419 12.0252C11.0592 12.1424 11.125 12.3013 11.125 12.4671Z" fill="#072D30"/>
</svg>
