<svg width="20" height="20" viewBox="0 0 20 20" fill="none" xmlns="http://www.w3.org/2000/svg">
<path d="M17.2484 12.6664L13.5594 11.0156C13.4164 10.9537 13.2602 10.9285 13.105 10.9421C12.9497 10.9558 12.8003 11.0079 12.6703 11.0938C12.6599 11.1003 12.65 11.1077 12.6406 11.1156L10.7031 12.7672C10.66 12.7935 10.6111 12.8087 10.5607 12.8116C10.5102 12.8145 10.4599 12.8048 10.4141 12.7836C9.14532 12.1711 7.83204 10.868 7.21954 9.61407C7.19787 9.5686 7.18782 9.51847 7.19027 9.46816C7.19272 9.41785 7.20761 9.36893 7.2336 9.32579L8.88985 7.35626C8.89766 7.34688 8.9047 7.33672 8.91173 7.32657C8.99734 7.19673 9.04931 7.04762 9.06295 6.89269C9.07659 6.73776 9.05147 6.58187 8.98985 6.43907L7.33595 2.75626C7.2561 2.56973 7.1179 2.41414 6.94209 2.31285C6.76628 2.21157 6.56236 2.17005 6.36095 2.19454C5.3778 2.32416 4.47545 2.80724 3.82245 3.55355C3.16945 4.29986 2.81045 5.25835 2.81251 6.25001C2.81251 12.2813 7.71876 17.1875 13.75 17.1875C14.7417 17.1896 15.7002 16.8306 16.4465 16.1776C17.1928 15.5246 17.6759 14.6222 17.8055 13.6391C17.8298 13.4386 17.7887 13.2356 17.6883 13.0603C17.588 12.8851 17.4337 12.7469 17.2484 12.6664ZM17.1875 13.5609C17.0772 14.3936 16.6674 15.1575 16.0347 15.7099C15.4021 16.2623 14.5899 16.5654 13.75 16.5625C8.06407 16.5625 3.43751 11.9359 3.43751 6.25001C3.4346 5.41012 3.73769 4.59793 4.29011 3.96527C4.84253 3.33262 5.60646 2.92283 6.43907 2.81251C6.45156 2.81173 6.46408 2.81173 6.47657 2.81251C6.53822 2.81303 6.59834 2.83178 6.64936 2.8664C6.70038 2.90101 6.74002 2.94994 6.76329 3.00704L8.41251 6.68985C8.43175 6.73486 8.44015 6.78376 8.43703 6.83261C8.43391 6.88147 8.41935 6.9289 8.39454 6.9711L6.73907 8.93985C6.73126 8.95001 6.72345 8.95938 6.71641 8.97032C6.62822 9.10519 6.57628 9.26052 6.5656 9.42131C6.55493 9.58211 6.58588 9.74294 6.65548 9.88829C7.33438 11.2781 8.73438 12.668 10.1399 13.3469C10.2862 13.416 10.4479 13.4461 10.6094 13.4342C10.7708 13.4223 10.9263 13.3688 11.0609 13.2789L11.0899 13.257L13.0297 11.607C13.0712 11.5817 13.1181 11.5666 13.1666 11.5629C13.2151 11.5592 13.2638 11.5671 13.3086 11.5859L16.9969 13.2391C17.0591 13.265 17.1113 13.3103 17.1457 13.3683C17.18 13.4263 17.1947 13.4939 17.1875 13.5609Z" fill="#072D30"/>
</svg>
