<svg width="20" height="20" viewBox="0 0 20 20" fill="none" xmlns="http://www.w3.org/2000/svg">
<path d="M17.7703 16.7187C16.4797 14.4875 14.4109 12.964 12.0141 12.4148C13.153 11.9482 14.0946 11.1006 14.6779 10.0167C15.2613 8.93292 15.4502 7.68018 15.2124 6.47253C14.9746 5.26489 14.3249 4.17728 13.3742 3.39553C12.4235 2.61378 11.2308 2.1864 10 2.1864C8.76917 2.1864 7.57653 2.61378 6.62583 3.39553C5.67514 4.17728 5.02539 5.26489 4.78759 6.47253C4.5498 7.68018 4.73871 8.93292 5.32206 10.0167C5.90541 11.1006 6.84699 11.9482 7.98594 12.4148C5.59219 12.9617 3.52032 14.4875 2.22969 16.7187C2.19233 16.7901 2.18401 16.8732 2.20647 16.9506C2.22892 17.0281 2.28042 17.0938 2.3502 17.1341C2.41999 17.1745 2.50265 17.1863 2.58094 17.1671C2.65923 17.1479 2.72708 17.0992 2.77032 17.0312C4.29688 14.3898 7.00157 12.8125 10 12.8125C12.9984 12.8125 15.7031 14.3898 17.2297 17.0312C17.2571 17.0787 17.2965 17.1181 17.3439 17.1455C17.3914 17.1729 17.4452 17.1874 17.5 17.1875C17.5549 17.1876 17.6089 17.1731 17.6563 17.1453C17.7279 17.1038 17.7801 17.0356 17.8015 16.9556C17.8229 16.8756 17.8117 16.7904 17.7703 16.7187ZM5.3125 7.49997C5.3125 6.57287 5.58742 5.66659 6.10249 4.89574C6.61756 4.12488 7.34965 3.52407 8.20617 3.16929C9.0627 2.8145 10.0052 2.72167 10.9145 2.90254C11.8238 3.08341 12.659 3.52985 13.3146 4.18541C13.9701 4.84097 14.4166 5.6762 14.5974 6.58549C14.7783 7.49477 14.6855 8.43727 14.3307 9.2938C13.9759 10.1503 13.3751 10.8824 12.6042 11.3975C11.8334 11.9126 10.9271 12.1875 10 12.1875C8.75725 12.186 7.5658 11.6917 6.68704 10.8129C5.80828 9.93417 5.31395 8.74273 5.3125 7.49997Z" fill="#072D30"/>
</svg>
